<svg width="240" height="73" viewBox="0 0 240 73" fill="none" xmlns="http://www.w3.org/2000/svg">
<path d="M103.831 31.4501L96.4892 11.0909H102.052L108.145 28.6119H105.496L111.853 11.0909H116.848L123.017 28.6119H120.368L126.65 11.0909H131.872L124.493 31.4501H118.778L113.367 16.4267H115.108L109.507 31.4501H103.831ZM139.498 27.2874L139.649 20.0974L149.148 11.0909H156.186L147.066 20.3623L144.001 22.8599L139.498 27.2874ZM134.616 31.4501V3.37103H140.52V31.4501H134.616ZM149.791 31.4501L142.904 22.8977L146.612 18.3188L156.943 31.4501H149.791ZM171.632 31.7528C169.841 31.7528 168.302 31.3744 167.015 30.6175C165.729 29.8607 164.745 28.7128 164.064 27.1739C163.382 25.6097 163.042 23.6419 163.042 21.2705C163.042 18.8738 163.395 16.906 164.101 15.3671C164.833 13.8281 165.842 12.6803 167.129 11.9234C168.415 11.1666 169.917 10.7881 171.632 10.7881C173.549 10.7881 175.265 11.217 176.779 12.0748C178.318 12.9325 179.528 14.1435 180.411 15.7076C181.32 17.2718 181.774 19.1261 181.774 21.2705C181.774 23.3896 181.32 25.2313 180.411 26.7955C179.528 28.3596 178.318 29.5832 176.779 30.4662C175.265 31.3239 173.549 31.7528 171.632 31.7528ZM159.598 31.4501V3.37103H165.502V15.2157L165.123 21.2326L165.237 27.2874V31.4501H159.598ZM170.61 26.909C171.594 26.909 172.465 26.6819 173.221 26.2278C174.003 25.7737 174.622 25.1304 175.076 24.2979C175.555 23.4401 175.795 22.431 175.795 21.2705C175.795 20.0847 175.555 19.0756 175.076 18.2431C174.622 17.4106 174.003 16.7672 173.221 16.3131C172.465 15.859 171.594 15.632 170.61 15.632C169.626 15.632 168.743 15.859 167.961 16.3131C167.179 16.7672 166.561 17.4106 166.107 18.2431C165.653 19.0756 165.426 20.0847 165.426 21.2705C165.426 22.431 165.653 23.4401 166.107 24.2979C166.561 25.1304 167.179 25.7737 167.961 26.2278C168.743 26.6819 169.626 26.909 170.61 26.909ZM187.737 31.7528C186.727 31.7528 185.857 31.4122 185.125 30.7311C184.419 30.0247 184.066 29.1291 184.066 28.0443C184.066 26.9594 184.419 26.0891 185.125 25.4331C185.857 24.752 186.727 24.4114 187.737 24.4114C188.771 24.4114 189.641 24.752 190.348 25.4331C191.054 26.0891 191.407 26.9594 191.407 28.0443C191.407 29.1291 191.054 30.0247 190.348 30.7311C189.641 31.4122 188.771 31.7528 187.737 31.7528ZM118.627 45.545V63.0282C118.627 66.4087 117.794 68.9063 116.129 70.521C114.49 72.1608 112.005 72.9807 108.674 72.9807C106.833 72.9807 105.079 72.7032 103.414 72.1482C101.775 71.6184 100.437 70.8741 99.4031 69.9155L100.765 67.872C101.724 68.7297 102.885 69.3983 104.247 69.8776C105.634 70.357 107.085 70.5966 108.599 70.5966C111.122 70.5966 112.976 70.0038 114.162 68.818C115.347 67.6575 115.94 65.8411 115.94 63.3687V60.8333C115.108 62.0947 114.01 63.0534 112.648 63.7093C111.311 64.3653 109.822 64.6932 108.182 64.6932C106.316 64.6932 104.613 64.2896 103.074 63.4823C101.56 62.6497 100.362 61.5019 99.4787 60.0386C98.621 58.5501 98.1921 56.8725 98.1921 55.0056C98.1921 53.1387 98.621 51.4736 99.4787 50.0104C100.362 48.5471 101.56 47.4119 103.074 46.6046C104.587 45.7973 106.29 45.3936 108.182 45.3936C109.873 45.3936 111.399 45.7342 112.761 46.4154C114.124 47.0965 115.221 48.0804 116.054 49.3671V45.545H118.627ZM108.447 62.3092C109.885 62.3092 111.185 62.0064 112.345 61.4009C113.506 60.7702 114.401 59.8999 115.032 58.7898C115.688 57.6798 116.016 56.4184 116.016 55.0056C116.016 53.5928 115.688 52.344 115.032 51.2592C114.401 50.1491 113.506 49.2914 112.345 48.6859C111.21 48.0552 109.911 47.7398 108.447 47.7398C107.009 47.7398 105.71 48.0426 104.55 48.6481C103.414 49.2535 102.519 50.1113 101.863 51.2213C101.232 52.3314 100.917 53.5928 100.917 55.0056C100.917 56.4184 101.232 57.6798 101.863 58.7898C102.519 59.8999 103.414 60.7702 104.55 61.4009C105.71 62.0064 107.009 62.3092 108.447 62.3092ZM131.59 45.3936C134.188 45.3936 136.181 46.0496 137.569 47.3614C138.956 48.6481 139.65 50.5654 139.65 53.1135V65.4501H137.077V62.347C136.471 63.3814 135.576 64.1887 134.39 64.7689C133.23 65.3492 131.842 65.6393 130.227 65.6393C128.007 65.6393 126.241 65.1095 124.93 64.0499C123.618 62.9903 122.962 61.5902 122.962 59.8494C122.962 58.1591 123.567 56.7968 124.778 55.7624C126.014 54.7281 127.97 54.2109 130.644 54.2109H136.963V52.9999C136.963 51.2844 136.484 49.9852 135.525 49.1022C134.567 48.194 133.167 47.7398 131.325 47.7398C130.063 47.7398 128.853 47.9543 127.692 48.3832C126.532 48.7868 125.535 49.3545 124.702 50.0861L123.492 48.0804C124.501 47.2227 125.712 46.5667 127.124 46.1126C128.537 45.6333 130.026 45.3936 131.59 45.3936ZM130.644 63.5201C132.157 63.5201 133.457 63.1795 134.541 62.4984C135.626 61.792 136.434 60.7828 136.963 59.471V56.2165H130.719C127.314 56.2165 125.611 57.4023 125.611 59.7737C125.611 60.9342 126.052 61.855 126.935 62.5362C127.818 63.1921 129.054 63.5201 130.644 63.5201ZM170.259 45.3936C172.756 45.3936 174.712 46.1126 176.124 47.5506C177.562 48.9886 178.281 51.1078 178.281 53.9082V65.4501H175.595V54.173C175.595 52.1043 175.09 50.5276 174.081 49.4428C173.097 48.3579 171.697 47.8155 169.88 47.8155C167.812 47.8155 166.184 48.4588 164.999 49.7455C163.813 51.0069 163.22 52.7603 163.22 55.0056V65.4501H160.533V54.173C160.533 52.1043 160.029 50.5276 159.02 49.4428C158.036 48.3579 156.623 47.8155 154.781 47.8155C152.738 47.8155 151.111 48.4588 149.9 49.7455C148.714 51.0069 148.121 52.7603 148.121 55.0056V65.4501H145.434V45.545H148.007V49.1779C148.714 47.9669 149.698 47.0335 150.959 46.3775C152.221 45.7216 153.671 45.3936 155.311 45.3936C156.976 45.3936 158.414 45.7468 159.625 46.4532C160.861 47.1596 161.782 48.2066 162.388 49.5941C163.119 48.2823 164.166 47.2605 165.528 46.5289C166.916 45.772 168.493 45.3936 170.259 45.3936ZM184.054 45.545H186.741V65.4501H184.054V45.545ZM185.416 41.1931C184.861 41.1931 184.395 41.0039 184.016 40.6255C183.638 40.2471 183.449 39.7929 183.449 39.2632C183.449 38.7586 183.638 38.3171 184.016 37.9387C184.395 37.5602 184.861 37.371 185.416 37.371C185.971 37.371 186.438 37.5602 186.817 37.9387C187.195 38.2919 187.384 38.7207 187.384 39.2253C187.384 39.7803 187.195 40.2471 186.817 40.6255C186.438 41.0039 185.971 41.1931 185.416 41.1931ZM202.845 45.3936C205.342 45.3936 207.323 46.1252 208.786 47.5885C210.275 49.0265 211.019 51.133 211.019 53.9082V65.4501H208.332V54.173C208.332 52.1043 207.815 50.5276 206.78 49.4428C205.746 48.3579 204.27 47.8155 202.353 47.8155C200.209 47.8155 198.506 48.4588 197.244 49.7455C196.008 51.0069 195.39 52.7603 195.39 55.0056V65.4501H192.703V45.545H195.276V49.2157C196.008 48.0047 197.017 47.0713 198.304 46.4154C199.616 45.7342 201.129 45.3936 202.845 45.3936ZM235.303 45.545V63.0282C235.303 66.4087 234.47 68.9063 232.805 70.521C231.165 72.1608 228.68 72.9807 225.35 72.9807C223.508 72.9807 221.755 72.7032 220.09 72.1482C218.45 71.6184 217.113 70.8741 216.079 69.9155L217.441 67.872C218.4 68.7297 219.56 69.3983 220.923 69.8776C222.31 70.357 223.761 70.5966 225.274 70.5966C227.797 70.5966 229.652 70.0038 230.837 68.818C232.023 67.6575 232.616 65.8411 232.616 63.3687V60.8333C231.783 62.0947 230.686 63.0534 229.324 63.7093C227.987 64.3653 226.498 64.6932 224.858 64.6932C222.991 64.6932 221.288 64.2896 219.749 63.4823C218.236 62.6497 217.037 61.5019 216.154 60.0386C215.297 58.5501 214.868 56.8725 214.868 55.0056C214.868 53.1387 215.297 51.4736 216.154 50.0104C217.037 48.5471 218.236 47.4119 219.749 46.6046C221.263 45.7973 222.966 45.3936 224.858 45.3936C226.548 45.3936 228.075 45.7342 229.437 46.4154C230.799 47.0965 231.897 48.0804 232.729 49.3671V45.545H235.303ZM225.123 62.3092C226.561 62.3092 227.86 62.0064 229.021 61.4009C230.181 60.7702 231.077 59.8999 231.708 58.7898C232.364 57.6798 232.692 56.4184 232.692 55.0056C232.692 53.5928 232.364 52.344 231.708 51.2592C231.077 50.1491 230.181 49.2914 229.021 48.6859C227.886 48.0552 226.586 47.7398 225.123 47.7398C223.685 47.7398 222.386 48.0426 221.225 48.6481C220.09 49.2535 219.194 50.1113 218.539 51.2213C217.908 52.3314 217.592 53.5928 217.592 55.0056C217.592 56.4184 217.908 57.6798 218.539 58.7898C219.194 59.8999 220.09 60.7702 221.225 61.4009C222.386 62.0064 223.685 62.3092 225.123 62.3092Z" fill="white"/>
<path d="M22.3885 39.811C14.8297 34.5977 9.87742 27.8203 8.83483 18.6969C8.83483 18.6969 8.83483 18.6969 8.83483 18.9576V19.2182C10.1381 23.1282 12.2233 26.5169 15.6117 29.1236C17.6969 30.9483 20.0427 31.7303 22.6492 31.7303C23.1705 31.7303 23.6918 31.7303 24.2131 31.7303C24.995 31.7303 25.777 31.991 26.2983 32.773C27.3408 33.8157 28.6441 34.5977 29.9473 35.3797C31.2506 36.1617 32.5538 36.4224 33.8571 36.1617C34.639 36.1617 35.1603 35.901 35.4209 35.119C35.4209 35.119 35.4209 35.119 35.6816 34.8583C36.9848 34.337 37.5061 33.8157 37.2455 32.5123C36.9848 31.4696 36.7242 30.427 36.2029 29.3843C35.6816 28.6023 35.4209 27.5596 35.4209 26.7776C35.4209 26.2563 35.4209 25.7349 35.6816 25.4743C35.9422 24.1709 35.9422 22.8676 36.2029 21.8249C36.2029 21.0429 36.2029 20.5216 35.9422 19.7396C35.1603 19.2182 34.8996 18.6969 34.639 18.1755C34.3783 17.6542 34.3784 17.1329 34.3784 16.6115C34.639 15.5689 34.639 14.2655 34.3784 13.2228C34.1177 11.9195 33.0751 11.3982 31.7719 11.3982C30.9899 11.3982 29.9473 11.3982 29.1654 11.6588C28.3834 11.6588 27.8621 11.6588 27.3408 11.1375C26.2983 10.0948 25.5163 9.05214 24.7344 7.7488C22.9098 4.3601 25.2557 1.75342 27.6015 0.710742C29.1654 0.450073 30.7293 0.450073 32.5538 0.450073C35.6816 0.710742 38.5487 1.75342 41.4158 2.79609C43.7617 3.5781 46.1075 4.3601 48.4533 4.88144C49.7566 5.14211 50.7992 5.14211 52.1024 5.40278C56.7941 6.18478 61.4858 6.96679 65.6561 8.79147C71.651 11.3982 76.0821 15.8295 78.9492 21.5642C80.7737 25.2136 82.077 28.863 82.5983 33.0337C83.3802 36.9437 83.6409 41.1144 83.3802 45.0244C83.3802 47.3704 83.1196 49.4558 82.8589 51.8018C82.5983 55.4512 81.8163 59.1005 80.7737 62.4892C80.7737 62.7499 80.7737 62.7499 80.5131 62.7499C75.5608 62.7499 70.6084 62.7499 65.9168 62.7499H65.6561C65.9168 61.7072 66.1774 60.9252 66.6987 60.1432C67.4807 59.1005 68.7839 58.3185 69.8265 57.5365C70.3478 57.2758 71.1297 56.7545 71.9117 56.4938C71.9117 56.4938 71.9117 56.4938 71.9117 56.2332C70.3478 53.1051 68.5233 50.4985 65.9168 48.4131C64.3529 47.1098 62.5283 46.5884 60.7038 45.8064C58.358 45.0244 55.7515 44.5031 53.145 43.9817C49.2353 43.4604 45.0649 43.1997 40.8946 43.1997C40.8946 43.1997 40.8946 43.1997 40.6339 43.1997C40.6339 42.9391 40.8946 42.9391 40.8946 42.9391C43.501 40.3324 45.8469 37.2044 47.4108 34.0763C48.1927 32.773 48.714 31.4696 48.9746 30.1663C49.4959 28.3416 49.2353 26.7776 48.9746 24.9529C48.714 23.6496 48.1927 22.3462 47.4108 21.3036C47.4108 21.3036 47.4108 21.0429 47.1501 21.0429C47.4108 22.0856 47.4108 23.3889 47.6714 24.4316C47.6714 27.2989 46.8895 29.9056 45.5862 32.2517C42.9797 36.4224 39.852 40.593 36.7242 44.5031C31.7719 50.7591 26.8196 56.7545 21.6066 62.4892C21.6066 62.4892 21.3459 62.7499 21.0853 62.7499C15.6117 62.7499 10.1381 62.7499 4.66446 62.7499C4.66446 62.7499 4.66446 62.7499 4.40381 62.7499C4.40381 61.9679 4.66446 60.9252 4.92511 60.1432C5.4464 59.3612 5.9677 58.8399 6.74964 58.3185C8.05288 57.5365 9.35612 57.0152 10.92 57.0152C11.1807 57.0152 11.4413 57.0152 11.702 57.0152C11.9626 57.0152 11.9626 56.7545 11.9626 56.7545C13.2658 54.4085 14.5691 52.0625 15.8723 49.7165C17.6969 46.5884 19.5214 43.1997 21.3459 40.0717C22.1279 40.0717 22.3885 40.0717 22.3885 39.811Z" fill="white"/>
<path d="M8.31298 22.6077C8.57363 23.6503 8.83428 24.4323 9.09493 25.2144C10.1375 28.8637 12.2227 31.9917 14.8292 34.8591C15.3505 35.3804 15.6111 35.9018 16.1324 36.1624C16.3931 36.4231 16.3931 36.4231 16.1324 36.6838C14.5685 39.0298 12.744 41.3758 10.6588 43.4612C9.87687 44.2432 9.61623 45.0252 9.61623 45.8072C9.61623 47.1105 9.87687 48.4139 10.1375 49.7172C10.1375 50.4992 10.3982 51.5419 10.3982 52.3239C10.3982 53.1059 10.1375 53.6272 9.35558 54.1486C7.79169 54.9306 6.2278 54.9306 4.92456 54.1486C2.57873 52.8452 1.27548 51.0206 0.493539 48.6745C-0.288405 46.0678 -0.0277569 43.4612 0.493539 40.8545C1.01484 38.2478 1.79678 35.6411 2.83937 33.2951C3.36067 32.2524 4.14261 31.2097 4.66391 29.9064C5.44586 28.603 5.96715 27.2997 6.74909 26.257C7.00974 24.9537 7.53104 23.911 8.31298 22.6077Z" fill="white"/>
<path d="M39.329 63.271C39.5896 61.1857 40.6322 59.6216 42.4568 58.8396C43.2387 58.579 44.2813 58.3183 45.0632 58.0576C45.0632 58.0576 45.3239 58.0576 45.3239 57.797C46.1058 55.4509 46.8878 53.1049 47.1484 50.7589C47.1484 49.7162 47.1484 48.4129 47.1484 47.3702C47.1484 47.1095 47.1484 47.1095 47.1484 46.8489C51.8401 46.8489 56.5317 47.1095 60.9628 49.4556C60.4415 50.7589 60.1808 51.8016 59.6595 53.1049C58.3563 55.9723 56.5317 58.579 54.7072 61.1857C54.1859 61.9677 53.6646 62.489 53.1433 63.271L52.8827 63.5317C48.191 63.271 43.76 63.271 39.329 63.271Z" fill="white"/>
<path d="M23.6925 14.0048C23.1712 14.0048 22.6499 14.2655 22.1286 14.2655C20.304 14.7868 19.0008 15.8295 18.4795 17.3935C18.2188 17.9148 17.9582 18.6968 17.9582 19.2182C17.4369 17.9148 16.9156 16.6115 16.6549 15.3082C16.3943 14.0048 16.9156 12.7015 18.2188 12.4408C18.7401 12.4408 19.2614 12.4408 19.7827 12.4408C20.304 12.4408 21.086 12.9621 21.6073 12.9621C22.1286 13.4835 22.9105 13.7441 23.6925 14.0048Z" fill="white"/>
<path d="M28.9066 25.9949C28.3853 25.7342 28.1246 25.2129 27.864 24.9522C27.6033 24.6915 27.3427 24.6915 27.082 24.6915C26.8214 24.6915 26.3001 24.4309 26.0395 24.4309C25.2575 24.1702 24.7362 22.8668 25.2575 22.3455C25.2575 22.0848 25.7788 22.0848 25.7788 22.0848C26.8214 22.3455 27.6033 22.8668 28.1246 23.9095C28.9066 24.4309 28.9066 24.9522 28.9066 25.9949Z" fill="white"/>
</svg>
