<svg width="30" height="30" viewBox="0 0 30 30" fill="none" xmlns="http://www.w3.org/2000/svg">
<path d="M8.67499 6.24979C8.67466 6.91283 8.41095 7.54858 7.94187 8.01719C7.4728 8.48579 6.83678 8.74887 6.17374 8.74854C5.5107 8.7482 4.87494 8.48449 4.40634 8.01542C3.93773 7.54634 3.67466 6.91033 3.67499 6.24729C3.67532 5.58424 3.93903 4.94849 4.4081 4.47988C4.87718 4.01128 5.5132 3.7482 6.17624 3.74854C6.83928 3.74887 7.47503 4.01258 7.94364 4.48165C8.41225 4.95073 8.67532 5.58674 8.67499 6.24979ZM8.74999 10.5998H3.74999V26.2498H8.74999V10.5998ZM16.65 10.5998H11.675V26.2498H16.6V18.0373C16.6 13.4623 22.5625 13.0373 22.5625 18.0373V26.2498H27.5V16.3373C27.5 8.62479 18.675 8.91229 16.6 12.6998L16.65 10.5998Z" fill="white"/>
</svg>
