<svg width="914" height="806" viewBox="0 0 914 806" fill="none" xmlns="http://www.w3.org/2000/svg">
<path d="M329.366 197.876L325.742 195.77C324.483 195.039 323.52 194.498 322.855 194.241L330.789 195.428L331.738 193.795L326.772 187.468C327.435 187.983 328.03 188.329 330.064 189.51L333.177 191.319L334.173 189.604L324.061 183.727L323.048 185.47L329.202 193.414L319.254 192L318.257 193.716L328.369 199.592L329.366 197.876ZM336.691 185.685C337.31 184.62 337.364 183.412 336.827 182.711L337.91 183.174L338.77 181.693L334.619 179.282C332.724 178.181 331.069 178.736 330 180.576C328.923 182.43 329.184 184.21 330.664 185.07L331.5 183.631C330.781 183.213 330.687 182.419 331.266 181.423C331.764 180.565 332.459 180.229 333.386 180.767L333.538 180.856L332.501 182.992C331.685 184.683 331.943 186.054 333.202 186.785C334.488 187.533 335.847 187.138 336.691 185.685ZM335.739 184.392C335.297 185.153 334.752 185.391 334.129 185.03C333.576 184.708 333.463 184.106 333.977 182.998L334.695 181.509L335.054 181.718C336.106 182.329 336.342 183.355 335.739 184.392ZM335.363 171.76C335.133 171.996 334.969 172.215 334.832 172.45C334.302 173.363 334.381 174.279 334.89 174.963L333.837 174.481L332.913 176.072L339.733 180.035L340.714 178.348L337.394 176.418C336.066 175.647 335.857 174.508 336.565 173.291L336.927 172.668L335.363 171.76ZM343.878 172.903L342.038 171.834L341.579 170.235L345.493 170.122L346.619 168.185L341.017 168.335L339.817 164.159L338.587 166.276L339.907 170.596L333.585 166.922L332.612 168.596L342.905 174.577L343.878 172.903ZM348.99 164.518C350.027 162.734 349.851 160.966 348.526 159.808L347.618 161.371C348.155 161.942 348.161 162.76 347.623 163.687C346.972 164.807 345.993 165.09 344.717 164.515L347.694 159.361L347.182 159.064C345.052 157.826 342.926 158.33 341.737 160.378C340.571 162.384 341.239 164.641 343.384 165.887C345.5 167.117 347.808 166.552 348.99 164.518ZM343.128 161.168C343.715 160.158 344.715 159.869 345.656 160.416L343.662 163.847C342.735 163.086 342.549 162.164 343.128 161.168ZM352.82 157.514L347.397 154.363L348.168 153.035L346.757 152.215L345.986 153.543L343.855 152.305L342.874 153.993L345.005 155.231L344.241 156.545L345.652 157.365L346.416 156.051L351.839 159.202L352.82 157.514ZM346.488 149.526C346.809 148.973 346.618 148.251 346.051 147.921C345.484 147.592 344.776 147.791 344.454 148.344C344.117 148.925 344.294 149.639 344.861 149.969C345.428 150.298 346.15 150.107 346.488 149.526ZM354.201 155.137L355.182 153.449L348.348 149.478L347.367 151.166L354.201 155.137ZM357.176 150.018L353.496 147.879C352.389 147.236 352.039 146.182 352.642 145.144C353.149 144.273 354.032 144.027 355.18 144.694L358.984 146.905L359.965 145.217L355.759 142.773C353.989 141.744 352.409 142.011 351.412 143.726C350.874 144.653 350.793 145.716 351.235 146.547L350.269 146.171L349.361 147.734L356.195 151.705L357.176 150.018ZM357.134 141.872C359.113 143.022 361.305 142.593 362.43 140.656C363.001 139.674 363.09 138.597 362.703 137.798L363.837 138.458C364.972 139.117 365.271 140.29 364.596 141.452C363.993 142.489 363.073 142.862 362.123 142.458L361.143 144.146C363.089 144.999 364.99 144.309 366.131 142.344C367.417 140.131 366.788 137.933 364.506 136.607L358.017 132.837L357.109 134.4L357.994 135.043C357.027 135.019 356.132 135.572 355.537 136.596C354.404 138.546 355.142 140.715 357.134 141.872ZM358.082 140.147C356.961 139.495 356.535 138.286 357.186 137.165C357.87 135.989 359.082 135.75 360.244 136.425C361.434 137.116 361.832 138.31 361.157 139.472C360.514 140.579 359.23 140.814 358.082 140.147ZM368.476 118.914C365.391 117.121 362.073 117.895 360.393 120.787C358.713 123.678 359.706 126.938 362.777 128.722C365.862 130.515 369.164 129.769 370.844 126.878C372.532 123.972 371.547 120.699 368.476 118.914ZM367.391 120.782C369.521 122.02 370.227 124.021 369.15 125.875C368.073 127.729 366.012 128.123 363.854 126.869C361.696 125.615 361.018 123.629 362.095 121.775C363.172 119.921 365.233 119.528 367.391 120.782ZM377.52 122.298L378.501 120.61L374.42 118.239C375.361 118.212 376.277 117.56 376.871 116.536C378.053 114.502 377.179 112.44 375.049 111.202C372.904 109.956 370.767 110.417 369.65 112.34C369.047 113.377 368.981 114.542 369.529 115.415L368.427 114.923L367.518 116.486L377.52 122.298ZM371.924 116.77C370.693 116.054 370.277 114.795 370.953 113.633C371.644 112.443 372.925 112.244 374.143 112.952C375.36 113.659 375.808 114.863 375.117 116.053C374.441 117.215 373.155 117.485 371.924 116.77ZM381.286 108.939C382.323 107.154 382.147 105.387 380.822 104.228L379.913 105.791C380.451 106.363 380.457 107.181 379.918 108.107C379.267 109.228 378.289 109.511 377.013 108.936L379.989 103.782L379.478 103.484C377.347 102.246 375.222 102.751 374.032 104.798C372.867 106.804 373.535 109.062 375.679 110.307C377.796 111.537 380.104 110.973 381.286 108.939ZM375.424 105.588C376.011 104.578 377.011 104.29 377.952 104.836L375.958 108.267C375.031 107.506 374.845 106.584 375.424 105.588ZM379.434 95.9155C379.204 96.152 379.04 96.3711 378.903 96.6063C378.373 97.5194 378.452 98.4348 378.961 99.1192L377.908 98.6373L376.984 100.228L383.804 104.191L384.785 102.503L381.465 100.574C380.137 99.8025 379.928 98.6638 380.636 97.4464L380.998 96.8239L379.434 95.9155ZM388.164 97.1014C388.783 96.0362 388.838 94.8279 388.301 94.1274L389.383 94.5897L390.243 93.1095L386.093 90.6979C384.198 89.5966 382.543 90.1523 381.473 91.9922C380.396 93.8459 380.657 95.626 382.138 96.4862L382.974 95.0474C382.254 94.6294 382.161 93.8349 382.74 92.8389C383.238 91.9811 383.933 91.6448 384.86 92.1834L385.012 92.2718L383.974 94.4077C383.158 96.0986 383.416 97.4699 384.675 98.2014C385.962 98.949 387.32 98.554 388.164 97.1014ZM387.213 95.8085C386.771 96.5693 386.226 96.8075 385.603 96.4458C385.05 96.1242 384.937 95.5221 385.451 94.4144L386.168 92.9252L386.528 93.1342C387.579 93.7451 387.816 94.7709 387.213 95.8085ZM392.502 89.2219L387.079 86.0708L387.851 84.7427L386.44 83.9228L385.668 85.2509L383.538 84.0129L382.557 85.7007L384.688 86.9386L383.924 88.2528L385.335 89.0728L386.099 87.7585L391.522 90.9097L392.502 89.2219ZM386.17 81.2339C386.492 80.6805 386.301 79.9587 385.734 79.6291C385.166 79.2995 384.458 79.4988 384.137 80.0522C383.799 80.6332 383.977 81.347 384.544 81.6766C385.111 82.0061 385.833 81.8149 386.17 81.2339ZM393.884 86.8446L394.864 85.1569L388.03 81.1858L387.05 82.8736L393.884 86.8446ZM392.214 81.8207C394.344 83.0587 396.703 82.3752 397.933 80.2586C399.163 78.142 398.588 75.7543 396.458 74.5164C394.328 73.2784 391.969 73.9619 390.739 76.0785C389.509 78.1951 390.083 80.5828 392.214 81.8207ZM393.194 80.133C391.949 79.4095 391.572 78.1168 392.247 76.9547C392.922 75.7927 394.232 75.4806 395.477 76.2041C396.722 76.9276 397.1 78.2203 396.425 79.3824C395.75 80.5444 394.439 80.8565 393.194 80.133ZM401.647 73.4844L397.967 71.3461C396.86 70.703 396.511 69.6487 397.114 68.6111C397.62 67.7396 398.503 67.4939 399.651 68.1611L403.456 70.3717L404.436 68.684L400.231 66.2402C398.46 65.2113 396.88 65.4777 395.884 67.1931C395.345 68.12 395.264 69.1832 395.706 70.014L394.741 69.6378L393.832 71.2011L400.666 75.1721L401.647 73.4844ZM402.972 66.4267C404.314 67.2064 405.854 66.6579 406.843 64.9563C407.824 63.2686 407.649 61.5943 406.266 60.7904C405.214 60.1795 404.351 60.4551 403.421 61.4505L402.415 62.513C401.939 63.0136 401.513 63.1733 401.126 62.9482C400.614 62.6508 400.535 62.0866 400.921 61.4225C401.298 60.7723 401.897 60.602 402.486 60.9258L403.419 59.321C402.082 58.5632 400.594 59.0863 399.702 60.6218C398.786 62.1989 398.929 63.7996 400.271 64.5793C401.364 65.2143 402.29 64.9571 403.282 63.8866L404.288 62.8242C404.78 62.2959 405.134 62.2608 405.48 62.4617C405.978 62.7511 406.047 63.3649 405.589 64.1534C405.138 64.9281 404.508 65.1538 403.905 64.8219L402.972 66.4267Z" fill="white"/>
<path d="M453.419 115.154C455.575 115.154 457.325 113.88 457.787 111.99H456.709C456.275 113.334 455.015 114.188 453.433 114.188C451.235 114.188 449.765 112.508 449.765 109.988C449.765 107.454 451.235 105.774 453.433 105.774C455.001 105.774 456.233 106.656 456.653 108.098H457.731C457.325 106.11 455.631 104.808 453.475 104.808C450.647 104.808 448.715 106.908 448.715 109.988C448.715 113.068 450.619 115.154 453.419 115.154ZM458.845 111.612C458.845 113.67 460.301 115.168 462.289 115.168C464.277 115.168 465.733 113.67 465.733 111.612C465.733 109.54 464.277 108.042 462.289 108.042C460.301 108.042 458.845 109.54 458.845 111.612ZM459.825 111.598C459.825 110.03 460.833 108.91 462.289 108.91C463.731 108.91 464.753 110.03 464.753 111.598C464.753 113.194 463.731 114.3 462.289 114.3C460.833 114.3 459.825 113.194 459.825 111.598ZM468.244 115V111.458C468.244 109.932 469.028 108.924 470.414 108.924C471.534 108.924 472.248 109.484 472.248 111.066V115H473.214V110.856C473.214 109.148 472.444 108.042 470.582 108.042C469.602 108.042 468.706 108.532 468.258 109.4L468.118 108.224H467.278V115H468.244ZM476.693 115V109.036H478.051V108.224H476.693V106.082H475.741V108.224H474.383V109.036H475.741V115H476.693ZM482.851 108.14C482.613 108.084 482.431 108.07 482.221 108.07C481.269 108.07 480.555 108.546 480.289 109.274L480.219 108.224H479.309V115H480.275V111.136C480.275 109.848 481.073 109.008 482.319 109.008H482.851V108.14ZM483.399 111.612C483.399 113.67 484.855 115.168 486.843 115.168C488.831 115.168 490.287 113.67 490.287 111.612C490.287 109.54 488.831 108.042 486.843 108.042C484.855 108.042 483.399 109.54 483.399 111.612ZM484.379 111.598C484.379 110.03 485.387 108.91 486.843 108.91C488.285 108.91 489.307 110.03 489.307 111.598C489.307 113.194 488.285 114.3 486.843 114.3C485.387 114.3 484.379 113.194 484.379 111.598ZM492.84 115V104.794H491.874V115H492.84ZM455.251 135.386H455.993V134.154C457.827 134.014 458.989 132.936 458.989 131.326C458.989 129.982 458.191 129.1 456.609 128.708L455.993 128.554V124.704C457.071 124.816 457.715 125.432 457.813 126.482H458.821C458.681 124.9 457.617 123.92 455.993 123.808V122.59H455.251V123.808C453.473 123.948 452.311 125.026 452.311 126.58C452.311 127.952 453.137 128.834 454.705 129.212L455.251 129.352V133.244C454.047 133.146 453.277 132.488 453.221 131.508H452.185C452.297 133.048 453.487 134.056 455.251 134.154V135.386ZM454.887 128.288C453.823 128.022 453.305 127.448 453.305 126.566C453.305 125.544 454.061 124.844 455.251 124.718V128.372L454.887 128.288ZM456.399 129.632C457.477 129.884 457.995 130.472 457.995 131.382C457.995 132.418 457.225 133.118 455.993 133.244V129.534L456.399 129.632ZM468.507 130.318C470.425 130.318 471.657 128.946 471.657 127.126C471.657 125.236 470.439 123.976 468.507 123.976H464.685V134H465.693V130.318H468.507ZM468.367 124.886C469.753 124.886 470.607 125.726 470.607 127.112C470.607 128.484 469.767 129.408 468.311 129.408H465.693V124.886H468.367ZM474.082 134V123.794H473.116V134H474.082ZM478.083 134.168C479.231 134.168 480.155 133.664 480.575 132.81L480.701 134H481.513V129.618C481.513 127.826 480.365 127.042 478.797 127.042C477.131 127.042 476.011 127.924 476.011 129.296H476.893C476.893 128.386 477.593 127.854 478.769 127.854C479.763 127.854 480.561 128.274 480.561 129.604V129.828L478.321 130.01C476.739 130.136 475.787 130.92 475.787 132.166C475.787 133.356 476.641 134.168 478.083 134.168ZM478.307 133.384C477.383 133.384 476.767 132.964 476.767 132.138C476.767 131.382 477.285 130.822 478.559 130.71L480.561 130.556V130.92C480.561 132.39 479.735 133.384 478.307 133.384ZM484.417 134V130.458C484.417 128.932 485.201 127.924 486.587 127.924C487.707 127.924 488.421 128.484 488.421 130.066V134H489.387V129.856C489.387 128.148 488.617 127.042 486.755 127.042C485.775 127.042 484.879 127.532 484.431 128.4L484.291 127.224H483.451V134H484.417ZM437.341 153L438.321 150.34H442.941L443.921 153H444.971L441.247 142.976H440.001L436.319 153H437.341ZM440.491 144.39C440.547 144.25 440.603 144.068 440.617 143.984C440.631 144.082 440.701 144.25 440.743 144.39L442.619 149.458H438.629L440.491 144.39ZM445.446 149.626C445.446 151.754 446.748 153.168 448.666 153.168C450.206 153.168 451.41 152.258 451.732 150.872H450.752C450.486 151.74 449.674 152.3 448.666 152.3C447.294 152.3 446.398 151.222 446.398 149.612C446.398 147.946 447.364 146.896 448.736 146.896C449.674 146.896 450.486 147.414 450.738 148.352H451.704C451.438 146.952 450.29 146.042 448.722 146.042C446.748 146.042 445.446 147.498 445.446 149.626ZM454.75 153V147.036H456.108V146.224H454.75V144.082H453.798V146.224H452.44V147.036H453.798V153H454.75ZM457.841 144.362C458.233 144.362 458.569 144.04 458.569 143.648C458.569 143.256 458.233 142.92 457.841 142.92C457.449 142.92 457.127 143.256 457.127 143.648C457.127 144.04 457.449 144.362 457.841 144.362ZM457.365 153H458.331V146.224H457.365V153ZM459.87 149.612C459.87 151.67 461.326 153.168 463.314 153.168C465.302 153.168 466.758 151.67 466.758 149.612C466.758 147.54 465.302 146.042 463.314 146.042C461.326 146.042 459.87 147.54 459.87 149.612ZM460.85 149.598C460.85 148.03 461.858 146.91 463.314 146.91C464.756 146.91 465.778 148.03 465.778 149.598C465.778 151.194 464.756 152.3 463.314 152.3C461.858 152.3 460.85 151.194 460.85 149.598ZM469.269 153V149.458C469.269 147.932 470.053 146.924 471.439 146.924C472.559 146.924 473.273 147.484 473.273 149.066V153H474.239V148.856C474.239 147.148 473.469 146.042 471.607 146.042C470.627 146.042 469.731 146.532 469.283 147.4L469.143 146.224H468.303V153H469.269ZM484.079 149.318C485.997 149.318 487.229 147.946 487.229 146.126C487.229 144.236 486.011 142.976 484.079 142.976H480.257V153H481.265V149.318H484.079ZM483.939 143.886C485.325 143.886 486.179 144.726 486.179 146.112C486.179 147.484 485.339 148.408 483.883 148.408H481.265V143.886H483.939ZM489.655 153V142.794H488.689V153H489.655ZM493.655 153.168C494.803 153.168 495.727 152.664 496.147 151.81L496.273 153H497.085V148.618C497.085 146.826 495.937 146.042 494.369 146.042C492.703 146.042 491.583 146.924 491.583 148.296H492.465C492.465 147.386 493.165 146.854 494.341 146.854C495.335 146.854 496.133 147.274 496.133 148.604V148.828L493.893 149.01C492.311 149.136 491.359 149.92 491.359 151.166C491.359 152.356 492.213 153.168 493.655 153.168ZM493.879 152.384C492.955 152.384 492.339 151.964 492.339 151.138C492.339 150.382 492.857 149.822 494.131 149.71L496.133 149.556V149.92C496.133 151.39 495.307 152.384 493.879 152.384ZM499.99 153V149.458C499.99 147.932 500.774 146.924 502.16 146.924C503.28 146.924 503.994 147.484 503.994 149.066V153H504.96V148.856C504.96 147.148 504.19 146.042 502.328 146.042C501.348 146.042 500.452 146.532 500.004 147.4L499.864 146.224H499.024V153H499.99Z" fill="white"/>
<path d="M427.436 337.154C429.592 337.154 431.342 335.88 431.804 333.99H430.726C430.292 335.334 429.032 336.188 427.45 336.188C425.252 336.188 423.782 334.508 423.782 331.988C423.782 329.454 425.252 327.774 427.45 327.774C429.018 327.774 430.25 328.656 430.67 330.098H431.748C431.342 328.11 429.648 326.808 427.492 326.808C424.664 326.808 422.732 328.908 422.732 331.988C422.732 335.068 424.636 337.154 427.436 337.154ZM432.861 333.612C432.861 335.67 434.317 337.168 436.305 337.168C438.293 337.168 439.749 335.67 439.749 333.612C439.749 331.54 438.293 330.042 436.305 330.042C434.317 330.042 432.861 331.54 432.861 333.612ZM433.841 333.598C433.841 332.03 434.849 330.91 436.305 330.91C437.747 330.91 438.769 332.03 438.769 333.598C438.769 335.194 437.747 336.3 436.305 336.3C434.849 336.3 433.841 335.194 433.841 333.598ZM442.26 337V332.8C442.26 331.764 442.946 330.924 444.08 330.924C445.102 330.924 445.76 331.596 445.76 332.744V337H446.712V332.814C446.712 331.764 447.384 330.91 448.518 330.91C449.554 330.91 450.198 331.596 450.198 332.758V337H451.136V332.562C451.136 330.994 450.17 330.042 448.7 330.042C447.608 330.042 446.782 330.602 446.474 331.484C446.152 330.602 445.354 330.042 444.29 330.042C443.338 330.042 442.582 330.476 442.246 331.19L442.134 330.224H441.294V337H442.26ZM454.045 337V332.8C454.045 331.764 454.731 330.924 455.865 330.924C456.887 330.924 457.545 331.596 457.545 332.744V337H458.497V332.814C458.497 331.764 459.169 330.91 460.303 330.91C461.339 330.91 461.983 331.596 461.983 332.758V337H462.921V332.562C462.921 330.994 461.955 330.042 460.485 330.042C459.393 330.042 458.567 330.602 458.259 331.484C457.937 330.602 457.139 330.042 456.075 330.042C455.123 330.042 454.367 330.476 454.031 331.19L453.919 330.224H453.079V337H454.045ZM469.624 330.224V333.822C469.624 335.432 468.854 336.3 467.552 336.3C466.474 336.3 465.76 335.726 465.76 334.116V330.21H464.78V334.424C464.78 336.076 465.648 337.168 467.244 337.168C468.308 337.168 469.246 336.636 469.624 335.852L469.75 337H470.59V330.224H469.624ZM473.569 337V333.458C473.569 331.932 474.353 330.924 475.739 330.924C476.859 330.924 477.573 331.484 477.573 333.066V337H478.539V332.856C478.539 331.148 477.769 330.042 475.907 330.042C474.927 330.042 474.031 330.532 473.583 331.4L473.443 330.224H472.603V337H473.569ZM480.94 328.362C481.332 328.362 481.668 328.04 481.668 327.648C481.668 327.256 481.332 326.92 480.94 326.92C480.548 326.92 480.226 327.256 480.226 327.648C480.226 328.04 480.548 328.362 480.94 328.362ZM480.464 337H481.43V330.224H480.464V337ZM482.969 333.626C482.969 335.754 484.271 337.168 486.189 337.168C487.729 337.168 488.933 336.258 489.255 334.872H488.275C488.009 335.74 487.197 336.3 486.189 336.3C484.817 336.3 483.921 335.222 483.921 333.612C483.921 331.946 484.887 330.896 486.259 330.896C487.197 330.896 488.009 331.414 488.261 332.352H489.227C488.961 330.952 487.813 330.042 486.245 330.042C484.271 330.042 482.969 331.498 482.969 333.626ZM492.664 337.168C493.812 337.168 494.736 336.664 495.156 335.81L495.282 337H496.094V332.618C496.094 330.826 494.946 330.042 493.378 330.042C491.712 330.042 490.592 330.924 490.592 332.296H491.474C491.474 331.386 492.174 330.854 493.35 330.854C494.344 330.854 495.142 331.274 495.142 332.604V332.828L492.902 333.01C491.32 333.136 490.368 333.92 490.368 335.166C490.368 336.356 491.222 337.168 492.664 337.168ZM492.888 336.384C491.964 336.384 491.348 335.964 491.348 335.138C491.348 334.382 491.866 333.822 493.14 333.71L495.142 333.556V333.92C495.142 335.39 494.316 336.384 492.888 336.384ZM499.463 337V331.036H500.821V330.224H499.463V328.082H498.511V330.224H497.153V331.036H498.511V337H499.463ZM502.555 328.362C502.947 328.362 503.283 328.04 503.283 327.648C503.283 327.256 502.947 326.92 502.555 326.92C502.163 326.92 501.841 327.256 501.841 327.648C501.841 328.04 502.163 328.362 502.555 328.362ZM502.079 337H503.045V330.224H502.079V337ZM504.584 333.612C504.584 335.67 506.04 337.168 508.028 337.168C510.016 337.168 511.472 335.67 511.472 333.612C511.472 331.54 510.016 330.042 508.028 330.042C506.04 330.042 504.584 331.54 504.584 333.612ZM505.564 333.598C505.564 332.03 506.572 330.91 508.028 330.91C509.47 330.91 510.492 332.03 510.492 333.598C510.492 335.194 509.47 336.3 508.028 336.3C506.572 336.3 505.564 335.194 505.564 333.598ZM513.983 337V333.458C513.983 331.932 514.767 330.924 516.153 330.924C517.273 330.924 517.987 331.484 517.987 333.066V337H518.953V332.856C518.953 331.148 518.183 330.042 516.321 330.042C515.341 330.042 514.445 330.532 513.997 331.4L513.857 330.224H513.017V337H513.983Z" fill="white"/>
<path d="M447.083 427.58C447.083 428.952 447.909 429.848 449.477 430.226L451.171 430.646C452.249 430.898 452.753 431.486 452.753 432.382C452.753 433.53 451.815 434.244 450.345 434.244C448.973 434.244 448.049 433.558 447.993 432.508H446.957C447.083 434.146 448.399 435.168 450.345 435.168C452.417 435.168 453.761 434.062 453.761 432.326C453.761 430.968 452.949 430.072 451.381 429.694L449.659 429.274C448.609 429.008 448.091 428.448 448.091 427.566C448.091 426.432 449.015 425.704 450.429 425.704C451.689 425.704 452.459 426.348 452.571 427.482H453.593C453.439 425.802 452.249 424.794 450.443 424.794C448.427 424.794 447.083 425.9 447.083 427.58ZM456.917 435V429.036H458.275V428.224H456.917V426.082H455.965V428.224H454.607V429.036H455.965V435H456.917ZM463.075 428.14C462.837 428.084 462.655 428.07 462.445 428.07C461.493 428.07 460.779 428.546 460.513 429.274L460.443 428.224H459.533V435H460.499V431.136C460.499 429.848 461.297 429.008 462.543 429.008H463.075V428.14ZM466.032 435.168C467.18 435.168 468.104 434.664 468.524 433.81L468.65 435H469.462V430.618C469.462 428.826 468.314 428.042 466.746 428.042C465.08 428.042 463.96 428.924 463.96 430.296H464.842C464.842 429.386 465.542 428.854 466.718 428.854C467.712 428.854 468.51 429.274 468.51 430.604V430.828L466.27 431.01C464.688 431.136 463.736 431.92 463.736 433.166C463.736 434.356 464.59 435.168 466.032 435.168ZM466.256 434.384C465.332 434.384 464.716 433.964 464.716 433.138C464.716 432.382 465.234 431.822 466.508 431.71L468.51 431.556V431.92C468.51 433.39 467.684 434.384 466.256 434.384ZM472.832 435V429.036H474.19V428.224H472.832V426.082H471.88V428.224H470.522V429.036H471.88V435H472.832ZM478.221 435.168C479.817 435.168 480.867 434.398 481.231 432.97H480.307C480.055 433.866 479.341 434.342 478.235 434.342C476.779 434.342 475.911 433.39 475.841 431.738H481.231V431.262C481.231 429.344 479.985 428.042 478.151 428.042C476.219 428.042 474.903 429.498 474.903 431.612C474.903 433.74 476.233 435.168 478.221 435.168ZM478.151 428.868C479.425 428.868 480.265 429.736 480.265 431.038H475.869C476.037 429.708 476.877 428.868 478.151 428.868ZM482.314 431.416C482.314 433.264 483.49 434.79 485.422 434.79C486.584 434.79 487.522 434.23 487.984 433.278V434.888C487.984 436.302 487.06 437.24 485.674 437.24C484.456 437.24 483.616 436.596 483.406 435.504H482.44C482.706 437.142 483.924 438.122 485.66 438.122C487.648 438.122 488.936 436.806 488.936 434.79V428.224H488.096L487.998 429.582C487.564 428.588 486.668 428.042 485.492 428.042C483.504 428.042 482.314 429.568 482.314 431.416ZM483.28 431.402C483.28 430.03 484.12 428.896 485.576 428.896C487.06 428.896 487.9 429.96 487.9 431.402C487.9 432.858 487.032 433.922 485.562 433.922C484.134 433.922 483.28 432.788 483.28 431.402ZM490.265 437.954C490.573 438.024 490.881 438.052 491.287 438.052C492.253 438.052 492.911 437.618 493.303 436.554L496.411 428.224H495.417L493.275 434.132L491.091 428.224H490.069L492.813 435.406L492.519 436.204C492.183 437.114 491.595 437.156 491.007 437.156H490.265V437.954Z" fill="white"/>
<path d="M232.353 527H236.231C238.135 527 239.339 525.978 239.339 524.368C239.339 523.136 238.751 522.324 237.589 521.946C238.625 521.54 239.143 520.742 239.143 519.566C239.143 517.956 237.953 516.976 236.021 516.976H232.353V527ZM236.007 517.872C237.351 517.872 238.107 518.53 238.107 519.65C238.107 520.84 237.393 521.54 236.133 521.54H233.361V517.872H236.007ZM236.231 522.422C237.533 522.422 238.317 523.108 238.317 524.242C238.317 525.404 237.547 526.09 236.231 526.09H233.361V522.422H236.231ZM245.707 520.224V523.822C245.707 525.432 244.937 526.3 243.635 526.3C242.557 526.3 241.843 525.726 241.843 524.116V520.21H240.863V524.424C240.863 526.076 241.731 527.168 243.327 527.168C244.391 527.168 245.329 526.636 245.707 525.852L245.833 527H246.673V520.224H245.707ZM248 529.954C248.308 530.024 248.616 530.052 249.022 530.052C249.988 530.052 250.646 529.618 251.038 528.554L254.146 520.224H253.152L251.01 526.132L248.826 520.224H247.804L250.548 527.406L250.254 528.204C249.918 529.114 249.33 529.156 248.742 529.156H248V529.954ZM257.885 527.168C259.481 527.168 260.531 526.398 260.895 524.97H259.971C259.719 525.866 259.005 526.342 257.899 526.342C256.443 526.342 255.575 525.39 255.505 523.738H260.895V523.262C260.895 521.344 259.649 520.042 257.815 520.042C255.883 520.042 254.567 521.498 254.567 523.612C254.567 525.74 255.897 527.168 257.885 527.168ZM257.815 520.868C259.089 520.868 259.929 521.736 259.929 523.038H255.533C255.701 521.708 256.541 520.868 257.815 520.868ZM265.982 520.14C265.744 520.084 265.562 520.07 265.352 520.07C264.4 520.07 263.686 520.546 263.42 521.274L263.35 520.224H262.44V527H263.406V523.136C263.406 521.848 264.204 521.008 265.45 521.008H265.982V520.14ZM275.181 523.318C277.099 523.318 278.331 521.946 278.331 520.126C278.331 518.236 277.113 516.976 275.181 516.976H271.359V527H272.367V523.318H275.181ZM275.041 517.886C276.427 517.886 277.281 518.726 277.281 520.112C277.281 521.484 276.441 522.408 274.985 522.408H272.367V517.886H275.041ZM282.289 527.168C283.885 527.168 284.935 526.398 285.299 524.97H284.375C284.123 525.866 283.409 526.342 282.303 526.342C280.847 526.342 279.979 525.39 279.909 523.738H285.299V523.262C285.299 521.344 284.053 520.042 282.219 520.042C280.287 520.042 278.971 521.498 278.971 523.612C278.971 525.74 280.301 527.168 282.289 527.168ZM282.219 520.868C283.493 520.868 284.333 521.736 284.333 523.038H279.937C280.105 521.708 280.945 520.868 282.219 520.868ZM290.386 520.14C290.148 520.084 289.966 520.07 289.756 520.07C288.804 520.07 288.09 520.546 287.824 521.274L287.754 520.224H286.844V527H287.81V523.136C287.81 521.848 288.608 521.008 289.854 521.008H290.386V520.14ZM291.096 525.096C291.096 526.356 292.048 527.168 293.574 527.168C295.114 527.168 296.15 526.37 296.15 525.152C296.15 524.172 295.618 523.626 294.442 523.332L293.28 523.038C292.538 522.856 292.174 522.492 292.174 521.974C292.174 521.246 292.706 520.84 293.658 520.84C294.568 520.84 295.114 521.302 295.142 522.086H296.08C296.038 520.826 295.114 520.042 293.686 520.042C292.23 520.042 291.236 520.798 291.236 521.988C291.236 522.912 291.81 523.528 292.986 523.822L294.148 524.116C294.946 524.312 295.226 524.634 295.226 525.194C295.226 525.922 294.61 526.37 293.56 526.37C292.608 526.37 292.02 525.88 292.02 525.096H291.096ZM297.264 523.612C297.264 525.67 298.72 527.168 300.708 527.168C302.696 527.168 304.152 525.67 304.152 523.612C304.152 521.54 302.696 520.042 300.708 520.042C298.72 520.042 297.264 521.54 297.264 523.612ZM298.244 523.598C298.244 522.03 299.252 520.91 300.708 520.91C302.15 520.91 303.172 522.03 303.172 523.598C303.172 525.194 302.15 526.3 300.708 526.3C299.252 526.3 298.244 525.194 298.244 523.598ZM306.663 527V523.458C306.663 521.932 307.447 520.924 308.833 520.924C309.953 520.924 310.667 521.484 310.667 523.066V527H311.633V522.856C311.633 521.148 310.863 520.042 309.001 520.042C308.021 520.042 307.125 520.532 306.677 521.4L306.537 520.224H305.697V527H306.663ZM315.505 527.168C316.653 527.168 317.577 526.664 317.997 525.81L318.123 527H318.935V522.618C318.935 520.826 317.787 520.042 316.219 520.042C314.553 520.042 313.433 520.924 313.433 522.296H314.315C314.315 521.386 315.015 520.854 316.191 520.854C317.185 520.854 317.983 521.274 317.983 522.604V522.828L315.743 523.01C314.161 523.136 313.209 523.92 313.209 525.166C313.209 526.356 314.063 527.168 315.505 527.168ZM315.729 526.384C314.805 526.384 314.189 525.964 314.189 525.138C314.189 524.382 314.707 523.822 315.981 523.71L317.983 523.556V523.92C317.983 525.39 317.157 526.384 315.729 526.384Z" fill="white"/>
<path d="M621.394 523.318C623.312 523.318 624.544 521.946 624.544 520.126C624.544 518.236 623.326 516.976 621.394 516.976H617.572V527H618.58V523.318H621.394ZM621.254 517.886C622.64 517.886 623.494 518.726 623.494 520.112C623.494 521.484 622.654 522.408 621.198 522.408H618.58V517.886H621.254ZM625.184 523.612C625.184 525.67 626.64 527.168 628.628 527.168C630.616 527.168 632.072 525.67 632.072 523.612C632.072 521.54 630.616 520.042 628.628 520.042C626.64 520.042 625.184 521.54 625.184 523.612ZM626.164 523.598C626.164 522.03 627.172 520.91 628.628 520.91C630.07 520.91 631.092 522.03 631.092 523.598C631.092 525.194 630.07 526.3 628.628 526.3C627.172 526.3 626.164 525.194 626.164 523.598ZM633.043 525.096C633.043 526.356 633.995 527.168 635.521 527.168C637.061 527.168 638.097 526.37 638.097 525.152C638.097 524.172 637.565 523.626 636.389 523.332L635.227 523.038C634.485 522.856 634.121 522.492 634.121 521.974C634.121 521.246 634.653 520.84 635.605 520.84C636.515 520.84 637.061 521.302 637.089 522.086H638.027C637.985 520.826 637.061 520.042 635.633 520.042C634.177 520.042 633.183 520.798 633.183 521.988C633.183 522.912 633.757 523.528 634.933 523.822L636.095 524.116C636.893 524.312 637.173 524.634 637.173 525.194C637.173 525.922 636.557 526.37 635.507 526.37C634.555 526.37 633.967 525.88 633.967 525.096H633.043ZM640.164 518.362C640.556 518.362 640.892 518.04 640.892 517.648C640.892 517.256 640.556 516.92 640.164 516.92C639.772 516.92 639.45 517.256 639.45 517.648C639.45 518.04 639.772 518.362 640.164 518.362ZM639.688 527H640.654V520.224H639.688V527ZM644.222 527V521.036H645.58V520.224H644.222V518.082H643.27V520.224H641.912V521.036H643.27V527H644.222ZM647.314 518.362C647.706 518.362 648.042 518.04 648.042 517.648C648.042 517.256 647.706 516.92 647.314 516.92C646.922 516.92 646.6 517.256 646.6 517.648C646.6 518.04 646.922 518.362 647.314 518.362ZM646.838 527H647.804V520.224H646.838V527ZM649.343 523.612C649.343 525.67 650.799 527.168 652.787 527.168C654.775 527.168 656.231 525.67 656.231 523.612C656.231 521.54 654.775 520.042 652.787 520.042C650.799 520.042 649.343 521.54 649.343 523.612ZM650.323 523.598C650.323 522.03 651.331 520.91 652.787 520.91C654.229 520.91 655.251 522.03 655.251 523.598C655.251 525.194 654.229 526.3 652.787 526.3C651.331 526.3 650.323 525.194 650.323 523.598ZM658.742 527V523.458C658.742 521.932 659.526 520.924 660.912 520.924C662.032 520.924 662.746 521.484 662.746 523.066V527H663.712V522.856C663.712 521.148 662.942 520.042 661.08 520.042C660.1 520.042 659.204 520.532 658.756 521.4L658.616 520.224H657.776V527H658.742ZM666.113 518.362C666.505 518.362 666.841 518.04 666.841 517.648C666.841 517.256 666.505 516.92 666.113 516.92C665.721 516.92 665.399 517.256 665.399 517.648C665.399 518.04 665.721 518.362 666.113 518.362ZM665.637 527H666.603V520.224H665.637V527ZM669.583 527V523.458C669.583 521.932 670.367 520.924 671.753 520.924C672.873 520.924 673.587 521.484 673.587 523.066V527H674.553V522.856C674.553 521.148 673.783 520.042 671.921 520.042C670.941 520.042 670.045 520.532 669.597 521.4L669.457 520.224H668.617V527H669.583ZM676.017 523.416C676.017 525.264 677.193 526.79 679.125 526.79C680.287 526.79 681.225 526.23 681.687 525.278V526.888C681.687 528.302 680.763 529.24 679.377 529.24C678.159 529.24 677.319 528.596 677.109 527.504H676.143C676.409 529.142 677.627 530.122 679.363 530.122C681.351 530.122 682.639 528.806 682.639 526.79V520.224H681.799L681.701 521.582C681.267 520.588 680.371 520.042 679.195 520.042C677.207 520.042 676.017 521.568 676.017 523.416ZM676.983 523.402C676.983 522.03 677.823 520.896 679.279 520.896C680.763 520.896 681.603 521.96 681.603 523.402C681.603 524.858 680.735 525.922 679.265 525.922C677.837 525.922 676.983 524.788 676.983 523.402Z" fill="white"/>
<path d="M382.455 224C385.465 224 387.467 221.984 387.467 218.988C387.467 215.992 385.451 213.976 382.427 213.976H379.403V224H382.455ZM382.385 214.9C384.863 214.9 386.431 216.482 386.431 218.988C386.431 221.48 384.863 223.076 382.413 223.076H380.411V214.9H382.385ZM389.553 215.362C389.945 215.362 390.281 215.04 390.281 214.648C390.281 214.256 389.945 213.92 389.553 213.92C389.161 213.92 388.839 214.256 388.839 214.648C388.839 215.04 389.161 215.362 389.553 215.362ZM389.077 224H390.043V217.224H389.077V224ZM391.484 222.096C391.484 223.356 392.436 224.168 393.962 224.168C395.502 224.168 396.538 223.37 396.538 222.152C396.538 221.172 396.006 220.626 394.83 220.332L393.668 220.038C392.926 219.856 392.562 219.492 392.562 218.974C392.562 218.246 393.094 217.84 394.046 217.84C394.956 217.84 395.502 218.302 395.53 219.086H396.468C396.426 217.826 395.502 217.042 394.074 217.042C392.618 217.042 391.624 217.798 391.624 218.988C391.624 219.912 392.198 220.528 393.374 220.822L394.536 221.116C395.334 221.312 395.614 221.634 395.614 222.194C395.614 222.922 394.998 223.37 393.948 223.37C392.996 223.37 392.408 222.88 392.408 222.096H391.484ZM399.682 224V218.036H401.04V217.224H399.682V215.082H398.73V217.224H397.372V218.036H398.73V224H399.682ZM405.84 217.14C405.602 217.084 405.42 217.07 405.21 217.07C404.258 217.07 403.544 217.546 403.278 218.274L403.208 217.224H402.298V224H403.264V220.136C403.264 218.848 404.062 218.008 405.308 218.008H405.84V217.14ZM407.6 215.362C407.992 215.362 408.328 215.04 408.328 214.648C408.328 214.256 407.992 213.92 407.6 213.92C407.208 213.92 406.886 214.256 406.886 214.648C406.886 215.04 407.208 215.362 407.6 215.362ZM407.124 224H408.09V217.224H407.124V224ZM410.945 224L411.043 222.614C411.519 223.664 412.457 224.168 413.591 224.168C415.565 224.168 416.741 222.656 416.741 220.626C416.741 218.582 415.593 217.042 413.619 217.042C412.471 217.042 411.547 217.546 411.071 218.54V213.794H410.105V224H410.945ZM411.085 220.598C411.085 219.044 411.953 217.91 413.437 217.91C414.907 217.91 415.761 219.044 415.761 220.598C415.761 222.166 414.907 223.286 413.437 223.286C411.953 223.286 411.085 222.166 411.085 220.598ZM422.876 217.224V220.822C422.876 222.432 422.106 223.3 420.804 223.3C419.726 223.3 419.012 222.726 419.012 221.116V217.21H418.032V221.424C418.032 223.076 418.9 224.168 420.496 224.168C421.56 224.168 422.498 223.636 422.876 222.852L423.002 224H423.842V217.224H422.876ZM427.409 224V218.036H428.767V217.224H427.409V215.082H426.457V217.224H425.099V218.036H426.457V224H427.409ZM430.501 215.362C430.893 215.362 431.229 215.04 431.229 214.648C431.229 214.256 430.893 213.92 430.501 213.92C430.109 213.92 429.787 214.256 429.787 214.648C429.787 215.04 430.109 215.362 430.501 215.362ZM430.025 224H430.991V217.224H430.025V224ZM432.529 220.612C432.529 222.67 433.985 224.168 435.973 224.168C437.961 224.168 439.417 222.67 439.417 220.612C439.417 218.54 437.961 217.042 435.973 217.042C433.985 217.042 432.529 218.54 432.529 220.612ZM433.509 220.598C433.509 219.03 434.517 217.91 435.973 217.91C437.415 217.91 438.437 219.03 438.437 220.598C438.437 222.194 437.415 223.3 435.973 223.3C434.517 223.3 433.509 222.194 433.509 220.598ZM441.928 224V220.458C441.928 218.932 442.712 217.924 444.098 217.924C445.218 217.924 445.932 218.484 445.932 220.066V224H446.898V219.856C446.898 218.148 446.128 217.042 444.266 217.042C443.286 217.042 442.39 217.532 441.942 218.4L441.802 217.224H440.962V224H441.928Z" fill="white"/>
<path d="M513.75 216.58C513.75 217.952 514.576 218.848 516.144 219.226L517.838 219.646C518.916 219.898 519.42 220.486 519.42 221.382C519.42 222.53 518.482 223.244 517.012 223.244C515.64 223.244 514.716 222.558 514.66 221.508H513.624C513.75 223.146 515.066 224.168 517.012 224.168C519.084 224.168 520.428 223.062 520.428 221.326C520.428 219.968 519.616 219.072 518.048 218.694L516.326 218.274C515.276 218.008 514.758 217.448 514.758 216.566C514.758 215.432 515.682 214.704 517.096 214.704C518.356 214.704 519.126 215.348 519.238 216.482H520.26C520.106 214.802 518.916 213.794 517.11 213.794C515.094 213.794 513.75 214.9 513.75 216.58ZM523.976 224.168C525.124 224.168 526.048 223.664 526.468 222.81L526.594 224H527.406V219.618C527.406 217.826 526.258 217.042 524.69 217.042C523.024 217.042 521.904 217.924 521.904 219.296H522.786C522.786 218.386 523.486 217.854 524.662 217.854C525.656 217.854 526.454 218.274 526.454 219.604V219.828L524.214 220.01C522.632 220.136 521.68 220.92 521.68 222.166C521.68 223.356 522.534 224.168 523.976 224.168ZM524.2 223.384C523.276 223.384 522.66 222.964 522.66 222.138C522.66 221.382 523.178 220.822 524.452 220.71L526.454 220.556V220.92C526.454 222.39 525.628 223.384 524.2 223.384ZM530.353 224V213.794H529.387V224H530.353ZM535.249 224.168C536.845 224.168 537.895 223.398 538.259 221.97H537.335C537.083 222.866 536.369 223.342 535.263 223.342C533.807 223.342 532.939 222.39 532.869 220.738H538.259V220.262C538.259 218.344 537.013 217.042 535.179 217.042C533.247 217.042 531.931 218.498 531.931 220.612C531.931 222.74 533.261 224.168 535.249 224.168ZM535.179 217.868C536.453 217.868 537.293 218.736 537.293 220.038H532.897C533.065 218.708 533.905 217.868 535.179 217.868ZM539.23 222.096C539.23 223.356 540.182 224.168 541.708 224.168C543.248 224.168 544.284 223.37 544.284 222.152C544.284 221.172 543.752 220.626 542.576 220.332L541.414 220.038C540.672 219.856 540.308 219.492 540.308 218.974C540.308 218.246 540.84 217.84 541.792 217.84C542.702 217.84 543.248 218.302 543.276 219.086H544.214C544.172 217.826 543.248 217.042 541.82 217.042C540.364 217.042 539.37 217.798 539.37 218.988C539.37 219.912 539.944 220.528 541.12 220.822L542.282 221.116C543.08 221.312 543.36 221.634 543.36 222.194C543.36 222.922 542.744 223.37 541.694 223.37C540.742 223.37 540.154 222.88 540.154 222.096H539.23Z" fill="white"/>
<path d="M394.368 273.318C396.286 273.318 397.518 271.946 397.518 270.126C397.518 268.236 396.3 266.976 394.368 266.976H390.546V277H391.554V273.318H394.368ZM394.228 267.886C395.614 267.886 396.468 268.726 396.468 270.112C396.468 271.484 395.628 272.408 394.172 272.408H391.554V267.886H394.228ZM402.478 270.14C402.24 270.084 402.058 270.07 401.848 270.07C400.896 270.07 400.182 270.546 399.916 271.274L399.846 270.224H398.936V277H399.902V273.136C399.902 271.848 400.7 271.008 401.946 271.008H402.478V270.14ZM403.026 273.612C403.026 275.67 404.482 277.168 406.47 277.168C408.458 277.168 409.914 275.67 409.914 273.612C409.914 271.54 408.458 270.042 406.47 270.042C404.482 270.042 403.026 271.54 403.026 273.612ZM404.006 273.598C404.006 272.03 405.014 270.91 406.47 270.91C407.912 270.91 408.934 272.03 408.934 273.598C408.934 275.194 407.912 276.3 406.47 276.3C405.014 276.3 404.006 275.194 404.006 273.598ZM414.119 277.168C415.253 277.168 416.205 276.664 416.681 275.614L416.779 277H417.619V266.794H416.653V271.512C416.177 270.532 415.281 270.042 414.161 270.042C412.145 270.042 410.983 271.582 410.983 273.626C410.983 275.656 412.145 277.168 414.119 277.168ZM414.287 276.286C412.817 276.286 411.963 275.166 411.963 273.598C411.963 272.044 412.817 270.91 414.287 270.91C415.771 270.91 416.639 272.044 416.639 273.598C416.639 275.166 415.771 276.286 414.287 276.286ZM424.395 270.224V273.822C424.395 275.432 423.625 276.3 422.323 276.3C421.245 276.3 420.531 275.726 420.531 274.116V270.21H419.551V274.424C419.551 276.076 420.419 277.168 422.015 277.168C423.079 277.168 424.017 276.636 424.395 275.852L424.521 277H425.361V270.224H424.395ZM426.761 273.626C426.761 275.754 428.063 277.168 429.981 277.168C431.521 277.168 432.725 276.258 433.047 274.872H432.067C431.801 275.74 430.989 276.3 429.981 276.3C428.609 276.3 427.713 275.222 427.713 273.612C427.713 271.946 428.679 270.896 430.051 270.896C430.989 270.896 431.801 271.414 432.053 272.352H433.019C432.753 270.952 431.605 270.042 430.037 270.042C428.063 270.042 426.761 271.498 426.761 273.626ZM436.064 277V271.036H437.422V270.224H436.064V268.082H435.112V270.224H433.754V271.036H435.112V277H436.064Z" fill="white"/>
<path d="M517.502 273.318C519.42 273.318 520.652 271.946 520.652 270.126C520.652 268.236 519.434 266.976 517.502 266.976H513.68V277H514.688V273.318H517.502ZM517.362 267.886C518.748 267.886 519.602 268.726 519.602 270.112C519.602 271.484 518.762 272.408 517.306 272.408H514.688V267.886H517.362ZM525.612 270.14C525.374 270.084 525.192 270.07 524.982 270.07C524.03 270.07 523.316 270.546 523.05 271.274L522.98 270.224H522.07V277H523.036V273.136C523.036 271.848 523.834 271.008 525.08 271.008H525.612V270.14ZM527.372 268.362C527.764 268.362 528.1 268.04 528.1 267.648C528.1 267.256 527.764 266.92 527.372 266.92C526.98 266.92 526.658 267.256 526.658 267.648C526.658 268.04 526.98 268.362 527.372 268.362ZM526.896 277H527.862V270.224H526.896V277ZM529.4 273.626C529.4 275.754 530.702 277.168 532.62 277.168C534.16 277.168 535.364 276.258 535.686 274.872H534.706C534.44 275.74 533.628 276.3 532.62 276.3C531.248 276.3 530.352 275.222 530.352 273.612C530.352 271.946 531.318 270.896 532.69 270.896C533.628 270.896 534.44 271.414 534.692 272.352H535.658C535.392 270.952 534.244 270.042 532.676 270.042C530.702 270.042 529.4 271.498 529.4 273.626ZM539.992 277.168C541.588 277.168 542.638 276.398 543.002 274.97H542.078C541.826 275.866 541.112 276.342 540.006 276.342C538.55 276.342 537.682 275.39 537.612 273.738H543.002V273.262C543.002 271.344 541.756 270.042 539.922 270.042C537.99 270.042 536.674 271.498 536.674 273.612C536.674 275.74 538.004 277.168 539.992 277.168ZM539.922 270.868C541.196 270.868 542.036 271.736 542.036 273.038H537.64C537.808 271.708 538.648 270.868 539.922 270.868Z" fill="white"/>
<path d="M140.515 525.192L136.891 523.086C135.632 522.354 134.669 521.813 134.004 521.557L141.938 522.743L142.887 521.111L137.921 514.784C138.585 515.299 139.179 515.644 141.213 516.826L144.326 518.635L145.322 516.919L135.21 511.043L134.197 512.786L140.351 520.729L130.403 519.316L129.406 521.031L139.519 526.907L140.515 525.192ZM147.84 513.001C148.459 511.936 148.513 510.727 147.976 510.027L149.059 510.489L149.919 509.009L145.769 506.597C143.873 505.496 142.218 506.052 141.149 507.892C140.072 509.745 140.333 511.526 141.813 512.386L142.649 510.947C141.93 510.529 141.836 509.734 142.415 508.738C142.913 507.881 143.608 507.544 144.535 508.083L144.688 508.171L143.65 510.307C142.834 511.998 143.092 513.369 144.351 514.101C145.637 514.848 146.996 514.453 147.84 513.001ZM146.889 511.708C146.447 512.469 145.901 512.707 145.278 512.345C144.725 512.024 144.612 511.422 145.126 510.314L145.844 508.825L146.203 509.034C147.255 509.645 147.492 510.67 146.889 511.708ZM146.513 499.075C146.283 499.312 146.118 499.531 145.982 499.766C145.451 500.679 145.53 501.595 146.039 502.279L144.987 501.797L144.062 503.388L150.882 507.351L151.863 505.663L148.543 503.734C147.215 502.962 147.007 501.824 147.714 500.606L148.076 499.984L146.513 499.075ZM155.027 500.218L153.187 499.149L152.728 497.55L156.643 497.438L157.768 495.501L152.166 495.651L150.966 491.475L149.736 493.591L151.056 497.911L144.734 494.238L143.762 495.912L154.054 501.892L155.027 500.218ZM160.139 491.834C161.176 490.049 161.001 488.282 159.675 487.123L158.767 488.686C159.305 489.258 159.311 490.076 158.772 491.002C158.121 492.123 157.142 492.406 155.866 491.831L158.843 486.677L158.331 486.379C156.201 485.141 154.075 485.646 152.886 487.693C151.72 489.699 152.389 491.956 154.533 493.202C156.649 494.432 158.958 493.868 160.139 491.834ZM154.277 488.483C154.864 487.473 155.864 487.185 156.805 487.731L154.812 491.162C153.884 490.401 153.698 489.479 154.277 488.483ZM163.969 484.83L158.546 481.679L159.318 480.35L157.906 479.531L157.135 480.859L155.004 479.621L154.024 481.308L156.154 482.546L155.39 483.861L156.801 484.681L157.565 483.366L162.988 486.517L163.969 484.83ZM157.637 476.842C157.958 476.288 157.767 475.566 157.2 475.237C156.633 474.907 155.925 475.107 155.603 475.66C155.266 476.241 155.443 476.955 156.01 477.284C156.577 477.614 157.299 477.423 157.637 476.842ZM165.35 482.452L166.331 480.765L159.497 476.794L158.516 478.481L165.35 482.452ZM168.325 477.333L164.645 475.195C163.538 474.552 163.189 473.497 163.792 472.46C164.298 471.588 165.181 471.343 166.329 472.01L170.133 474.22L171.114 472.533L166.909 470.089C165.138 469.06 163.558 469.326 162.561 471.042C162.023 471.969 161.942 473.032 162.384 473.863L161.418 473.487L160.51 475.05L167.344 479.021L168.325 477.333ZM168.283 469.188C170.262 470.337 172.454 469.909 173.579 467.972C174.15 466.99 174.239 465.913 173.852 465.114L174.986 465.773C176.121 466.432 176.42 467.605 175.745 468.768C175.142 469.805 174.222 470.177 173.273 469.774L172.292 471.461C174.238 472.315 176.139 471.624 177.28 469.66C178.566 467.446 177.937 465.249 175.655 463.922L169.167 460.152L168.258 461.716L169.143 462.359C168.176 462.334 167.281 462.887 166.686 463.911C165.553 465.862 166.291 468.03 168.283 469.188ZM169.231 467.462C168.11 466.811 167.684 465.601 168.335 464.481C169.019 463.305 170.231 463.066 171.393 463.741C172.583 464.432 172.981 465.626 172.306 466.788C171.663 467.895 170.379 468.129 169.231 467.462ZM171.699 454.744C173.248 455.644 174.753 455.316 176.123 453.817L177.415 452.421C178.077 451.696 178.68 451.583 179.357 451.977C180.201 452.467 180.279 453.512 179.596 454.688C178.937 455.822 178.023 456.216 177.157 455.732L176.128 457.503C177.965 458.514 179.933 457.77 181.187 455.612C182.481 453.385 182.116 451.211 180.234 450.118C178.726 449.242 177.351 449.571 175.972 451.083L174.702 452.473C174.018 453.205 173.392 453.359 172.672 452.941C171.828 452.45 171.713 451.439 172.348 450.347C172.927 449.351 173.8 449.025 174.696 449.49L175.725 447.72C173.866 446.714 171.976 447.355 170.787 449.402C169.549 451.533 169.928 453.715 171.699 454.744ZM185.29 448.137L179.867 444.986L180.639 443.658L179.228 442.838L178.456 444.166L176.325 442.928L175.345 444.616L177.475 445.854L176.711 447.168L178.123 447.988L178.886 446.674L184.309 449.825L185.29 448.137ZM182.302 437.484C182.072 437.72 181.907 437.94 181.771 438.175C181.24 439.088 181.319 440.003 181.828 440.688L180.776 440.206L179.851 441.797L186.671 445.76L187.652 444.072L184.332 442.143C183.004 441.371 182.796 440.232 183.503 439.015L183.865 438.392L182.302 437.484ZM191.032 438.67C191.651 437.605 191.705 436.396 191.168 435.696L192.25 436.158L193.111 434.678L188.96 432.266C187.065 431.165 185.41 431.721 184.341 433.561C183.264 435.414 183.525 437.194 185.005 438.055L185.841 436.616C185.121 436.198 185.028 435.403 185.607 434.407C186.105 433.55 186.8 433.213 187.727 433.752L187.879 433.84L186.842 435.976C186.026 437.667 186.284 439.038 187.543 439.77C188.829 440.517 190.187 440.122 191.032 438.67ZM190.08 437.377C189.638 438.138 189.093 438.376 188.47 438.014C187.917 437.693 187.804 437.091 188.318 435.983L189.035 434.494L189.395 434.703C190.447 435.314 190.683 436.339 190.08 437.377ZM195.37 430.79L189.947 427.639L190.718 426.311L189.307 425.491L188.535 426.819L186.405 425.581L185.424 427.269L187.555 428.507L186.791 429.821L188.202 430.641L188.966 429.327L194.389 432.478L195.37 430.79ZM198.668 425.528C199.705 423.743 199.529 421.976 198.204 420.817L197.296 422.38C197.833 422.952 197.839 423.769 197.301 424.696C196.65 425.817 195.671 426.099 194.395 425.525L197.372 420.37L196.86 420.073C194.729 418.835 192.604 419.34 191.414 421.387C190.249 423.393 190.917 425.65 193.062 426.896C195.178 428.126 197.486 427.561 198.668 425.528ZM192.806 422.177C193.393 421.167 194.393 420.879 195.334 421.425L193.34 424.856C192.413 424.095 192.227 423.173 192.806 422.177ZM197.392 419.093C199.37 420.243 201.562 419.814 202.688 417.877C203.259 416.895 203.348 415.818 202.961 415.02L204.095 415.679C205.229 416.338 205.528 417.511 204.853 418.673C204.25 419.711 203.331 420.083 202.381 419.679L201.4 421.367C203.347 422.221 205.247 421.53 206.389 419.565C207.675 417.352 207.046 415.154 204.763 413.828L198.275 410.058L197.367 411.621L198.251 412.265C197.285 412.24 196.39 412.793 195.795 413.817C194.661 415.767 195.4 417.936 197.392 419.093ZM198.339 417.368C197.219 416.717 196.793 415.507 197.444 414.386C198.127 413.21 199.34 412.971 200.502 413.646C201.691 414.338 202.09 415.531 201.414 416.693C200.771 417.8 199.487 418.035 198.339 417.368ZM208.946 414.718C209.26 414.401 209.557 414.018 209.83 413.548C210.481 412.427 210.373 411.402 209.398 410.151L202.988 401.948L201.975 403.691L205.878 408.438L199.877 407.301L198.84 409.086L207.564 410.473L207.963 410.964C208.597 411.721 208.508 412.224 208.122 412.888L207.535 413.898L208.946 414.718Z" fill="white"/>
<path d="M16.4957 741.548L12.8712 739.442C11.6123 738.71 10.6497 738.169 9.98477 737.913L17.9186 739.099L18.8671 737.467L13.9018 731.14C14.5649 731.655 15.1598 732 17.1934 733.182L20.306 734.991L21.3028 733.275L11.1901 727.399L10.1773 729.142L16.3316 737.085L6.38305 735.672L5.38627 737.387L15.499 743.263L16.4957 741.548ZM23.8202 729.357C24.4392 728.292 24.4936 727.083 23.9568 726.383L25.0391 726.845L25.8992 725.365L21.749 722.953C19.8537 721.852 18.1985 722.408 17.1294 724.248C16.0522 726.101 16.3132 727.882 17.7934 728.742L18.6294 727.303C17.9101 726.885 17.8166 726.09 18.3954 725.094C18.8938 724.237 19.5888 723.9 20.5157 724.439L20.6679 724.527L19.6303 726.663C18.8143 728.354 19.0723 729.725 20.3312 730.457C21.6178 731.204 22.9761 730.809 23.8202 729.357ZM22.869 728.064C22.4269 728.825 21.8814 729.063 21.2588 728.701C20.7055 728.38 20.5928 727.778 21.1068 726.67L21.8242 725.181L22.1838 725.39C23.2352 726.001 23.4719 727.026 22.869 728.064ZM22.4929 715.431C22.263 715.668 22.0986 715.887 21.962 716.122C21.4314 717.035 21.5102 717.951 22.0192 718.635L20.9669 718.153L20.0424 719.744L26.8626 723.707L27.8433 722.019L24.5232 720.09C23.1951 719.318 22.987 718.18 23.6944 716.962L24.0562 716.34L22.4929 715.431ZM31.0072 716.574L29.1672 715.505L28.7085 713.906L32.6229 713.794L33.7483 711.857L28.1467 712.007L26.9464 707.831L25.7165 709.947L27.0368 714.267L20.7146 710.594L19.742 712.268L30.0345 718.248L31.0072 716.574ZM36.1197 708.19C37.1567 706.405 36.9809 704.638 35.6557 703.479L34.7473 705.042C35.285 705.614 35.2909 706.432 34.7524 707.358C34.1012 708.479 33.1228 708.762 31.8468 708.187L34.8234 703.033L34.3115 702.735C32.1811 701.497 30.0559 702.002 28.8661 704.049C27.7006 706.055 28.3689 708.313 30.5132 709.559C32.6298 710.788 34.938 710.224 36.1197 708.19ZM30.2576 704.839C30.8444 703.829 31.8448 703.541 32.7855 704.088L30.7919 707.518C29.8646 706.757 29.6788 705.835 30.2576 704.839ZM39.9491 701.186L34.5262 698.035L35.2979 696.706L33.8868 695.887L33.1151 697.215L30.9847 695.977L30.004 697.664L32.1344 698.902L31.3707 700.217L32.7818 701.037L33.5455 699.722L38.9684 702.873L39.9491 701.186ZM33.6173 693.198C33.9388 692.644 33.7476 691.922 33.1804 691.593C32.6132 691.263 31.9052 691.463 31.5837 692.016C31.2461 692.597 31.4235 693.311 31.9907 693.64C32.5579 693.97 33.2797 693.779 33.6173 693.198ZM41.3305 698.808L42.3112 697.121L35.4772 693.15L34.4965 694.837L41.3305 698.808ZM44.3052 693.689L40.6253 691.551C39.5186 690.908 39.169 689.853 39.7719 688.816C40.2783 687.944 41.1613 687.699 42.3095 688.366L46.1139 690.576L47.0946 688.889L42.889 686.445C41.1183 685.416 39.5386 685.682 38.5418 687.398C38.0032 688.325 37.9221 689.388 38.3646 690.219L37.3988 689.843L36.4905 691.406L43.3245 695.377L44.3052 693.689ZM44.2639 685.544C46.2421 686.693 48.4343 686.265 49.5597 684.328C50.1304 683.346 50.2196 682.269 49.8324 681.47L50.9668 682.129C52.1012 682.788 52.4003 683.962 51.7251 685.124C51.1222 686.161 50.2026 686.534 49.2529 686.13L48.2722 687.817C50.2189 688.671 52.1192 687.98 53.2606 686.016C54.5468 683.802 53.9177 681.605 51.6351 680.278L45.1469 676.508L44.2386 678.072L45.123 678.715C44.1567 678.69 43.2616 679.243 42.6668 680.267C41.5333 682.218 42.2718 684.386 44.2639 685.544ZM45.2111 683.818C44.0906 683.167 43.6647 681.957 44.3158 680.837C44.9991 679.661 46.2114 679.422 47.3735 680.097C48.5632 680.788 48.9614 681.982 48.2862 683.144C47.6431 684.251 46.3593 684.485 45.2111 683.818ZM55.8137 673.884L53.95 671.709L56.1445 667.932L58.9568 668.474L60.042 666.607L47.8071 664.383L46.754 666.195L54.7445 675.723L55.8137 673.884ZM50.1638 667.27C49.9433 667.012 49.6872 666.752 49.5177 666.598C49.7413 666.691 50.1019 666.771 50.4129 666.841L54.353 667.576L52.7614 670.315L50.1638 667.27ZM61.6148 663.9L57.935 661.762C56.8283 661.119 56.4787 660.064 57.0816 659.027C57.588 658.155 58.4709 657.91 59.6192 658.577L63.4235 660.787L64.4042 659.1L60.1987 656.656C58.4279 655.627 56.8482 655.893 55.8514 657.609C55.3129 658.536 55.2317 659.599 55.6742 660.43L54.7085 660.053L53.8001 661.617L60.6341 665.588L61.6148 663.9ZM66.7293 655.512C67.3483 654.447 67.4027 653.239 66.8659 652.538L67.9482 653.001L68.8083 651.52L64.6581 649.109C62.7628 648.007 61.1076 648.563 60.0385 650.403C58.9613 652.257 59.2223 654.037 60.7025 654.897L61.5386 653.458C60.8192 653.04 60.7257 652.246 61.3045 651.25C61.8029 650.392 62.4979 650.056 63.4248 650.594L63.577 650.683L62.5395 652.819C61.7234 654.509 61.9814 655.881 63.2403 656.612C64.5269 657.36 65.8853 656.965 66.7293 655.512ZM65.7781 654.219C65.336 654.98 64.7905 655.218 64.168 654.857C63.6146 654.535 63.5019 653.933 64.016 652.825L64.7333 651.336L65.0929 651.545C66.1443 652.156 66.381 653.182 65.7781 654.219ZM70.7605 648.161L60.468 642.18L59.4953 643.854L69.7878 649.835L70.7605 648.161ZM74.6116 648.826C74.9255 648.509 75.222 648.126 75.4953 647.656C76.1464 646.535 76.0387 645.51 75.0634 644.259L68.653 636.056L67.6401 637.799L71.5432 642.546L65.542 641.409L64.5051 643.194L73.2293 644.581L73.6286 645.072C74.2622 645.829 74.1732 646.332 73.7873 646.996L73.2005 648.006L74.6116 648.826ZM77.3945 636.744L71.9716 633.593L72.7433 632.265L71.3322 631.445L70.5605 632.773L68.4301 631.535L67.4493 633.223L69.5798 634.461L68.8161 635.775L70.2272 636.595L70.9909 635.28L76.4138 638.432L77.3945 636.744ZM71.0627 628.756C71.3842 628.202 71.193 627.481 70.6258 627.151C70.0586 626.821 69.3506 627.021 69.0291 627.574C68.6914 628.155 68.8689 628.869 69.4361 629.198C70.0032 629.528 70.725 629.337 71.0627 628.756ZM78.7759 634.367L79.7566 632.679L72.9226 628.708L71.9419 630.395L78.7759 634.367ZM77.1059 629.343C79.2778 630.605 81.5044 630.085 82.7101 628.01C83.7471 626.225 83.4259 624.262 81.9556 623.13L80.9669 624.832C81.6094 625.446 81.6788 626.282 81.1884 627.126C80.5614 628.205 79.3732 628.402 78.0866 627.655C76.8 626.907 76.4018 625.714 77.0288 624.635C77.4951 623.832 78.2258 623.498 79.1131 623.755L80.0938 622.067C78.343 621.29 76.5659 621.96 75.4807 623.828C74.3071 625.847 74.9893 628.113 77.1059 629.343ZM82.8089 622.649C84.1508 623.429 85.6909 622.88 86.6796 621.179C87.6603 619.491 87.4859 617.817 86.1025 617.013C85.0511 616.402 84.1878 616.677 83.2578 617.673L82.2518 618.735C81.7758 619.236 81.35 619.396 80.9626 619.17C80.4508 618.873 80.3715 618.309 80.7574 617.645C81.1352 616.995 81.7338 616.824 82.3228 617.148L83.2553 615.543C81.9192 614.785 80.4309 615.309 79.5386 616.844C78.6222 618.421 78.7655 620.022 80.1074 620.802C81.2003 621.437 82.1269 621.179 83.1191 620.109L84.125 619.046C84.617 618.518 84.9706 618.483 85.3164 618.684C85.8144 618.973 85.8834 619.587 85.4252 620.376C84.9751 621.15 84.3443 621.376 83.7414 621.044L82.8089 622.649Z" fill="white"/>
<path d="M415.624 801V796.808C415.624 795.352 415.608 794.248 415.496 793.544L418.456 801H420.344L423.32 793.528C423.208 794.36 423.208 795.048 423.208 797.4V801H425.192V789.304H423.176L419.4 798.616L415.624 789.304H413.64V801H415.624ZM429.844 801.208C431.076 801.208 432.148 800.648 432.484 799.832L432.628 801H434.34V796.2C434.34 794.008 433.028 792.856 430.9 792.856C428.756 792.856 427.348 793.976 427.348 795.688H429.012C429.012 794.856 429.652 794.376 430.804 794.376C431.796 794.376 432.436 794.808 432.436 795.88V796.056L430.068 796.232C428.196 796.376 427.14 797.288 427.14 798.744C427.14 800.232 428.164 801.208 429.844 801.208ZM430.484 799.736C429.604 799.736 429.124 799.384 429.124 798.664C429.124 798.024 429.588 797.624 430.804 797.512L432.452 797.384V797.8C432.452 799.016 431.684 799.736 430.484 799.736ZM441.218 793.064C440.898 792.984 440.626 792.952 440.354 792.952C439.298 792.952 438.546 793.48 438.21 794.264L438.098 793.112H436.258V801H438.21V797.16C438.21 795.624 439.09 794.872 440.498 794.872H441.218V793.064ZM444.507 801V798.872L445.659 797.672L447.723 801H449.963L447.019 796.232L450.027 793.096H447.579L444.507 796.408V789.096H442.571V801H444.507ZM454.325 801.208C456.389 801.208 457.829 800.168 458.165 798.44H456.357C456.133 799.192 455.429 799.608 454.357 799.608C453.061 799.608 452.325 798.904 452.181 797.512L458.133 797.496V796.904C458.133 794.44 456.629 792.856 454.261 792.856C451.941 792.856 450.325 794.568 450.325 797.048C450.325 799.496 451.973 801.208 454.325 801.208ZM454.277 794.456C455.445 794.456 456.197 795.176 456.197 796.264H452.229C452.421 795.08 453.125 794.456 454.277 794.456ZM462.305 801V794.728H463.841V793.096H462.305V790.632H460.353V793.096H458.833V794.728H460.353V801H462.305ZM466.031 791.512C466.671 791.512 467.199 790.984 467.199 790.328C467.199 789.672 466.671 789.16 466.031 789.16C465.359 789.16 464.831 789.672 464.831 790.328C464.831 790.984 465.359 791.512 466.031 791.512ZM465.055 801H467.007V793.096H465.055V801ZM470.976 801V796.744C470.976 795.464 471.712 794.632 472.912 794.632C473.92 794.632 474.576 795.272 474.576 796.6V801H476.528V796.136C476.528 794.088 475.504 792.856 473.52 792.856C472.448 792.856 471.488 793.32 470.992 794.12L470.832 793.096H469.024V801H470.976ZM477.998 796.872C477.998 799.16 479.47 800.84 481.71 800.84C482.846 800.84 483.822 800.376 484.318 799.64V800.952C484.318 802.264 483.454 803.112 482.11 803.112C480.91 803.112 480.126 802.504 479.998 801.48H478.046C478.286 803.592 479.838 804.888 482.11 804.888C484.67 804.888 486.253 803.24 486.253 800.6V793.096H484.446L484.334 794.184C483.87 793.336 482.942 792.84 481.758 792.84C479.502 792.84 477.998 794.568 477.998 796.872ZM479.966 796.824C479.966 795.528 480.798 794.552 482.094 794.552C483.454 794.552 484.27 795.48 484.27 796.824C484.27 798.2 483.438 799.144 482.094 799.144C480.814 799.144 479.966 798.152 479.966 796.824ZM493.882 801L494.826 798.296H499.194L500.138 801H502.298L498.074 789.304H495.978L491.754 801H493.882ZM496.762 792.792C496.874 792.472 496.97 792.12 497.018 791.896C497.05 792.136 497.162 792.488 497.258 792.792L498.602 796.568H495.434L496.762 792.792ZM508.54 793.096V797.24C508.54 798.744 507.948 799.464 506.716 799.464C505.628 799.464 505.036 798.856 505.036 797.352V793.096H503.084V798.04C503.084 799.976 504.156 801.208 505.98 801.208C507.036 801.208 508.06 800.696 508.54 799.944L508.684 801H510.492V793.096H508.54ZM515.6 801.208C516.8 801.208 517.824 800.68 518.304 799.768L518.432 801H520.224V789.096H518.288V794.104C517.792 793.32 516.816 792.856 515.712 792.856C513.328 792.856 511.888 794.616 511.888 797.08C511.888 799.528 513.312 801.208 515.6 801.208ZM516.032 799.416C514.672 799.416 513.84 798.424 513.84 797.016C513.84 795.608 514.672 794.6 516.032 794.6C517.392 794.6 518.272 795.592 518.272 797.016C518.272 798.44 517.392 799.416 516.032 799.416ZM523.234 791.512C523.874 791.512 524.402 790.984 524.402 790.328C524.402 789.672 523.874 789.16 523.234 789.16C522.562 789.16 522.034 789.672 522.034 790.328C522.034 790.984 522.562 791.512 523.234 791.512ZM522.258 801H524.21V793.096H522.258V801ZM528.915 801V794.728H530.451V793.096H528.915V790.632H526.963V793.096H525.443V794.728H526.963V801H528.915Z" fill="white"/>
<path d="M429.695 718.59V717.68H425.593V713.9H430.493V712.976H424.585V723H425.593V718.59H429.695ZM433.362 723.168C434.51 723.168 435.434 722.664 435.854 721.81L435.98 723H436.792V718.618C436.792 716.826 435.644 716.042 434.076 716.042C432.41 716.042 431.29 716.924 431.29 718.296H432.172C432.172 717.386 432.872 716.854 434.048 716.854C435.042 716.854 435.84 717.274 435.84 718.604V718.828L433.6 719.01C432.018 719.136 431.066 719.92 431.066 721.166C431.066 722.356 431.92 723.168 433.362 723.168ZM433.586 722.384C432.662 722.384 432.046 721.964 432.046 721.138C432.046 720.382 432.564 719.822 433.838 719.71L435.84 719.556V719.92C435.84 721.39 435.014 722.384 433.586 722.384ZM439.697 723V719.458C439.697 717.932 440.481 716.924 441.867 716.924C442.987 716.924 443.701 717.484 443.701 719.066V723H444.667V718.856C444.667 717.148 443.897 716.042 442.035 716.042C441.055 716.042 440.159 716.532 439.711 717.4L439.571 716.224H438.731V723H439.697ZM457.261 723H458.409L456.911 721.278C457.401 720.508 457.667 719.542 457.667 718.422H456.729C456.729 719.262 456.575 719.99 456.295 720.578L453.565 717.428C454.895 716.532 455.413 715.762 455.413 714.768C455.413 713.592 454.531 712.808 453.243 712.808C451.885 712.808 450.975 713.648 450.975 714.852C450.975 715.594 451.339 716.196 452.249 717.26C450.443 718.24 449.687 719.178 449.687 720.452C449.687 722.104 451.059 723.182 453.173 723.182C454.489 723.182 455.581 722.748 456.365 721.964L457.261 723ZM453.047 716.826C452.137 715.776 451.913 715.356 451.913 714.852C451.913 714.096 452.417 713.62 453.229 713.62C454.013 713.62 454.489 714.068 454.489 714.796C454.489 715.58 454.041 716.224 453.061 716.84L453.047 716.826ZM450.681 720.396C450.681 719.374 451.241 718.674 452.753 717.834L455.805 721.32C455.203 721.992 454.335 722.342 453.229 722.342C451.633 722.342 450.681 721.614 450.681 720.396ZM462.524 715.58C462.524 716.952 463.35 717.848 464.918 718.226L466.612 718.646C467.69 718.898 468.194 719.486 468.194 720.382C468.194 721.53 467.256 722.244 465.786 722.244C464.414 722.244 463.49 721.558 463.434 720.508H462.398C462.524 722.146 463.84 723.168 465.786 723.168C467.858 723.168 469.202 722.062 469.202 720.326C469.202 718.968 468.39 718.072 466.822 717.694L465.1 717.274C464.05 717.008 463.532 716.448 463.532 715.566C463.532 714.432 464.456 713.704 465.87 713.704C467.13 713.704 467.9 714.348 468.012 715.482H469.034C468.88 713.802 467.69 712.794 465.884 712.794C463.868 712.794 462.524 713.9 462.524 715.58ZM470.805 725.954H471.771V721.698C472.247 722.678 473.157 723.168 474.305 723.168C476.307 723.168 477.441 721.628 477.441 719.584C477.441 717.54 476.265 716.042 474.305 716.042C473.171 716.042 472.219 716.546 471.743 717.596L471.645 716.224H470.805V725.954ZM471.785 719.612C471.785 718.044 472.653 716.924 474.137 716.924C475.607 716.924 476.461 718.044 476.461 719.612C476.461 721.166 475.607 722.3 474.137 722.3C472.653 722.3 471.785 721.166 471.785 719.612ZM478.505 719.612C478.505 721.67 479.961 723.168 481.949 723.168C483.937 723.168 485.393 721.67 485.393 719.612C485.393 717.54 483.937 716.042 481.949 716.042C479.961 716.042 478.505 717.54 478.505 719.612ZM479.485 719.598C479.485 718.03 480.493 716.91 481.949 716.91C483.391 716.91 484.413 718.03 484.413 719.598C484.413 721.194 483.391 722.3 481.949 722.3C480.493 722.3 479.485 721.194 479.485 719.598ZM487.904 723V719.458C487.904 717.932 488.688 716.924 490.074 716.924C491.194 716.924 491.908 717.484 491.908 719.066V723H492.874V718.856C492.874 717.148 492.104 716.042 490.242 716.042C489.262 716.042 488.366 716.532 487.918 717.4L487.778 716.224H486.938V723H487.904ZM494.143 721.096C494.143 722.356 495.095 723.168 496.621 723.168C498.161 723.168 499.197 722.37 499.197 721.152C499.197 720.172 498.665 719.626 497.489 719.332L496.327 719.038C495.585 718.856 495.221 718.492 495.221 717.974C495.221 717.246 495.753 716.84 496.705 716.84C497.615 716.84 498.161 717.302 498.189 718.086H499.127C499.085 716.826 498.161 716.042 496.733 716.042C495.277 716.042 494.283 716.798 494.283 717.988C494.283 718.912 494.857 719.528 496.033 719.822L497.195 720.116C497.993 720.312 498.273 720.634 498.273 721.194C498.273 721.922 497.657 722.37 496.607 722.37C495.655 722.37 495.067 721.88 495.067 721.096H494.143ZM500.311 719.612C500.311 721.67 501.767 723.168 503.755 723.168C505.743 723.168 507.199 721.67 507.199 719.612C507.199 717.54 505.743 716.042 503.755 716.042C501.767 716.042 500.311 717.54 500.311 719.612ZM501.291 719.598C501.291 718.03 502.299 716.91 503.755 716.91C505.197 716.91 506.219 718.03 506.219 719.598C506.219 721.194 505.197 722.3 503.755 722.3C502.299 722.3 501.291 721.194 501.291 719.598ZM512.286 716.14C512.048 716.084 511.866 716.07 511.656 716.07C510.704 716.07 509.99 716.546 509.724 717.274L509.654 716.224H508.744V723H509.71V719.136C509.71 717.848 510.508 717.008 511.754 717.008H512.286V716.14ZM512.997 721.096C512.997 722.356 513.949 723.168 515.475 723.168C517.015 723.168 518.051 722.37 518.051 721.152C518.051 720.172 517.519 719.626 516.343 719.332L515.181 719.038C514.439 718.856 514.075 718.492 514.075 717.974C514.075 717.246 514.607 716.84 515.559 716.84C516.469 716.84 517.015 717.302 517.043 718.086H517.981C517.939 716.826 517.015 716.042 515.587 716.042C514.131 716.042 513.137 716.798 513.137 717.988C513.137 718.912 513.711 719.528 514.887 719.822L516.049 720.116C516.847 720.312 517.127 720.634 517.127 721.194C517.127 721.922 516.511 722.37 515.461 722.37C514.509 722.37 513.921 721.88 513.921 721.096H512.997Z" fill="white"/>
<path d="M636.524 723.154C638.68 723.154 640.43 721.88 640.892 719.99H639.814C639.38 721.334 638.12 722.188 636.538 722.188C634.34 722.188 632.87 720.508 632.87 717.988C632.87 715.454 634.34 713.774 636.538 713.774C638.106 713.774 639.338 714.656 639.758 716.098H640.836C640.43 714.11 638.736 712.808 636.58 712.808C633.752 712.808 631.82 714.908 631.82 717.988C631.82 721.068 633.724 723.154 636.524 723.154ZM641.949 719.612C641.949 721.67 643.405 723.168 645.393 723.168C647.381 723.168 648.837 721.67 648.837 719.612C648.837 717.54 647.381 716.042 645.393 716.042C643.405 716.042 641.949 717.54 641.949 719.612ZM642.929 719.598C642.929 718.03 643.937 716.91 645.393 716.91C646.835 716.91 647.857 718.03 647.857 719.598C647.857 721.194 646.835 722.3 645.393 722.3C643.937 722.3 642.929 721.194 642.929 719.598ZM651.348 723V718.8C651.348 717.764 652.034 716.924 653.168 716.924C654.19 716.924 654.848 717.596 654.848 718.744V723H655.8V718.814C655.8 717.764 656.472 716.91 657.606 716.91C658.642 716.91 659.286 717.596 659.286 718.758V723H660.224V718.562C660.224 716.994 659.258 716.042 657.788 716.042C656.696 716.042 655.87 716.602 655.562 717.484C655.24 716.602 654.442 716.042 653.378 716.042C652.426 716.042 651.67 716.476 651.334 717.19L651.222 716.224H650.382V723H651.348ZM662.167 725.954H663.133V721.698C663.609 722.678 664.519 723.168 665.667 723.168C667.669 723.168 668.803 721.628 668.803 719.584C668.803 717.54 667.627 716.042 665.667 716.042C664.533 716.042 663.581 716.546 663.105 717.596L663.007 716.224H662.167V725.954ZM663.147 719.612C663.147 718.044 664.015 716.924 665.499 716.924C666.969 716.924 667.823 718.044 667.823 719.612C667.823 721.166 666.969 722.3 665.499 722.3C664.015 722.3 663.147 721.166 663.147 719.612ZM673.185 723.168C674.781 723.168 675.831 722.398 676.195 720.97H675.271C675.019 721.866 674.305 722.342 673.199 722.342C671.743 722.342 670.875 721.39 670.805 719.738H676.195V719.262C676.195 717.344 674.949 716.042 673.115 716.042C671.183 716.042 669.867 717.498 669.867 719.612C669.867 721.74 671.197 723.168 673.185 723.168ZM673.115 716.868C674.389 716.868 675.229 717.736 675.229 719.038H670.833C671.001 717.708 671.841 716.868 673.115 716.868ZM679.225 723V717.036H680.583V716.224H679.225V714.082H678.273V716.224H676.915V717.036H678.273V723H679.225ZM682.317 714.362C682.709 714.362 683.045 714.04 683.045 713.648C683.045 713.256 682.709 712.92 682.317 712.92C681.925 712.92 681.603 713.256 681.603 713.648C681.603 714.04 681.925 714.362 682.317 714.362ZM681.841 723H682.807V716.224H681.841V723ZM686.375 723V717.036H687.733V716.224H686.375V714.082H685.423V716.224H684.065V717.036H685.423V723H686.375ZM689.467 714.362C689.859 714.362 690.195 714.04 690.195 713.648C690.195 713.256 689.859 712.92 689.467 712.92C689.075 712.92 688.753 713.256 688.753 713.648C688.753 714.04 689.075 714.362 689.467 714.362ZM688.991 723H689.957V716.224H688.991V723ZM691.496 719.612C691.496 721.67 692.952 723.168 694.94 723.168C696.928 723.168 698.384 721.67 698.384 719.612C698.384 717.54 696.928 716.042 694.94 716.042C692.952 716.042 691.496 717.54 691.496 719.612ZM692.476 719.598C692.476 718.03 693.484 716.91 694.94 716.91C696.382 716.91 697.404 718.03 697.404 719.598C697.404 721.194 696.382 722.3 694.94 722.3C693.484 722.3 692.476 721.194 692.476 719.598ZM700.895 723V719.458C700.895 717.932 701.679 716.924 703.065 716.924C704.185 716.924 704.899 717.484 704.899 719.066V723H705.865V718.856C705.865 717.148 705.095 716.042 703.233 716.042C702.253 716.042 701.357 716.532 700.909 717.4L700.769 716.224H699.929V723H700.895Z" fill="white"/>
<path d="M802.26 723V718.086C802.26 716.56 802.232 715.454 802.176 715.076L805.438 723H806.404L809.666 715.034C809.61 715.72 809.582 716.49 809.582 718.24V723H810.576V712.976H809.568L805.914 721.81L802.26 712.976H801.266V723H802.26ZM814.746 723.168C815.894 723.168 816.818 722.664 817.238 721.81L817.364 723H818.176V718.618C818.176 716.826 817.028 716.042 815.46 716.042C813.794 716.042 812.674 716.924 812.674 718.296H813.556C813.556 717.386 814.256 716.854 815.432 716.854C816.426 716.854 817.224 717.274 817.224 718.604V718.828L814.984 719.01C813.402 719.136 812.45 719.92 812.45 721.166C812.45 722.356 813.304 723.168 814.746 723.168ZM814.97 722.384C814.046 722.384 813.43 721.964 813.43 721.138C813.43 720.382 813.948 719.822 815.222 719.71L817.224 719.556V719.92C817.224 721.39 816.398 722.384 814.97 722.384ZM823.656 716.14C823.418 716.084 823.236 716.07 823.026 716.07C822.074 716.07 821.36 716.546 821.094 717.274L821.024 716.224H820.114V723H821.08V719.136C821.08 717.848 821.878 717.008 823.124 717.008H823.656V716.14ZM825.949 723V720.97L827.265 719.612L829.421 723H830.541L827.923 718.926L830.527 716.224H829.309L825.949 719.724V712.794H824.983V723H825.949ZM834.304 723.168C835.9 723.168 836.95 722.398 837.314 720.97H836.39C836.138 721.866 835.424 722.342 834.318 722.342C832.862 722.342 831.994 721.39 831.924 719.738H837.314V719.262C837.314 717.344 836.068 716.042 834.234 716.042C832.302 716.042 830.986 717.498 830.986 719.612C830.986 721.74 832.316 723.168 834.304 723.168ZM834.234 716.868C835.508 716.868 836.348 717.736 836.348 719.038H831.952C832.12 717.708 832.96 716.868 834.234 716.868ZM840.344 723V717.036H841.702V716.224H840.344V714.082H839.392V716.224H838.034V717.036H839.392V723H840.344Z" fill="white"/>
<path d="M269.377 719.318C271.295 719.318 272.527 717.946 272.527 716.126C272.527 714.236 271.309 712.976 269.377 712.976H265.555V723H266.563V719.318H269.377ZM269.237 713.886C270.623 713.886 271.477 714.726 271.477 716.112C271.477 717.484 270.637 718.408 269.181 718.408H266.563V713.886H269.237ZM276.486 723.168C278.082 723.168 279.132 722.398 279.496 720.97H278.572C278.32 721.866 277.606 722.342 276.5 722.342C275.044 722.342 274.176 721.39 274.106 719.738H279.496V719.262C279.496 717.344 278.25 716.042 276.416 716.042C274.484 716.042 273.168 717.498 273.168 719.612C273.168 721.74 274.498 723.168 276.486 723.168ZM276.416 716.868C277.69 716.868 278.53 717.736 278.53 719.038H274.134C274.302 717.708 275.142 716.868 276.416 716.868ZM280.466 721.096C280.466 722.356 281.418 723.168 282.944 723.168C284.484 723.168 285.52 722.37 285.52 721.152C285.52 720.172 284.988 719.626 283.812 719.332L282.65 719.038C281.908 718.856 281.544 718.492 281.544 717.974C281.544 717.246 282.076 716.84 283.028 716.84C283.938 716.84 284.484 717.302 284.512 718.086H285.45C285.408 716.826 284.484 716.042 283.056 716.042C281.6 716.042 280.606 716.798 280.606 717.988C280.606 718.912 281.18 719.528 282.356 719.822L283.518 720.116C284.316 720.312 284.596 720.634 284.596 721.194C284.596 721.922 283.98 722.37 282.93 722.37C281.978 722.37 281.39 721.88 281.39 721.096H280.466ZM288.665 723V717.036H290.023V716.224H288.665V714.082H287.713V716.224H286.355V717.036H287.713V723H288.665ZM294.054 723.168C295.65 723.168 296.7 722.398 297.064 720.97H296.14C295.888 721.866 295.174 722.342 294.068 722.342C292.612 722.342 291.744 721.39 291.674 719.738H297.064V719.262C297.064 717.344 295.818 716.042 293.984 716.042C292.052 716.042 290.736 717.498 290.736 719.612C290.736 721.74 292.066 723.168 294.054 723.168ZM293.984 716.868C295.258 716.868 296.098 717.736 296.098 719.038H291.702C291.87 717.708 292.71 716.868 293.984 716.868ZM299.617 723V712.794H298.651V723H299.617Z" fill="white"/>
<path d="M98.7914 706.976H97.7834V717H98.7914V706.976ZM101.985 717V713.458C101.985 711.932 102.769 710.924 104.155 710.924C105.275 710.924 105.989 711.484 105.989 713.066V717H106.955V712.856C106.955 711.148 106.185 710.042 104.323 710.042C103.343 710.042 102.447 710.532 101.999 711.4L101.859 710.224H101.019V717H101.985ZM110.434 717V711.036H111.792V710.224H110.434V708.082H109.482V710.224H108.124V711.036H109.482V717H110.434ZM115.824 717.168C117.42 717.168 118.47 716.398 118.834 714.97H117.91C117.658 715.866 116.944 716.342 115.838 716.342C114.382 716.342 113.514 715.39 113.444 713.738H118.834V713.262C118.834 711.344 117.588 710.042 115.754 710.042C113.822 710.042 112.506 711.498 112.506 713.612C112.506 715.74 113.836 717.168 115.824 717.168ZM115.754 710.868C117.028 710.868 117.868 711.736 117.868 713.038H113.472C113.64 711.708 114.48 710.868 115.754 710.868ZM123.92 710.14C123.682 710.084 123.5 710.07 123.29 710.07C122.338 710.07 121.624 710.546 121.358 711.274L121.288 710.224H120.378V717H121.344V713.136C121.344 711.848 122.142 711.008 123.388 711.008H123.92V710.14ZM126.17 717V713.458C126.17 711.932 126.954 710.924 128.34 710.924C129.46 710.924 130.174 711.484 130.174 713.066V717H131.14V712.856C131.14 711.148 130.37 710.042 128.508 710.042C127.528 710.042 126.632 710.532 126.184 711.4L126.044 710.224H125.204V717H126.17ZM135.012 717.168C136.16 717.168 137.084 716.664 137.504 715.81L137.63 717H138.442V712.618C138.442 710.826 137.294 710.042 135.726 710.042C134.06 710.042 132.94 710.924 132.94 712.296H133.822C133.822 711.386 134.522 710.854 135.698 710.854C136.692 710.854 137.49 711.274 137.49 712.604V712.828L135.25 713.01C133.668 713.136 132.716 713.92 132.716 715.166C132.716 716.356 133.57 717.168 135.012 717.168ZM135.236 716.384C134.312 716.384 133.696 715.964 133.696 715.138C133.696 714.382 134.214 713.822 135.488 713.71L137.49 713.556V713.92C137.49 715.39 136.664 716.384 135.236 716.384ZM141.388 717V706.794H140.422V717H141.388ZM96.2522 736L97.2322 733.34H101.852L102.832 736H103.882L100.158 725.976H98.9122L95.2302 736H96.2522ZM99.4022 727.39C99.4582 727.25 99.5142 727.068 99.5282 726.984C99.5422 727.082 99.6122 727.25 99.6542 727.39L101.53 732.458H97.5402L99.4022 727.39ZM106.032 736V732.458C106.032 730.932 106.816 729.924 108.202 729.924C109.322 729.924 110.036 730.484 110.036 732.066V736H111.002V731.856C111.002 730.148 110.232 729.042 108.37 729.042C107.39 729.042 106.494 729.532 106.046 730.4L105.906 729.224H105.066V736H106.032ZM114.873 736.168C116.021 736.168 116.945 735.664 117.365 734.81L117.491 736H118.303V731.618C118.303 729.826 117.155 729.042 115.587 729.042C113.921 729.042 112.801 729.924 112.801 731.296H113.683C113.683 730.386 114.383 729.854 115.559 729.854C116.553 729.854 117.351 730.274 117.351 731.604V731.828L115.111 732.01C113.529 732.136 112.577 732.92 112.577 734.166C112.577 735.356 113.431 736.168 114.873 736.168ZM115.097 735.384C114.173 735.384 113.557 734.964 113.557 734.138C113.557 733.382 114.075 732.822 115.349 732.71L117.351 732.556V732.92C117.351 734.39 116.525 735.384 115.097 735.384ZM121.249 736V725.794H120.283V736H121.249ZM122.618 738.954C122.926 739.024 123.234 739.052 123.64 739.052C124.606 739.052 125.264 738.618 125.656 737.554L128.764 729.224H127.77L125.628 735.132L123.444 729.224H122.422L125.166 736.406L124.872 737.204C124.536 738.114 123.948 738.156 123.36 738.156H122.618V738.954ZM129.279 734.096C129.279 735.356 130.231 736.168 131.757 736.168C133.297 736.168 134.333 735.37 134.333 734.152C134.333 733.172 133.801 732.626 132.625 732.332L131.463 732.038C130.721 731.856 130.357 731.492 130.357 730.974C130.357 730.246 130.889 729.84 131.841 729.84C132.751 729.84 133.297 730.302 133.325 731.086H134.263C134.221 729.826 133.297 729.042 131.869 729.042C130.413 729.042 129.419 729.798 129.419 730.988C129.419 731.912 129.993 732.528 131.169 732.822L132.331 733.116C133.129 733.312 133.409 733.634 133.409 734.194C133.409 734.922 132.793 735.37 131.743 735.37C130.791 735.37 130.203 734.88 130.203 734.096H129.279ZM136.399 727.362C136.791 727.362 137.127 727.04 137.127 726.648C137.127 726.256 136.791 725.92 136.399 725.92C136.007 725.92 135.685 726.256 135.685 726.648C135.685 727.04 136.007 727.362 136.399 727.362ZM135.923 736H136.889V729.224H135.923V736ZM138.33 734.096C138.33 735.356 139.282 736.168 140.808 736.168C142.348 736.168 143.384 735.37 143.384 734.152C143.384 733.172 142.852 732.626 141.676 732.332L140.514 732.038C139.772 731.856 139.408 731.492 139.408 730.974C139.408 730.246 139.94 729.84 140.892 729.84C141.802 729.84 142.348 730.302 142.376 731.086H143.314C143.272 729.826 142.348 729.042 140.92 729.042C139.464 729.042 138.47 729.798 138.47 730.988C138.47 731.912 139.044 732.528 140.22 732.822L141.382 733.116C142.18 733.312 142.46 733.634 142.46 734.194C142.46 734.922 141.844 735.37 140.794 735.37C139.842 735.37 139.254 734.88 139.254 734.096H138.33Z" fill="white"/>
<path d="M174.368 627.318C176.286 627.318 177.518 625.946 177.518 624.126C177.518 622.236 176.3 620.976 174.368 620.976H170.546V631H171.554V627.318H174.368ZM174.228 621.886C175.614 621.886 176.468 622.726 176.468 624.112C176.468 625.484 175.628 626.408 174.172 626.408H171.554V621.886H174.228ZM182.478 624.14C182.24 624.084 182.058 624.07 181.848 624.07C180.896 624.07 180.182 624.546 179.916 625.274L179.846 624.224H178.936V631H179.902V627.136C179.902 625.848 180.7 625.008 181.946 625.008H182.478V624.14ZM183.026 627.612C183.026 629.67 184.482 631.168 186.47 631.168C188.458 631.168 189.914 629.67 189.914 627.612C189.914 625.54 188.458 624.042 186.47 624.042C184.482 624.042 183.026 625.54 183.026 627.612ZM184.006 627.598C184.006 626.03 185.014 624.91 186.47 624.91C187.912 624.91 188.934 626.03 188.934 627.598C188.934 629.194 187.912 630.3 186.47 630.3C185.014 630.3 184.006 629.194 184.006 627.598ZM194.119 631.168C195.253 631.168 196.205 630.664 196.681 629.614L196.779 631H197.619V620.794H196.653V625.512C196.177 624.532 195.281 624.042 194.161 624.042C192.145 624.042 190.983 625.582 190.983 627.626C190.983 629.656 192.145 631.168 194.119 631.168ZM194.287 630.286C192.817 630.286 191.963 629.166 191.963 627.598C191.963 626.044 192.817 624.91 194.287 624.91C195.771 624.91 196.639 626.044 196.639 627.598C196.639 629.166 195.771 630.286 194.287 630.286ZM204.395 624.224V627.822C204.395 629.432 203.625 630.3 202.323 630.3C201.245 630.3 200.531 629.726 200.531 628.116V624.21H199.551V628.424C199.551 630.076 200.419 631.168 202.015 631.168C203.079 631.168 204.017 630.636 204.395 629.852L204.521 631H205.361V624.224H204.395ZM206.761 627.626C206.761 629.754 208.063 631.168 209.981 631.168C211.521 631.168 212.725 630.258 213.047 628.872H212.067C211.801 629.74 210.989 630.3 209.981 630.3C208.609 630.3 207.713 629.222 207.713 627.612C207.713 625.946 208.679 624.896 210.051 624.896C210.989 624.896 211.801 625.414 212.053 626.352H213.019C212.753 624.952 211.605 624.042 210.037 624.042C208.063 624.042 206.761 625.498 206.761 627.626ZM216.064 631V625.036H217.422V624.224H216.064V622.082H215.112V624.224H213.754V625.036H215.112V631H216.064Z" fill="white"/>
<path d="M345.11 627.318C347.028 627.318 348.26 625.946 348.26 624.126C348.26 622.236 347.042 620.976 345.11 620.976H341.288V631H342.296V627.318H345.11ZM344.97 621.886C346.356 621.886 347.21 622.726 347.21 624.112C347.21 625.484 346.37 626.408 344.914 626.408H342.296V621.886H344.97ZM350.686 631V620.794H349.72V631H350.686ZM354.686 631.168C355.834 631.168 356.758 630.664 357.178 629.81L357.304 631H358.116V626.618C358.116 624.826 356.968 624.042 355.4 624.042C353.734 624.042 352.614 624.924 352.614 626.296H353.496C353.496 625.386 354.196 624.854 355.372 624.854C356.366 624.854 357.164 625.274 357.164 626.604V626.828L354.924 627.01C353.342 627.136 352.39 627.92 352.39 629.166C352.39 630.356 353.244 631.168 354.686 631.168ZM354.91 630.384C353.986 630.384 353.37 629.964 353.37 629.138C353.37 628.382 353.888 627.822 355.162 627.71L357.164 627.556V627.92C357.164 629.39 356.338 630.384 354.91 630.384ZM359.579 627.626C359.579 629.754 360.881 631.168 362.799 631.168C364.339 631.168 365.543 630.258 365.865 628.872H364.885C364.619 629.74 363.807 630.3 362.799 630.3C361.427 630.3 360.531 629.222 360.531 627.612C360.531 625.946 361.497 624.896 362.869 624.896C363.807 624.896 364.619 625.414 364.871 626.352H365.837C365.571 624.952 364.423 624.042 362.855 624.042C360.881 624.042 359.579 625.498 359.579 627.626ZM370.17 631.168C371.766 631.168 372.816 630.398 373.18 628.97H372.256C372.004 629.866 371.29 630.342 370.184 630.342C368.728 630.342 367.86 629.39 367.79 627.738H373.18V627.262C373.18 625.344 371.934 624.042 370.1 624.042C368.168 624.042 366.852 625.498 366.852 627.612C366.852 629.74 368.182 631.168 370.17 631.168ZM370.1 624.868C371.374 624.868 372.214 625.736 372.214 627.038H367.818C367.986 625.708 368.826 624.868 370.1 624.868ZM375.691 631V626.8C375.691 625.764 376.377 624.924 377.511 624.924C378.533 624.924 379.191 625.596 379.191 626.744V631H380.143V626.814C380.143 625.764 380.815 624.91 381.949 624.91C382.985 624.91 383.629 625.596 383.629 626.758V631H384.567V626.562C384.567 624.994 383.601 624.042 382.131 624.042C381.039 624.042 380.213 624.602 379.905 625.484C379.583 624.602 378.785 624.042 377.721 624.042C376.769 624.042 376.013 624.476 375.677 625.19L375.565 624.224H374.725V631H375.691ZM389.352 631.168C390.948 631.168 391.998 630.398 392.362 628.97H391.438C391.186 629.866 390.472 630.342 389.366 630.342C387.91 630.342 387.042 629.39 386.972 627.738H392.362V627.262C392.362 625.344 391.116 624.042 389.282 624.042C387.35 624.042 386.034 625.498 386.034 627.612C386.034 629.74 387.364 631.168 389.352 631.168ZM389.282 624.868C390.556 624.868 391.396 625.736 391.396 627.038H387C387.168 625.708 388.008 624.868 389.282 624.868ZM394.872 631V627.458C394.872 625.932 395.656 624.924 397.042 624.924C398.162 624.924 398.876 625.484 398.876 627.066V631H399.842V626.856C399.842 625.148 399.072 624.042 397.21 624.042C396.23 624.042 395.334 624.532 394.886 625.4L394.746 624.224H393.906V631H394.872ZM403.322 631V625.036H404.68V624.224H403.322V622.082H402.37V624.224H401.012V625.036H402.37V631H403.322Z" fill="white"/>
<path d="M734.502 627.318C736.42 627.318 737.652 625.946 737.652 624.126C737.652 622.236 736.434 620.976 734.502 620.976H730.68V631H731.688V627.318H734.502ZM734.362 621.886C735.748 621.886 736.602 622.726 736.602 624.112C736.602 625.484 735.762 626.408 734.306 626.408H731.688V621.886H734.362ZM742.612 624.14C742.374 624.084 742.192 624.07 741.982 624.07C741.03 624.07 740.316 624.546 740.05 625.274L739.98 624.224H739.07V631H740.036V627.136C740.036 625.848 740.834 625.008 742.08 625.008H742.612V624.14ZM744.372 622.362C744.764 622.362 745.1 622.04 745.1 621.648C745.1 621.256 744.764 620.92 744.372 620.92C743.98 620.92 743.658 621.256 743.658 621.648C743.658 622.04 743.98 622.362 744.372 622.362ZM743.896 631H744.862V624.224H743.896V631ZM746.4 627.626C746.4 629.754 747.702 631.168 749.62 631.168C751.16 631.168 752.364 630.258 752.686 628.872H751.706C751.44 629.74 750.628 630.3 749.62 630.3C748.248 630.3 747.352 629.222 747.352 627.612C747.352 625.946 748.318 624.896 749.69 624.896C750.628 624.896 751.44 625.414 751.692 626.352H752.658C752.392 624.952 751.244 624.042 749.676 624.042C747.702 624.042 746.4 625.498 746.4 627.626ZM756.992 631.168C758.588 631.168 759.638 630.398 760.002 628.97H759.078C758.826 629.866 758.112 630.342 757.006 630.342C755.55 630.342 754.682 629.39 754.612 627.738H760.002V627.262C760.002 625.344 758.756 624.042 756.922 624.042C754.99 624.042 753.674 625.498 753.674 627.612C753.674 629.74 755.004 631.168 756.992 631.168ZM756.922 624.868C758.196 624.868 759.036 625.736 759.036 627.038H754.64C754.808 625.708 755.648 624.868 756.922 624.868Z" fill="white"/>
<path d="M540.337 622.154C542.493 622.154 544.243 620.88 544.705 618.99H543.627C543.193 620.334 541.933 621.188 540.351 621.188C538.153 621.188 536.683 619.508 536.683 616.988C536.683 614.454 538.153 612.774 540.351 612.774C541.919 612.774 543.151 613.656 543.571 615.098H544.649C544.243 613.11 542.549 611.808 540.393 611.808C537.565 611.808 535.633 613.908 535.633 616.988C535.633 620.068 537.537 622.154 540.337 622.154ZM550.998 615.224V618.822C550.998 620.432 550.228 621.3 548.926 621.3C547.848 621.3 547.134 620.726 547.134 619.116V615.21H546.154V619.424C546.154 621.076 547.022 622.168 548.618 622.168C549.682 622.168 550.62 621.636 550.998 620.852L551.124 622H551.964V615.224H550.998ZM553.266 620.096C553.266 621.356 554.218 622.168 555.744 622.168C557.284 622.168 558.32 621.37 558.32 620.152C558.32 619.172 557.788 618.626 556.612 618.332L555.45 618.038C554.708 617.856 554.344 617.492 554.344 616.974C554.344 616.246 554.876 615.84 555.828 615.84C556.738 615.84 557.284 616.302 557.312 617.086H558.25C558.208 615.826 557.284 615.042 555.856 615.042C554.4 615.042 553.406 615.798 553.406 616.988C553.406 617.912 553.98 618.528 555.156 618.822L556.318 619.116C557.116 619.312 557.396 619.634 557.396 620.194C557.396 620.922 556.78 621.37 555.73 621.37C554.778 621.37 554.19 620.88 554.19 620.096H553.266ZM561.464 622V616.036H562.822V615.224H561.464V613.082H560.512V615.224H559.154V616.036H560.512V622H561.464ZM563.536 618.612C563.536 620.67 564.992 622.168 566.98 622.168C568.968 622.168 570.424 620.67 570.424 618.612C570.424 616.54 568.968 615.042 566.98 615.042C564.992 615.042 563.536 616.54 563.536 618.612ZM564.516 618.598C564.516 617.03 565.524 615.91 566.98 615.91C568.422 615.91 569.444 617.03 569.444 618.598C569.444 620.194 568.422 621.3 566.98 621.3C565.524 621.3 564.516 620.194 564.516 618.598ZM572.935 622V617.8C572.935 616.764 573.621 615.924 574.755 615.924C575.777 615.924 576.435 616.596 576.435 617.744V622H577.387V617.814C577.387 616.764 578.059 615.91 579.193 615.91C580.229 615.91 580.873 616.596 580.873 617.758V622H581.811V617.562C581.811 615.994 580.845 615.042 579.375 615.042C578.283 615.042 577.457 615.602 577.149 616.484C576.827 615.602 576.029 615.042 574.965 615.042C574.013 615.042 573.257 615.476 572.921 616.19L572.809 615.224H571.969V622H572.935ZM586.596 622.168C588.192 622.168 589.242 621.398 589.606 619.97H588.682C588.43 620.866 587.716 621.342 586.61 621.342C585.154 621.342 584.286 620.39 584.216 618.738H589.606V618.262C589.606 616.344 588.36 615.042 586.526 615.042C584.594 615.042 583.278 616.498 583.278 618.612C583.278 620.74 584.608 622.168 586.596 622.168ZM586.526 615.868C587.8 615.868 588.64 616.736 588.64 618.038H584.244C584.412 616.708 585.252 615.868 586.526 615.868ZM594.693 615.14C594.455 615.084 594.273 615.07 594.063 615.07C593.111 615.07 592.397 615.546 592.131 616.274L592.061 615.224H591.151V622H592.117V618.136C592.117 616.848 592.915 616.008 594.161 616.008H594.693V615.14ZM540.691 638.242C540.691 639.978 541.727 641.168 543.533 641.168C545.227 641.168 546.403 640.076 546.403 638.256V630.976H545.395V638.228C545.395 639.418 544.807 640.216 543.533 640.216C542.315 640.216 541.671 639.432 541.671 638.242V637.85H540.691V638.242ZM548.08 637.612C548.08 639.67 549.536 641.168 551.524 641.168C553.512 641.168 554.968 639.67 554.968 637.612C554.968 635.54 553.512 634.042 551.524 634.042C549.536 634.042 548.08 635.54 548.08 637.612ZM549.06 637.598C549.06 636.03 550.068 634.91 551.524 634.91C552.966 634.91 553.988 636.03 553.988 637.598C553.988 639.194 552.966 640.3 551.524 640.3C550.068 640.3 549.06 639.194 549.06 637.598ZM561.109 634.224V637.822C561.109 639.432 560.339 640.3 559.037 640.3C557.959 640.3 557.245 639.726 557.245 638.116V634.21H556.265V638.424C556.265 640.076 557.133 641.168 558.729 641.168C559.793 641.168 560.731 640.636 561.109 639.852L561.235 641H562.075V634.224H561.109ZM567.629 634.14C567.391 634.084 567.209 634.07 566.999 634.07C566.047 634.07 565.333 634.546 565.067 635.274L564.997 634.224H564.087V641H565.053V637.136C565.053 635.848 565.851 635.008 567.097 635.008H567.629V634.14ZM569.879 641V637.458C569.879 635.932 570.663 634.924 572.049 634.924C573.169 634.924 573.883 635.484 573.883 637.066V641H574.849V636.856C574.849 635.148 574.079 634.042 572.217 634.042C571.237 634.042 570.341 634.532 569.893 635.4L569.753 634.224H568.913V641H569.879ZM579.617 641.168C581.213 641.168 582.263 640.398 582.627 638.97H581.703C581.451 639.866 580.737 640.342 579.631 640.342C578.175 640.342 577.307 639.39 577.237 637.738H582.627V637.262C582.627 635.344 581.381 634.042 579.547 634.042C577.615 634.042 576.299 635.498 576.299 637.612C576.299 639.74 577.629 641.168 579.617 641.168ZM579.547 634.868C580.821 634.868 581.661 635.736 581.661 637.038H577.265C577.433 635.708 578.273 634.868 579.547 634.868ZM583.321 643.954C583.629 644.024 583.937 644.052 584.343 644.052C585.309 644.052 585.967 643.618 586.359 642.554L589.467 634.224H588.473L586.331 640.132L584.147 634.224H583.125L585.869 641.406L585.575 642.204C585.239 643.114 584.651 643.156 584.063 643.156H583.321V643.954Z" fill="white"/>
<path d="M461.042 18.2413C465.468 10.5769 476.531 10.5769 480.958 18.2413L903.17 749.248C907.598 756.915 902.065 766.5 893.211 766.5H48.7887C39.9351 766.5 34.4023 756.915 38.8303 749.248L461.042 18.2413Z" stroke="white"/>
<line x1="138" y1="577.5" x2="804" y2="577.5" stroke="white"/>
<line opacity="0.3" x1="260.354" y1="366.646" x2="471.354" y2="577.646" stroke="white" stroke-dasharray="6 6"/>
<line opacity="0.3" y1="-0.5" x2="298.399" y2="-0.5" transform="matrix(-0.707107 0.707107 0.707107 0.707107 682 367)" stroke="white" stroke-dasharray="6 6"/>
<line x1="260" y1="366.5" x2="682" y2="366.5" stroke="white"/>
<line opacity="0.3" x1="300" y1="297.5" x2="642" y2="297.5" stroke="white" stroke-dasharray="6 6"/>
<line opacity="0.3" x1="331" y1="244.5" x2="611" y2="244.5" stroke="white" stroke-dasharray="6 6"/>
<line opacity="0.3" x1="83" y1="672.5" x2="859" y2="672.5" stroke="white" stroke-dasharray="6 6"/>
<line opacity="0.3" x1="281.5" y1="673" x2="281.5" y2="578" stroke="white" stroke-dasharray="6 6"/>
<line opacity="0.3" x1="661.5" y1="673" x2="661.5" y2="578" stroke="white" stroke-dasharray="6 6"/>
<line opacity="0.3" x1="766.5" y1="768" x2="766.5" y2="673" stroke="white" stroke-dasharray="6 6"/>
<line opacity="0.3" x1="569.5" y1="768" x2="569.5" y2="673" stroke="white" stroke-dasharray="6 6"/>
<line opacity="0.3" x1="372.5" y1="768" x2="372.5" y2="673" stroke="white" stroke-dasharray="6 6"/>
<line opacity="0.3" x1="175.5" y1="768" x2="175.5" y2="673" stroke="white" stroke-dasharray="6 6"/>
<line opacity="0.3" x1="471.5" y1="673" x2="471.5" y2="578" stroke="white" stroke-dasharray="6 6"/>
<line opacity="0.3" x1="361" y1="191.5" x2="581" y2="191.5" stroke="white" stroke-dasharray="6 6"/>
<line opacity="0.3" x1="470.5" y1="298" x2="470.5" y2="192" stroke="white" stroke-dasharray="6 6"/>
</svg>
