<svg width="547" height="296" viewBox="0 0 547 296" fill="none" xmlns="http://www.w3.org/2000/svg">
<path d="M358.126 17H360.142L362.686 8.488L365.182 17H367.166L370.718 5.304H368.638L366.75 11.496C366.574 12.088 366.414 12.712 366.19 13.8C365.998 12.808 365.822 12.136 365.63 11.48L363.822 5.304H361.566L359.726 11.48C359.518 12.152 359.342 12.76 359.15 13.8C358.974 12.776 358.798 12.12 358.622 11.48L356.766 5.304H354.638L358.126 17ZM374.364 17.208C376.428 17.208 377.868 16.168 378.204 14.44H376.396C376.172 15.192 375.468 15.608 374.396 15.608C373.1 15.608 372.364 14.904 372.22 13.512L378.172 13.496V12.904C378.172 10.44 376.668 8.856 374.3 8.856C371.98 8.856 370.364 10.568 370.364 13.048C370.364 15.496 372.012 17.208 374.364 17.208ZM374.316 10.456C375.484 10.456 376.236 11.176 376.236 12.264H372.268C372.46 11.08 373.164 10.456 374.316 10.456ZM381.543 17L381.671 15.768C382.135 16.68 383.143 17.208 384.327 17.208C386.599 17.208 388.087 15.528 388.087 13.096C388.087 10.6 386.711 8.84 384.455 8.84C383.255 8.84 382.199 9.368 381.687 10.248V5.096H379.735V17H381.543ZM381.703 13.016C381.703 11.592 382.583 10.6 383.927 10.6C385.303 10.6 386.119 11.608 386.119 13.016C386.119 14.424 385.303 15.416 383.927 15.416C382.583 15.416 381.703 14.44 381.703 13.016ZM391.449 17L391.577 15.768C392.041 16.68 393.049 17.208 394.233 17.208C396.505 17.208 397.993 15.528 397.993 13.096C397.993 10.6 396.617 8.84 394.361 8.84C393.161 8.84 392.105 9.368 391.593 10.248V5.096H389.641V17H391.449ZM391.609 13.016C391.609 11.592 392.489 10.6 393.833 10.6C395.209 10.6 396.025 11.608 396.025 13.016C396.025 14.424 395.209 15.416 393.833 15.416C392.489 15.416 391.609 14.44 391.609 13.016ZM403.083 17.208C405.147 17.208 406.587 16.168 406.923 14.44H405.115C404.891 15.192 404.187 15.608 403.115 15.608C401.819 15.608 401.083 14.904 400.939 13.512L406.891 13.496V12.904C406.891 10.44 405.387 8.856 403.019 8.856C400.699 8.856 399.083 10.568 399.083 13.048C399.083 15.496 400.731 17.208 403.083 17.208ZM403.035 10.456C404.203 10.456 404.955 11.176 404.955 12.264H400.987C401.179 11.08 401.883 10.456 403.035 10.456ZM411.701 17.208C412.901 17.208 413.925 16.68 414.405 15.768L414.533 17H416.325V5.096H414.389V10.104C413.893 9.32 412.917 8.856 411.813 8.856C409.429 8.856 407.989 10.616 407.989 13.08C407.989 15.528 409.413 17.208 411.701 17.208ZM412.133 15.416C410.773 15.416 409.941 14.424 409.941 13.016C409.941 11.608 410.773 10.6 412.133 10.6C413.493 10.6 414.373 11.592 414.373 13.016C414.373 14.44 413.493 15.416 412.133 15.416ZM425.392 17H427.408L429.952 8.488L432.448 17H434.432L437.984 5.304H435.904L434.016 11.496C433.84 12.088 433.68 12.712 433.456 13.8C433.264 12.808 433.088 12.136 432.896 11.48L431.088 5.304H428.832L426.992 11.48C426.784 12.152 426.608 12.76 426.416 13.8C426.24 12.776 426.064 12.12 425.888 11.48L424.032 5.304H421.904L425.392 17ZM441.63 17.208C443.694 17.208 445.134 16.168 445.47 14.44H443.662C443.438 15.192 442.734 15.608 441.662 15.608C440.366 15.608 439.63 14.904 439.486 13.512L445.438 13.496V12.904C445.438 10.44 443.934 8.856 441.566 8.856C439.246 8.856 437.63 10.568 437.63 13.048C437.63 15.496 439.278 17.208 441.63 17.208ZM441.582 10.456C442.75 10.456 443.502 11.176 443.502 12.264H439.534C439.726 11.08 440.43 10.456 441.582 10.456ZM448.808 17L448.936 15.768C449.4 16.68 450.408 17.208 451.592 17.208C453.864 17.208 455.352 15.528 455.352 13.096C455.352 10.6 453.976 8.84 451.72 8.84C450.52 8.84 449.464 9.368 448.952 10.248V5.096H447V17H448.808ZM448.968 13.016C448.968 11.592 449.848 10.6 451.192 10.6C452.568 10.6 453.384 11.608 453.384 13.016C453.384 14.424 452.568 15.416 451.192 15.416C449.848 15.416 448.968 14.44 448.968 13.016ZM460.835 8.568C460.835 10.36 461.875 11.496 463.859 11.928L465.715 12.344C466.675 12.552 467.075 13.016 467.075 13.8C467.075 14.776 466.211 15.368 464.851 15.368C463.539 15.368 462.739 14.776 462.723 13.784H460.675C460.723 15.88 462.355 17.208 464.851 17.208C467.427 17.208 469.123 15.8 469.123 13.624C469.123 11.88 468.147 10.856 466.147 10.424L464.307 10.024C463.331 9.8 462.883 9.336 462.883 8.504C462.883 7.528 463.699 6.92 464.963 6.92C466.115 6.92 466.835 7.512 466.883 8.52H468.931C468.867 6.408 467.363 5.096 464.995 5.096C462.531 5.096 460.835 6.52 460.835 8.568ZM471.664 7.512C472.304 7.512 472.832 6.984 472.832 6.328C472.832 5.672 472.304 5.16 471.664 5.16C470.992 5.16 470.464 5.672 470.464 6.328C470.464 6.984 470.992 7.512 471.664 7.512ZM470.688 17H472.64V9.096H470.688V17ZM477.344 17V10.728H478.88V9.096H477.344V6.632H475.392V9.096H473.872V10.728H475.392V17H477.344ZM483.552 17.208C485.616 17.208 487.056 16.168 487.392 14.44H485.584C485.36 15.192 484.656 15.608 483.584 15.608C482.288 15.608 481.552 14.904 481.408 13.512L487.36 13.496V12.904C487.36 10.44 485.856 8.856 483.488 8.856C481.168 8.856 479.552 10.568 479.552 13.048C479.552 15.496 481.2 17.208 483.552 17.208ZM483.504 10.456C484.672 10.456 485.424 11.176 485.424 12.264H481.456C481.648 11.08 482.352 10.456 483.504 10.456ZM495.571 5.304H493.523V17H500.467V15.112H495.571V5.304ZM504.196 17.208C505.428 17.208 506.5 16.648 506.836 15.832L506.98 17H508.692V12.2C508.692 10.008 507.38 8.856 505.252 8.856C503.108 8.856 501.7 9.976 501.7 11.688H503.364C503.364 10.856 504.004 10.376 505.156 10.376C506.148 10.376 506.788 10.808 506.788 11.88V12.056L504.42 12.232C502.548 12.376 501.492 13.288 501.492 14.744C501.492 16.232 502.516 17.208 504.196 17.208ZM504.836 15.736C503.956 15.736 503.476 15.384 503.476 14.664C503.476 14.024 503.94 13.624 505.156 13.512L506.804 13.384V13.8C506.804 15.016 506.036 15.736 504.836 15.736ZM509.703 20.664C510.135 20.776 510.615 20.84 511.159 20.84C512.455 20.84 513.287 20.232 513.879 18.76L517.751 9.096H515.735L513.591 14.856L511.559 9.096H509.495L512.679 17.336L512.455 17.928C512.119 18.856 511.639 19.032 510.871 19.032H509.703V20.664ZM518.036 13.032C518.036 15.496 519.812 17.192 522.26 17.192C524.708 17.192 526.484 15.496 526.484 13.032C526.484 10.568 524.708 8.872 522.26 8.872C519.812 8.872 518.036 10.568 518.036 13.032ZM519.988 13.032C519.988 11.592 520.916 10.616 522.26 10.616C523.604 10.616 524.532 11.592 524.532 13.032C524.532 14.472 523.604 15.448 522.26 15.448C520.916 15.448 519.988 14.472 519.988 13.032ZM533.204 9.096V13.24C533.204 14.744 532.612 15.464 531.38 15.464C530.292 15.464 529.7 14.856 529.7 13.352V9.096H527.748V14.04C527.748 15.976 528.82 17.208 530.644 17.208C531.7 17.208 532.724 16.696 533.204 15.944L533.348 17H535.156V9.096H533.204ZM539.86 17V10.728H541.396V9.096H539.86V6.632H537.908V9.096H536.388V10.728H537.908V17H539.86Z" fill="white"/>
<rect x="349.5" y="162.5" width="37" height="67" rx="5.5" stroke="white"/>
<rect x="414.5" y="95.5" width="37" height="67" rx="5.5" stroke="white"/>
<rect x="414.5" y="228.5" width="37" height="67" rx="5.5" stroke="white"/>
<rect x="509.5" y="228.5" width="37" height="67" rx="5.5" stroke="white"/>
<rect x="509.5" y="136.5" width="37" height="67" rx="5.5" stroke="white"/>
<path d="M391 238.5C390.724 238.5 390.5 238.724 390.5 239L390.5 243.5C390.5 243.776 390.724 244 391 244C391.276 244 391.5 243.776 391.5 243.5L391.5 239.5L395.5 239.5C395.776 239.5 396 239.276 396 239C396 238.724 395.776 238.5 395.5 238.5L391 238.5ZM401.354 248.646L391.354 238.646L390.646 239.354L400.646 249.354L401.354 248.646Z" fill="white"/>
<path d="M460.5 224C460.5 224.276 460.724 224.5 461 224.5L465.5 224.5C465.776 224.5 466 224.276 466 224C466 223.724 465.776 223.5 465.5 223.5L461.5 223.5L461.5 219.5C461.5 219.224 461.276 219 461 219C460.724 219 460.5 219.224 460.5 219.5L460.5 224ZM497.646 186.646L460.646 223.646L461.354 224.354L498.354 187.354L497.646 186.646Z" fill="white"/>
<path d="M401 145.5C401.276 145.5 401.5 145.724 401.5 146L401.5 150.5C401.5 150.776 401.276 151 401 151C400.724 151 400.5 150.776 400.5 150.5L400.5 146.5L396.5 146.5C396.224 146.5 396 146.276 396 146C396 145.724 396.224 145.5 396.5 145.5L401 145.5ZM390.646 155.646L400.646 145.646L401.354 146.354L391.354 156.354L390.646 155.646Z" fill="white"/>
<path d="M527.646 122.354C527.842 122.549 528.158 122.549 528.354 122.354L531.536 119.172C531.731 118.976 531.731 118.66 531.536 118.464C531.34 118.269 531.024 118.269 530.828 118.464L528 121.293L525.172 118.464C524.976 118.269 524.66 118.269 524.464 118.464C524.269 118.66 524.269 118.976 524.464 119.172L527.646 122.354ZM527.5 85L527.5 122L528.5 122L528.5 85L527.5 85Z" fill="white"/>
<path d="M432.646 216.354C432.842 216.549 433.158 216.549 433.354 216.354L436.536 213.172C436.731 212.976 436.731 212.66 436.536 212.464C436.34 212.269 436.024 212.269 435.828 212.464L433 215.293L430.172 212.464C429.976 212.269 429.66 212.269 429.464 212.464C429.269 212.66 429.269 212.976 429.464 213.172L432.646 216.354ZM432.5 176L432.5 216L433.5 216L433.5 176L432.5 176Z" fill="white"/>
<path d="M527.646 221.354C527.842 221.549 528.158 221.549 528.354 221.354L531.536 218.172C531.731 217.976 531.731 217.66 531.536 217.464C531.34 217.269 531.024 217.269 530.828 217.464L528 220.293L525.172 217.464C524.976 217.269 524.66 217.269 524.464 217.464C524.269 217.66 524.269 217.976 524.464 218.172L527.646 221.354ZM527.5 211L527.5 221L528.5 221L528.5 211L527.5 211Z" fill="white"/>
<path d="M494.5 74C494.5 73.7239 494.276 73.5 494 73.5L489.5 73.5C489.224 73.5 489 73.7239 489 74C489 74.2761 489.224 74.5 489.5 74.5L493.5 74.5L493.5 78.5C493.5 78.7761 493.724 79 494 79C494.276 79 494.5 78.7761 494.5 78.5L494.5 74ZM460.354 108.354L494.354 74.3536L493.646 73.6464L459.646 107.646L460.354 108.354Z" fill="white"/>
<path d="M18.3831 17V12.04H23.5671V17H25.6151V5.304H23.5671V10.136H18.3831V5.304H16.3351V17H18.3831ZM28.8981 7.512C29.5381 7.512 30.0661 6.984 30.0661 6.328C30.0661 5.672 29.5381 5.16 28.8981 5.16C28.2261 5.16 27.6981 5.672 27.6981 6.328C27.6981 6.984 28.2261 7.512 28.8981 7.512ZM27.9221 17H29.8741V9.096H27.9221V17ZM35.4268 17.208C37.4908 17.208 38.9308 16.168 39.2668 14.44H37.4588C37.2348 15.192 36.5308 15.608 35.4588 15.608C34.1628 15.608 33.4268 14.904 33.2828 13.512L39.2348 13.496V12.904C39.2348 10.44 37.7308 8.856 35.3628 8.856C33.0428 8.856 31.4268 10.568 31.4268 13.048C31.4268 15.496 33.0748 17.208 35.4268 17.208ZM35.3788 10.456C36.5468 10.456 37.2988 11.176 37.2988 12.264H33.3308C33.5228 11.08 34.2268 10.456 35.3788 10.456ZM45.7571 9.064C45.4371 8.984 45.1651 8.952 44.8931 8.952C43.8371 8.952 43.0851 9.48 42.7491 10.264L42.6371 9.112H40.7971V17H42.7491V13.16C42.7491 11.624 43.6291 10.872 45.0371 10.872H45.7571V9.064ZM49.1178 17.208C50.3498 17.208 51.4218 16.648 51.7578 15.832L51.9018 17H53.6138V12.2C53.6138 10.008 52.3018 8.856 50.1738 8.856C48.0298 8.856 46.6218 9.976 46.6218 11.688H48.2858C48.2858 10.856 48.9258 10.376 50.0778 10.376C51.0698 10.376 51.7098 10.808 51.7098 11.88V12.056L49.3418 12.232C47.4698 12.376 46.4138 13.288 46.4138 14.744C46.4138 16.232 47.4378 17.208 49.1178 17.208ZM49.7578 15.736C48.8778 15.736 48.3978 15.384 48.3978 14.664C48.3978 14.024 48.8618 13.624 50.0778 13.512L51.7258 13.384V13.8C51.7258 15.016 50.9578 15.736 49.7578 15.736ZM60.4914 9.064C60.1714 8.984 59.8994 8.952 59.6274 8.952C58.5714 8.952 57.8194 9.48 57.4834 10.264L57.3714 9.112H55.5314V17H57.4834V13.16C57.4834 11.624 58.3634 10.872 59.7714 10.872H60.4914V9.064ZM61.0831 13.032C61.0831 15.544 62.6511 17.208 65.0511 17.208C67.1151 17.208 68.6511 15.944 68.8911 14.104H66.9231C66.7151 14.968 66.0271 15.448 65.0511 15.448C63.8031 15.448 63.0351 14.52 63.0351 13.032C63.0351 11.544 63.8671 10.6 65.1151 10.6C66.0431 10.6 66.6991 11.064 66.9231 11.96H68.8751C68.6671 10.056 67.1951 8.856 65.0351 8.856C62.6991 8.856 61.0831 10.584 61.0831 13.032ZM72.2959 17V12.68C72.2959 11.496 73.0159 10.632 74.2479 10.632C75.2399 10.632 75.8959 11.272 75.8959 12.6V17H77.8479V12.136C77.8479 10.088 76.8239 8.856 74.8719 8.856C73.7359 8.856 72.8079 9.352 72.3119 10.12V5.096H70.3439V17H72.2959ZM80.7418 7.512C81.3818 7.512 81.9098 6.984 81.9098 6.328C81.9098 5.672 81.3818 5.16 80.7418 5.16C80.0698 5.16 79.5418 5.672 79.5418 6.328C79.5418 6.984 80.0698 7.512 80.7418 7.512ZM79.7658 17H81.7178V9.096H79.7658V17ZM83.2706 13.032C83.2706 15.544 84.8386 17.208 87.2386 17.208C89.3026 17.208 90.8386 15.944 91.0786 14.104H89.1106C88.9026 14.968 88.2146 15.448 87.2386 15.448C85.9906 15.448 85.2226 14.52 85.2226 13.032C85.2226 11.544 86.0546 10.6 87.3026 10.6C88.2306 10.6 88.8866 11.064 89.1106 11.96H91.0626C90.8546 10.056 89.3826 8.856 87.2226 8.856C84.8866 8.856 83.2706 10.584 83.2706 13.032ZM94.8834 17.208C96.1154 17.208 97.1874 16.648 97.5234 15.832L97.6674 17H99.3794V12.2C99.3794 10.008 98.0674 8.856 95.9394 8.856C93.7954 8.856 92.3874 9.976 92.3874 11.688H94.0514C94.0514 10.856 94.6914 10.376 95.8434 10.376C96.8354 10.376 97.4754 10.808 97.4754 11.88V12.056L95.1074 12.232C93.2354 12.376 92.1794 13.288 92.1794 14.744C92.1794 16.232 93.2034 17.208 94.8834 17.208ZM95.5234 15.736C94.6434 15.736 94.1634 15.384 94.1634 14.664C94.1634 14.024 94.6274 13.624 95.8434 13.512L97.4914 13.384V13.8C97.4914 15.016 96.7234 15.736 95.5234 15.736ZM103.265 17V5.096H101.329V17H103.265ZM112.345 17H114.361L116.905 8.488L119.401 17H121.385L124.937 5.304H122.857L120.969 11.496C120.793 12.088 120.633 12.712 120.409 13.8C120.217 12.808 120.041 12.136 119.849 11.48L118.041 5.304H115.785L113.945 11.48C113.737 12.152 113.561 12.76 113.369 13.8C113.193 12.776 113.017 12.12 112.841 11.48L110.985 5.304H108.857L112.345 17ZM128.583 17.208C130.647 17.208 132.087 16.168 132.423 14.44H130.615C130.391 15.192 129.687 15.608 128.615 15.608C127.319 15.608 126.583 14.904 126.439 13.512L132.391 13.496V12.904C132.391 10.44 130.887 8.856 128.519 8.856C126.199 8.856 124.583 10.568 124.583 13.048C124.583 15.496 126.231 17.208 128.583 17.208ZM128.535 10.456C129.703 10.456 130.455 11.176 130.455 12.264H126.487C126.679 11.08 127.383 10.456 128.535 10.456ZM135.761 17L135.889 15.768C136.353 16.68 137.361 17.208 138.545 17.208C140.817 17.208 142.305 15.528 142.305 13.096C142.305 10.6 140.929 8.84 138.673 8.84C137.473 8.84 136.417 9.368 135.905 10.248V5.096H133.953V17H135.761ZM135.921 13.016C135.921 11.592 136.801 10.6 138.145 10.6C139.521 10.6 140.337 11.608 140.337 13.016C140.337 14.424 139.521 15.416 138.145 15.416C136.801 15.416 135.921 14.44 135.921 13.016ZM147.788 8.568C147.788 10.36 148.828 11.496 150.812 11.928L152.668 12.344C153.628 12.552 154.028 13.016 154.028 13.8C154.028 14.776 153.164 15.368 151.804 15.368C150.492 15.368 149.692 14.776 149.676 13.784H147.628C147.676 15.88 149.308 17.208 151.804 17.208C154.38 17.208 156.076 15.8 156.076 13.624C156.076 11.88 155.1 10.856 153.1 10.424L151.26 10.024C150.284 9.8 149.836 9.336 149.836 8.504C149.836 7.528 150.652 6.92 151.916 6.92C153.068 6.92 153.788 7.512 153.836 8.52H155.884C155.82 6.408 154.316 5.096 151.948 5.096C149.484 5.096 147.788 6.52 147.788 8.568ZM158.617 7.512C159.257 7.512 159.785 6.984 159.785 6.328C159.785 5.672 159.257 5.16 158.617 5.16C157.945 5.16 157.417 5.672 157.417 6.328C157.417 6.984 157.945 7.512 158.617 7.512ZM157.641 17H159.593V9.096H157.641V17ZM164.298 17V10.728H165.834V9.096H164.298V6.632H162.346V9.096H160.826V10.728H162.346V17H164.298ZM170.505 17.208C172.569 17.208 174.009 16.168 174.345 14.44H172.537C172.313 15.192 171.609 15.608 170.537 15.608C169.241 15.608 168.505 14.904 168.361 13.512L174.313 13.496V12.904C174.313 10.44 172.809 8.856 170.441 8.856C168.121 8.856 166.505 10.568 166.505 13.048C166.505 15.496 168.153 17.208 170.505 17.208ZM170.457 10.456C171.625 10.456 172.377 11.176 172.377 12.264H168.409C168.601 11.08 169.305 10.456 170.457 10.456ZM182.156 17V5.096H180.22V17H182.156ZM186.555 17.208C187.787 17.208 188.859 16.648 189.195 15.832L189.339 17H191.051V12.2C191.051 10.008 189.739 8.856 187.611 8.856C185.467 8.856 184.059 9.976 184.059 11.688H185.723C185.723 10.856 186.363 10.376 187.515 10.376C188.507 10.376 189.147 10.808 189.147 11.88V12.056L186.779 12.232C184.907 12.376 183.851 13.288 183.851 14.744C183.851 16.232 184.875 17.208 186.555 17.208ZM187.195 15.736C186.315 15.736 185.835 15.384 185.835 14.664C185.835 14.024 186.299 13.624 187.515 13.512L189.163 13.384V13.8C189.163 15.016 188.395 15.736 187.195 15.736ZM192.062 20.664C192.494 20.776 192.974 20.84 193.518 20.84C194.814 20.84 195.646 20.232 196.238 18.76L200.11 9.096H198.094L195.95 14.856L193.918 9.096H191.854L195.038 17.336L194.814 17.928C194.478 18.856 193.998 19.032 193.23 19.032H192.062V20.664ZM200.396 13.032C200.396 15.496 202.172 17.192 204.62 17.192C207.068 17.192 208.844 15.496 208.844 13.032C208.844 10.568 207.068 8.872 204.62 8.872C202.172 8.872 200.396 10.568 200.396 13.032ZM202.348 13.032C202.348 11.592 203.276 10.616 204.62 10.616C205.964 10.616 206.892 11.592 206.892 13.032C206.892 14.472 205.964 15.448 204.62 15.448C203.276 15.448 202.348 14.472 202.348 13.032ZM215.563 9.096V13.24C215.563 14.744 214.971 15.464 213.739 15.464C212.651 15.464 212.059 14.856 212.059 13.352V9.096H210.107V14.04C210.107 15.976 211.179 17.208 213.003 17.208C214.059 17.208 215.083 16.696 215.563 15.944L215.707 17H217.515V9.096H215.563ZM222.219 17V10.728H223.755V9.096H222.219V6.632H220.267V9.096H218.747V10.728H220.267V17H222.219Z" fill="white"/>
<rect x="0.5" y="112.5" width="37" height="67" rx="5.5" stroke="white"/>
<rect x="0.5" y="228.5" width="37" height="67" rx="5.5" stroke="white"/>
<rect x="135.5" y="228.5" width="37" height="67" rx="5.5" stroke="white"/>
<rect x="200.5" y="228.5" width="37" height="67" rx="5.5" stroke="white"/>
<rect x="84.5" y="112.5" width="37" height="67" rx="5.5" stroke="white"/>
<rect x="168.5" y="112.5" width="37" height="67" rx="5.5" stroke="white"/>
<path d="M18.6464 214.354C18.8417 214.549 19.1583 214.549 19.3536 214.354L22.5355 211.172C22.7308 210.976 22.7308 210.66 22.5355 210.464C22.3403 210.269 22.0237 210.269 21.8284 210.464L19 213.293L16.1716 210.464C15.9763 210.269 15.6597 210.269 15.4645 210.464C15.2692 210.66 15.2692 210.976 15.4645 211.172L18.6464 214.354ZM18.5 194L18.5 214L19.5 214L19.5 194L18.5 194Z" fill="white"/>
<path d="M18.6464 95.3536C18.8417 95.5488 19.1583 95.5488 19.3536 95.3536L22.5355 92.1716C22.7308 91.9763 22.7308 91.6597 22.5355 91.4645C22.3403 91.2692 22.0237 91.2692 21.8284 91.4645L19 94.2929L16.1716 91.4645C15.9763 91.2692 15.6597 91.2692 15.4645 91.4645C15.2692 91.6597 15.2692 91.9763 15.4645 92.1716L18.6464 95.3536ZM18.5 75L18.5 95L19.5 95L19.5 75L18.5 75Z" fill="white"/>
<path d="M102.646 95.3536C102.842 95.5488 103.158 95.5488 103.354 95.3536L106.536 92.1716C106.731 91.9763 106.731 91.6597 106.536 91.4645C106.34 91.2692 106.024 91.2692 105.828 91.4645L103 94.2929L100.172 91.4645C99.9763 91.2692 99.6597 91.2692 99.4645 91.4645C99.2692 91.6597 99.2692 91.9763 99.4645 92.1716L102.646 95.3536ZM102.5 75L102.5 95L103.5 95L103.5 75L102.5 75Z" fill="white"/>
<path d="M103 55L103 75" stroke="white"/>
<path d="M186.646 95.3536C186.842 95.5488 187.158 95.5488 187.354 95.3536L190.536 92.1716C190.731 91.9763 190.731 91.6597 190.536 91.4645C190.34 91.2692 190.024 91.2692 189.828 91.4645L187 94.2929L184.172 91.4645C183.976 91.2692 183.66 91.2692 183.464 91.4645C183.269 91.6597 183.269 91.9763 183.464 92.1716L186.646 95.3536ZM186.5 75L186.5 95L187.5 95L187.5 75L186.5 75Z" fill="white"/>
<path d="M153.5 214C153.5 214.276 153.724 214.5 154 214.5L158.5 214.5C158.776 214.5 159 214.276 159 214C159 213.724 158.776 213.5 158.5 213.5L154.5 213.5L154.5 209.5C154.5 209.224 154.276 209 154 209C153.724 209 153.5 209.224 153.5 209.5L153.5 214ZM177.646 189.646L153.646 213.646L154.354 214.354L178.354 190.354L177.646 189.646Z" fill="white"/>
<path d="M219.5 214C219.5 214.276 219.276 214.5 219 214.5L214.5 214.5C214.224 214.5 214 214.276 214 214C214 213.724 214.224 213.5 214.5 213.5L218.5 213.5L218.5 209.5C218.5 209.224 218.724 209 219 209C219.276 209 219.5 209.224 219.5 209.5L219.5 214ZM195.354 189.646L219.354 213.646L218.646 214.354L194.646 190.354L195.354 189.646Z" fill="white"/>
<line x1="187" y1="75.5" x2="19" y2="75.5" stroke="white"/>
</svg>
