<svg width="394" height="210" viewBox="0 0 394 210" fill="none" xmlns="http://www.w3.org/2000/svg">
<path d="M115.782 5.304H113.734V17H120.678V15.112H115.782V5.304ZM123.031 7.512C123.671 7.512 124.199 6.984 124.199 6.328C124.199 5.672 123.671 5.16 123.031 5.16C122.359 5.16 121.831 5.672 121.831 6.328C121.831 6.984 122.359 7.512 123.031 7.512ZM122.055 17H124.007V9.096H122.055V17ZM127.976 17V12.744C127.976 11.464 128.712 10.632 129.912 10.632C130.92 10.632 131.576 11.272 131.576 12.6V17H133.528V12.136C133.528 10.088 132.504 8.856 130.52 8.856C129.448 8.856 128.488 9.32 127.992 10.12L127.832 9.096H126.024V17H127.976ZM138.982 17.208C141.046 17.208 142.486 16.168 142.822 14.44H141.014C140.79 15.192 140.086 15.608 139.014 15.608C137.718 15.608 136.982 14.904 136.838 13.512L142.79 13.496V12.904C142.79 10.44 141.286 8.856 138.918 8.856C136.598 8.856 134.982 10.568 134.982 13.048C134.982 15.496 136.63 17.208 138.982 17.208ZM138.934 10.456C140.102 10.456 140.854 11.176 140.854 12.264H136.886C137.078 11.08 137.782 10.456 138.934 10.456ZM146.626 17.208C147.858 17.208 148.93 16.648 149.266 15.832L149.41 17H151.122V12.2C151.122 10.008 149.81 8.856 147.682 8.856C145.538 8.856 144.13 9.976 144.13 11.688H145.794C145.794 10.856 146.434 10.376 147.586 10.376C148.578 10.376 149.218 10.808 149.218 11.88V12.056L146.85 12.232C144.978 12.376 143.922 13.288 143.922 14.744C143.922 16.232 144.946 17.208 146.626 17.208ZM147.266 15.736C146.386 15.736 145.906 15.384 145.906 14.664C145.906 14.024 146.37 13.624 147.586 13.512L149.234 13.384V13.8C149.234 15.016 148.466 15.736 147.266 15.736ZM157.999 9.064C157.679 8.984 157.407 8.952 157.135 8.952C156.079 8.952 155.327 9.48 154.991 10.264L154.879 9.112H153.039V17H154.991V13.16C154.991 11.624 155.871 10.872 157.279 10.872H157.999V9.064ZM166.353 17H168.369L170.913 8.488L173.409 17H175.393L178.945 5.304H176.865L174.977 11.496C174.801 12.088 174.641 12.712 174.417 13.8C174.225 12.808 174.049 12.136 173.857 11.48L172.049 5.304H169.793L167.953 11.48C167.745 12.152 167.569 12.76 167.377 13.8C167.201 12.776 167.025 12.12 166.849 11.48L164.993 5.304H162.865L166.353 17ZM182.591 17.208C184.655 17.208 186.095 16.168 186.431 14.44H184.623C184.399 15.192 183.695 15.608 182.623 15.608C181.327 15.608 180.591 14.904 180.447 13.512L186.399 13.496V12.904C186.399 10.44 184.895 8.856 182.527 8.856C180.207 8.856 178.591 10.568 178.591 13.048C178.591 15.496 180.239 17.208 182.591 17.208ZM182.543 10.456C183.711 10.456 184.463 11.176 184.463 12.264H180.495C180.687 11.08 181.391 10.456 182.543 10.456ZM189.769 17L189.897 15.768C190.361 16.68 191.369 17.208 192.553 17.208C194.825 17.208 196.313 15.528 196.313 13.096C196.313 10.6 194.937 8.84 192.681 8.84C191.481 8.84 190.425 9.368 189.913 10.248V5.096H187.961V17H189.769ZM189.929 13.016C189.929 11.592 190.809 10.6 192.153 10.6C193.529 10.6 194.345 11.608 194.345 13.016C194.345 14.424 193.529 15.416 192.153 15.416C190.809 15.416 189.929 14.44 189.929 13.016ZM201.796 8.568C201.796 10.36 202.836 11.496 204.82 11.928L206.676 12.344C207.636 12.552 208.036 13.016 208.036 13.8C208.036 14.776 207.172 15.368 205.812 15.368C204.5 15.368 203.7 14.776 203.684 13.784H201.636C201.684 15.88 203.316 17.208 205.812 17.208C208.388 17.208 210.084 15.8 210.084 13.624C210.084 11.88 209.108 10.856 207.108 10.424L205.268 10.024C204.292 9.8 203.844 9.336 203.844 8.504C203.844 7.528 204.66 6.92 205.924 6.92C207.076 6.92 207.796 7.512 207.844 8.52H209.892C209.828 6.408 208.324 5.096 205.956 5.096C203.492 5.096 201.796 6.52 201.796 8.568ZM212.625 7.512C213.265 7.512 213.793 6.984 213.793 6.328C213.793 5.672 213.265 5.16 212.625 5.16C211.953 5.16 211.425 5.672 211.425 6.328C211.425 6.984 211.953 7.512 212.625 7.512ZM211.649 17H213.601V9.096H211.649V17ZM218.305 17V10.728H219.841V9.096H218.305V6.632H216.353V9.096H214.833V10.728H216.353V17H218.305ZM224.513 17.208C226.577 17.208 228.017 16.168 228.353 14.44H226.545C226.321 15.192 225.617 15.608 224.545 15.608C223.249 15.608 222.513 14.904 222.369 13.512L228.321 13.496V12.904C228.321 10.44 226.817 8.856 224.449 8.856C222.129 8.856 220.513 10.568 220.513 13.048C220.513 15.496 222.161 17.208 224.513 17.208ZM224.465 10.456C225.633 10.456 226.385 11.176 226.385 12.264H222.417C222.609 11.08 223.313 10.456 224.465 10.456ZM236.532 5.304H234.484V17H241.428V15.112H236.532V5.304ZM245.157 17.208C246.389 17.208 247.461 16.648 247.797 15.832L247.941 17H249.653V12.2C249.653 10.008 248.341 8.856 246.213 8.856C244.069 8.856 242.661 9.976 242.661 11.688H244.325C244.325 10.856 244.965 10.376 246.117 10.376C247.109 10.376 247.749 10.808 247.749 11.88V12.056L245.381 12.232C243.509 12.376 242.453 13.288 242.453 14.744C242.453 16.232 243.477 17.208 245.157 17.208ZM245.797 15.736C244.917 15.736 244.437 15.384 244.437 14.664C244.437 14.024 244.901 13.624 246.117 13.512L247.765 13.384V13.8C247.765 15.016 246.997 15.736 245.797 15.736ZM250.664 20.664C251.096 20.776 251.576 20.84 252.12 20.84C253.416 20.84 254.248 20.232 254.84 18.76L258.712 9.096H256.696L254.552 14.856L252.52 9.096H250.456L253.64 17.336L253.416 17.928C253.08 18.856 252.6 19.032 251.832 19.032H250.664V20.664ZM258.997 13.032C258.997 15.496 260.773 17.192 263.221 17.192C265.669 17.192 267.445 15.496 267.445 13.032C267.445 10.568 265.669 8.872 263.221 8.872C260.773 8.872 258.997 10.568 258.997 13.032ZM260.949 13.032C260.949 11.592 261.877 10.616 263.221 10.616C264.565 10.616 265.493 11.592 265.493 13.032C265.493 14.472 264.565 15.448 263.221 15.448C261.877 15.448 260.949 14.472 260.949 13.032ZM274.165 9.096V13.24C274.165 14.744 273.573 15.464 272.341 15.464C271.253 15.464 270.661 14.856 270.661 13.352V9.096H268.709V14.04C268.709 15.976 269.781 17.208 271.605 17.208C272.661 17.208 273.685 16.696 274.165 15.944L274.309 17H276.117V9.096H274.165ZM280.821 17V10.728H282.357V9.096H280.821V6.632H278.869V9.096H277.349V10.728H278.869V17H280.821Z" fill="white"/>
<rect x="0.5" y="67.5" width="79" height="142" rx="5.5" stroke="white"/>
<rect x="157.5" y="67.5" width="79" height="142" rx="5.5" stroke="white"/>
<rect x="314.5" y="67.5" width="79" height="142" rx="5.5" stroke="white"/>
<path d="M139.354 139.354C139.549 139.158 139.549 138.842 139.354 138.646L136.172 135.464C135.976 135.269 135.66 135.269 135.464 135.464C135.269 135.66 135.269 135.976 135.464 136.172L138.293 139L135.464 141.828C135.269 142.024 135.269 142.34 135.464 142.536C135.66 142.731 135.976 142.731 136.172 142.536L139.354 139.354ZM98 139.5H139V138.5H98V139.5Z" fill="white"/>
<path d="M296.354 139.354C296.549 139.158 296.549 138.842 296.354 138.646L293.172 135.464C292.976 135.269 292.66 135.269 292.464 135.464C292.269 135.66 292.269 135.976 292.464 136.172L295.293 139L292.464 141.828C292.269 142.024 292.269 142.34 292.464 142.536C292.66 142.731 292.976 142.731 293.172 142.536L296.354 139.354ZM255 139.5H296V138.5H255V139.5Z" fill="white"/>
</svg>
