<svg width="139" height="43" viewBox="0 0 139 43" fill="none" xmlns="http://www.w3.org/2000/svg">
<path d="M61.3359 17.8414L56.9991 5.81471H60.2852L63.8843 16.1649H62.3195L66.075 5.81471H69.0258L72.6696 16.1649H71.1048L74.8156 5.81471H77.9006L73.5414 17.8414H70.1659L66.9692 8.9667H67.9975L64.689 17.8414H61.3359Z" fill="white"/>
<path d="M82.4055 15.3824L82.4949 11.1351L88.1059 5.81471H92.2639L86.8764 11.2916L85.0657 12.767L82.4055 15.3824ZM79.5218 17.8414V1.25439H83.0091V17.8414H79.5218ZM88.4859 17.8414L84.4174 12.7893L86.6082 10.0844L92.7109 17.8414H88.4859Z" fill="white"/>
<path d="M101.388 18.0203C100.33 18.0203 99.4208 17.7967 98.6607 17.3496C97.9007 16.9026 97.3195 16.2245 96.9171 15.3154C96.5147 14.3914 96.3135 13.229 96.3135 11.8281C96.3135 10.4123 96.5222 9.24986 96.9394 8.34078C97.3716 7.43169 97.9677 6.7536 98.7278 6.30651C99.4879 5.85942 100.375 5.63588 101.388 5.63588C102.521 5.63588 103.534 5.88923 104.428 6.39593C105.337 6.90264 106.053 7.61798 106.574 8.54197C107.111 9.46595 107.379 10.5613 107.379 11.8281C107.379 13.0799 107.111 14.1679 106.574 15.0918C106.053 16.0158 105.337 16.7386 104.428 17.2602C103.534 17.7669 102.521 18.0203 101.388 18.0203ZM94.2793 17.8414V1.25439H97.7666V8.25136L97.543 11.8057L97.6101 15.3824V17.8414H94.2793ZM100.784 15.1589C101.366 15.1589 101.88 15.0248 102.327 14.7565C102.789 14.4883 103.154 14.1082 103.422 13.6164C103.705 13.1097 103.847 12.5136 103.847 11.8281C103.847 11.1276 103.705 10.5315 103.422 10.0397C103.154 9.54792 102.789 9.16789 102.327 8.89964C101.88 8.63138 101.366 8.49726 100.784 8.49726C100.203 8.49726 99.6816 8.63138 99.2196 8.89964C98.7576 9.16789 98.3925 9.54792 98.1242 10.0397C97.856 10.5315 97.7218 11.1276 97.7218 11.8281C97.7218 12.5136 97.856 13.1097 98.1242 13.6164C98.3925 14.1082 98.7576 14.4883 99.2196 14.7565C99.6816 15.0248 100.203 15.1589 100.784 15.1589Z" fill="white"/>
<path d="M110.901 18.0203C110.305 18.0203 109.791 17.8191 109.359 17.4167C108.942 16.9994 108.733 16.4704 108.733 15.8295C108.733 15.1887 108.942 14.6746 109.359 14.2871C109.791 13.8847 110.305 13.6835 110.901 13.6835C111.512 13.6835 112.027 13.8847 112.444 14.2871C112.861 14.6746 113.07 15.1887 113.07 15.8295C113.07 16.4704 112.861 16.9994 112.444 17.4167C112.027 17.8191 111.512 18.0203 110.901 18.0203Z" fill="white"/>
<path d="M70.0765 26.2263V36.554C70.0765 38.5511 69.5847 40.0264 68.6011 40.9802C67.6324 41.9489 66.1644 42.4333 64.1972 42.4333C63.1093 42.4333 62.0736 42.2694 61.09 41.9415C60.1213 41.6285 59.3314 41.1889 58.7204 40.6226L59.5251 39.4154C60.0915 39.9221 60.777 40.3171 61.5818 40.6002C62.4014 40.8834 63.2583 41.025 64.1525 41.025C65.6428 41.025 66.7382 40.6747 67.4386 39.9743C68.1391 39.2888 68.4893 38.2157 68.4893 36.7552V35.2575C67.9975 36.0026 67.3492 36.569 66.5445 36.9564C65.7546 37.3439 64.8753 37.5376 63.9066 37.5376C62.8038 37.5376 61.7979 37.2992 60.8888 36.8223C59.9946 36.3305 59.2867 35.6524 58.7651 34.788C58.2584 33.9088 58.005 32.9177 58.005 31.8149C58.005 30.7121 58.2584 29.7285 58.7651 28.8641C59.2867 27.9997 59.9946 27.3291 60.8888 26.8522C61.783 26.3753 62.7889 26.1368 63.9066 26.1368C64.9051 26.1368 65.8068 26.338 66.6115 26.7404C67.4163 27.1428 68.0646 27.724 68.5564 28.4841V26.2263H70.0765ZM64.0631 36.1293C64.9126 36.1293 65.6801 35.9505 66.3656 35.5928C67.0512 35.2202 67.5802 34.7061 67.9528 34.0503C68.3403 33.3946 68.534 32.6495 68.534 31.8149C68.534 30.9803 68.3403 30.2426 67.9528 29.6018C67.5802 28.9461 67.0512 28.4394 66.3656 28.0817C65.695 27.7091 64.9275 27.5228 64.0631 27.5228C63.2136 27.5228 62.4461 27.7017 61.7606 28.0593C61.09 28.417 60.5609 28.9237 60.1734 29.5794C59.8009 30.2352 59.6146 30.9803 59.6146 31.8149C59.6146 32.6495 59.8009 33.3946 60.1734 34.0503C60.5609 34.7061 61.09 35.2202 61.7606 35.5928C62.4461 35.9505 63.2136 36.1293 64.0631 36.1293Z" fill="white"/>
<path d="M77.7339 26.1368C79.269 26.1368 80.4463 26.5243 81.266 27.2993C82.0856 28.0593 82.4955 29.192 82.4955 30.6972V37.9847H80.9753V36.1517C80.6177 36.7627 80.0886 37.2396 79.3882 37.5824C78.7026 37.9251 77.883 38.0965 76.9292 38.0965C75.6177 38.0965 74.5745 37.7835 73.7995 37.1576C73.0246 36.5317 72.6371 35.7046 72.6371 34.6763C72.6371 33.6778 72.9948 32.873 73.7101 32.262C74.4404 31.651 75.5954 31.3454 77.1751 31.3454H80.9083V30.6301C80.9083 29.6167 80.6251 28.8492 80.0588 28.3276C79.4925 27.7911 78.6654 27.5228 77.5775 27.5228C76.8323 27.5228 76.117 27.6495 75.4314 27.9029C74.7459 28.1413 74.1572 28.4766 73.6654 28.9088L72.9501 27.724C73.5462 27.2173 74.2615 26.8298 75.0961 26.5616C75.9307 26.2784 76.81 26.1368 77.7339 26.1368ZM77.1751 36.8447C78.0693 36.8447 78.8368 36.6435 79.4776 36.2411C80.1184 35.8238 80.5953 35.2277 80.9083 34.4527V32.5302H77.2198C75.2079 32.5302 74.2019 33.2307 74.2019 34.6316C74.2019 35.3171 74.4627 35.8611 74.9843 36.2634C75.5059 36.6509 76.2362 36.8447 77.1751 36.8447Z" fill="white"/>
<path d="M100.577 26.1368C102.052 26.1368 103.207 26.5616 104.042 27.4111C104.891 28.2605 105.316 29.5124 105.316 31.1666V37.9847H103.729V31.3231C103.729 30.101 103.431 29.1696 102.835 28.5288C102.253 27.8879 101.426 27.5675 100.353 27.5675C99.1312 27.5675 98.1699 27.9476 97.4695 28.7076C96.769 29.4528 96.4188 30.4885 96.4188 31.8149V37.9847H94.8317V31.3231C94.8317 30.101 94.5336 29.1696 93.9375 28.5288C93.3563 27.8879 92.5217 27.5675 91.4338 27.5675C90.2266 27.5675 89.2654 27.9476 88.55 28.7076C87.8496 29.4528 87.4994 30.4885 87.4994 31.8149V37.9847H85.9122V26.2263H87.4323V28.3723C87.8496 27.657 88.4308 27.1055 89.176 26.7181C89.9211 26.3306 90.778 26.1368 91.7467 26.1368C92.7303 26.1368 93.5798 26.3455 94.2951 26.7628C95.0254 27.1801 95.5694 27.7985 95.927 28.6182C96.3592 27.8432 96.9777 27.2397 97.7824 26.8075C98.6021 26.3604 99.5336 26.1368 100.577 26.1368Z" fill="white"/>
<path d="M108.726 26.2263H110.313V37.9847H108.726V26.2263ZM109.531 23.6555C109.203 23.6555 108.927 23.5437 108.704 23.3202C108.48 23.0966 108.368 22.8284 108.368 22.5154C108.368 22.2174 108.48 21.9566 108.704 21.733C108.927 21.5095 109.203 21.3977 109.531 21.3977C109.859 21.3977 110.134 21.5095 110.358 21.733C110.581 21.9416 110.693 22.195 110.693 22.4931C110.693 22.8209 110.581 23.0966 110.358 23.3202C110.134 23.5437 109.859 23.6555 109.531 23.6555Z" fill="white"/>
<path d="M119.826 26.1368C121.302 26.1368 122.472 26.569 123.336 27.4334C124.215 28.2829 124.655 29.5273 124.655 31.1666V37.9847H123.068V31.3231C123.068 30.101 122.762 29.1696 122.151 28.5288C121.54 27.8879 120.668 27.5675 119.536 27.5675C118.269 27.5675 117.263 27.9476 116.518 28.7076C115.788 29.4528 115.422 30.4885 115.422 31.8149V37.9847H113.835V26.2263H115.355V28.3947C115.788 27.6793 116.384 27.1279 117.144 26.7404C117.919 26.338 118.813 26.1368 119.826 26.1368Z" fill="white"/>
<path d="M139 26.2263V36.554C139 38.5511 138.508 40.0264 137.525 40.9802C136.556 41.9489 135.088 42.4333 133.121 42.4333C132.033 42.4333 130.997 42.2694 130.013 41.9415C129.045 41.6285 128.255 41.1889 127.644 40.6226L128.449 39.4154C129.015 39.9221 129.7 40.3171 130.505 40.6002C131.325 40.8834 132.182 41.025 133.076 41.025C134.566 41.025 135.662 40.6747 136.362 39.9743C137.063 39.2888 137.413 38.2157 137.413 36.7552V35.2575C136.921 36.0026 136.273 36.569 135.468 36.9564C134.678 37.3439 133.799 37.5376 132.83 37.5376C131.727 37.5376 130.721 37.2992 129.812 36.8223C128.918 36.3305 128.21 35.6524 127.689 34.788C127.182 33.9088 126.929 32.9177 126.929 31.8149C126.929 30.7121 127.182 29.7285 127.689 28.8641C128.21 27.9997 128.918 27.3291 129.812 26.8522C130.706 26.3753 131.712 26.1368 132.83 26.1368C133.829 26.1368 134.73 26.338 135.535 26.7404C136.34 27.1428 136.988 27.724 137.48 28.4841V26.2263H139ZM132.987 36.1293C133.836 36.1293 134.604 35.9505 135.289 35.5928C135.975 35.2202 136.504 34.7061 136.876 34.0503C137.264 33.3946 137.458 32.6495 137.458 31.8149C137.458 30.9803 137.264 30.2426 136.876 29.6018C136.504 28.9461 135.975 28.4394 135.289 28.0817C134.618 27.7091 133.851 27.5228 132.987 27.5228C132.137 27.5228 131.37 27.7017 130.684 28.0593C130.013 28.417 129.484 28.9237 129.097 29.5794C128.724 30.2352 128.538 30.9803 128.538 31.8149C128.538 32.6495 128.724 33.3946 129.097 34.0503C129.484 34.7061 130.013 35.2202 130.684 35.5928C131.37 35.9505 132.137 36.1293 132.987 36.1293Z" fill="white"/>
<path d="M13.2254 23.2516C8.76026 20.1719 5.83479 16.1683 5.2189 10.7789C5.2189 10.7789 5.2189 10.7789 5.2189 10.9329V11.0869C5.98876 13.3966 7.22054 15.3984 9.22217 16.9382C10.4539 18.0161 11.8397 18.4781 13.3794 18.4781C13.6874 18.4781 13.9953 18.4781 14.3032 18.4781C14.7652 18.4781 15.2271 18.6321 15.535 19.094C16.1509 19.71 16.9208 20.1719 17.6906 20.6339C18.4605 21.0958 19.2303 21.2498 20.0002 21.0958C20.4621 21.0958 20.7701 20.9418 20.924 20.4799C20.924 20.4799 20.924 20.4799 21.078 20.3259C21.8479 20.0179 22.1558 19.71 22.0018 18.94C21.8479 18.3241 21.6939 17.7082 21.386 17.0922C21.078 16.6303 20.924 16.0143 20.924 15.5524C20.924 15.2444 20.924 14.9365 21.078 14.7825C21.232 14.0125 21.232 13.2426 21.386 12.6267C21.386 12.1647 21.386 11.8568 21.232 11.3948C20.7701 11.0869 20.6161 10.7789 20.4621 10.4709C20.3081 10.1629 20.3082 9.85498 20.3082 9.54701C20.4621 8.93108 20.4621 8.16116 20.3082 7.54522C20.1542 6.7753 19.5383 6.46733 18.7684 6.46733C18.3065 6.46733 17.6906 6.46733 17.2287 6.62131C16.7668 6.62131 16.4589 6.62131 16.1509 6.31335C15.535 5.69741 15.0731 5.08147 14.6112 4.31155C13.5334 2.30976 14.9191 0.76992 16.3049 0.153984C17.2287 0 18.1525 0 19.2303 0C21.078 0.153984 22.7717 0.76992 24.4654 1.38586C25.8511 1.84781 27.2369 2.30976 28.6226 2.61773C29.3925 2.77171 30.0084 2.77171 30.7782 2.9257C33.5497 3.38765 36.3212 3.8496 38.7848 4.92749C42.3261 6.46733 44.9437 9.08506 46.6373 12.4727C47.7151 14.6285 48.485 16.7843 48.793 19.248C49.2549 21.5578 49.4088 24.0215 49.2549 26.3313C49.2549 27.7171 49.1009 28.949 48.9469 30.3349C48.793 32.4906 48.331 34.6464 47.7152 36.6482C47.7152 36.8022 47.7151 36.8022 47.5612 36.8022C44.6357 36.8022 41.7102 36.8022 38.9388 36.8022H38.7848C38.9388 36.1863 39.0927 35.7243 39.4007 35.2623C39.8626 34.6464 40.6324 34.1845 41.2483 33.7225C41.5563 33.5685 42.0182 33.2606 42.4801 33.1066C42.4801 33.1066 42.4801 33.1066 42.4801 32.9526C41.5563 31.1048 40.4785 29.5649 38.9388 28.3331C38.0149 27.5631 36.9371 27.2552 35.8593 26.7932C34.4736 26.3313 32.9338 26.0233 31.3941 25.7153C29.0845 25.4074 26.621 25.2534 24.1574 25.2534C24.1574 25.2534 24.1574 25.2534 24.0035 25.2534C24.0035 25.0994 24.1574 25.0994 24.1574 25.0994C25.6972 23.5596 27.0829 21.7118 28.0067 19.8639C28.4687 19.094 28.7766 18.3241 28.9306 17.5542C29.2385 16.4763 29.0845 15.5524 28.9306 14.4745C28.7766 13.7046 28.4687 12.9347 28.0067 12.3187C28.0067 12.3187 28.0067 12.1647 27.8528 12.1647C28.0067 12.7807 28.0067 13.5506 28.1607 14.1665C28.1607 15.8604 27.6988 17.4002 26.9289 18.7861C25.3892 21.2498 23.5416 23.7135 21.6939 26.0233C18.7684 29.7189 15.843 33.2606 12.7635 36.6482C12.7635 36.6482 12.6096 36.8022 12.4556 36.8022C9.22217 36.8022 5.98876 36.8022 2.75535 36.8022C2.75535 36.8022 2.75535 36.8022 2.60138 36.8022C2.60138 36.3402 2.75535 35.7243 2.90932 35.2623C3.21727 34.8004 3.52521 34.4924 3.98713 34.1845C4.75699 33.7225 5.52685 33.4145 6.45068 33.4145C6.60465 33.4145 6.75862 33.4145 6.91259 33.4145C7.06657 33.4145 7.06656 33.2606 7.06656 33.2606C7.83642 31.8747 8.60628 30.4888 9.37614 29.103C10.4539 27.2552 11.5318 25.2534 12.6096 23.4056C13.0715 23.4056 13.2254 23.4056 13.2254 23.2516Z" fill="white"/>
<path d="M4.91069 13.0889C5.06466 13.7048 5.21863 14.1668 5.3726 14.6287C5.98849 16.7845 7.22027 18.6323 8.75999 20.3261C9.06793 20.6341 9.2219 20.9421 9.52985 21.096C9.68382 21.25 9.68382 21.25 9.52985 21.404C8.60601 22.7899 7.52821 24.1757 6.29643 25.4076C5.83452 25.8695 5.68055 26.3315 5.68055 26.7934C5.68055 27.5634 5.83452 28.3333 5.98849 29.1032C5.98849 29.5652 6.14246 30.1811 6.14246 30.643C6.14246 31.105 5.98849 31.413 5.52657 31.7209C4.60274 32.1829 3.67891 32.1829 2.90905 31.7209C1.52331 30.951 0.753445 29.8731 0.291529 28.4873C-0.170387 26.9474 -0.0164148 25.4076 0.291529 23.8678C0.599473 22.3279 1.06139 20.7881 1.67728 19.4022C1.98522 18.7863 2.44714 18.1703 2.75508 17.4004C3.217 16.6305 3.52494 15.8606 3.98685 15.2446C4.14083 14.4747 4.44877 13.8588 4.91069 13.0889Z" fill="white"/>
<path d="M23.2332 37.1102C23.3871 35.8783 24.003 34.9544 25.0808 34.4924C25.5427 34.3385 26.1586 34.1845 26.6205 34.0305C26.6205 34.0305 26.7745 34.0305 26.7745 33.8765C27.2364 32.4907 27.6983 31.1048 27.8523 29.7189C27.8523 29.103 27.8523 28.3331 27.8523 27.7171C27.8523 27.5632 27.8523 27.5632 27.8523 27.4092C30.6238 27.4092 33.3953 27.5632 36.0128 28.949C35.7049 29.7189 35.5509 30.3349 35.243 31.1048C34.4731 32.7986 33.3953 34.3385 32.3175 35.8783C32.0095 36.3403 31.7016 36.6482 31.3937 37.1102L31.2397 37.2642C28.4682 37.1102 25.8507 37.1102 23.2332 37.1102Z" fill="white"/>
<path d="M13.9958 8.00691C13.6879 8.00691 13.3799 8.1609 13.072 8.1609C11.9942 8.46887 11.2243 9.0848 10.9163 10.0087C10.7624 10.3167 10.6084 10.7786 10.6084 11.0866C10.3005 10.3167 9.99251 9.54675 9.83854 8.77683C9.68457 8.00691 9.99252 7.23699 10.7624 7.08301C11.0703 7.08301 11.3783 7.08301 11.6862 7.08301C11.9942 7.08301 12.4561 7.39098 12.764 7.39098C13.072 7.69894 13.5339 7.85293 13.9958 8.00691Z" fill="white"/>
<path d="M17.076 15.09C16.768 14.9361 16.614 14.6281 16.4601 14.4741C16.3061 14.3201 16.1521 14.3201 15.9981 14.3201C15.8442 14.3201 15.5362 14.1661 15.3823 14.1661C14.9203 14.0121 14.6124 13.2422 14.9203 12.9343C14.9203 12.7803 15.2283 12.7803 15.2283 12.7803C15.8442 12.9343 16.3061 13.2422 16.614 13.8582C17.076 14.1661 17.076 14.4741 17.076 15.09Z" fill="white"/>
</svg>
