<svg width="63" height="49" viewBox="0 0 63 49" fill="none" xmlns="http://www.w3.org/2000/svg">
<path d="M16.8743 30.0576C11.1772 26.0841 7.44457 20.9184 6.65876 13.9647C6.65876 13.9647 6.65876 13.9647 6.65876 14.1633V14.362C7.64102 17.3422 9.21264 19.925 11.7665 21.9118C13.3381 23.3026 15.1062 23.8986 17.0707 23.8986C17.4636 23.8986 17.8565 23.8986 18.2494 23.8986C18.8388 23.8986 19.4281 24.0973 19.821 24.6933C20.6068 25.488 21.5891 26.0841 22.5714 26.6801C23.5536 27.2761 24.5359 27.4748 25.5181 27.2761C26.1075 27.2761 26.5004 27.0775 26.6969 26.4814C26.6969 26.4814 26.6969 26.4814 26.8933 26.2828C27.8756 25.8854 28.2685 25.488 28.072 24.4946C27.8756 23.6999 27.6791 22.9052 27.2862 22.1105C26.8933 21.5145 26.6969 20.7197 26.6969 20.1237C26.6969 19.7264 26.6969 19.329 26.8933 19.1303C27.0898 18.1369 27.0898 17.1435 27.2862 16.3488C27.2862 15.7528 27.2862 15.3554 27.0898 14.7594C26.5004 14.362 26.304 13.9647 26.1075 13.5673C25.911 13.17 25.9111 12.7726 25.9111 12.3752C26.1075 11.5805 26.1075 10.5871 25.9111 9.79242C25.7146 8.79902 24.9288 8.40167 23.9465 8.40167C23.3572 8.40167 22.5714 8.40167 21.982 8.60035C21.3927 8.60035 20.9998 8.60034 20.6068 8.20299C19.821 7.40827 19.2317 6.61356 18.6423 5.62016C17.2672 3.03734 19.0352 1.05055 20.8033 0.255838C21.982 0.0571594 23.1607 0.0571594 24.5359 0.0571594C26.8933 0.255838 29.0543 1.05055 31.2152 1.84527C32.9833 2.4413 34.7514 3.03734 36.5195 3.4347C37.5017 3.63338 38.2875 3.63338 39.2698 3.83206C42.8059 4.42809 46.3421 5.02413 49.4853 6.41488C54.0037 8.40167 57.3434 11.7792 59.5043 16.1501C60.8795 18.9316 61.8618 21.7131 62.2547 24.892C62.844 27.8722 63.0405 31.051 62.844 34.0312C62.844 35.8193 62.6476 37.4088 62.4511 39.1969C62.2547 41.9784 61.6653 44.7599 60.8795 47.3427C60.8795 47.5414 60.8795 47.5414 60.683 47.5414C56.9505 47.5414 53.2179 47.5414 49.6817 47.5414H49.4853C49.6817 46.7467 49.8782 46.1506 50.2711 45.5546C50.8604 44.7599 51.8427 44.1638 52.6285 43.5678C53.0214 43.3691 53.6108 42.9718 54.2001 42.7731C54.2001 42.7731 54.2001 42.7731 54.2001 42.5744C53.0214 40.1903 51.6463 38.2035 49.6817 36.614C48.503 35.6207 47.1279 35.2233 45.7527 34.6273C43.9846 34.0312 42.0201 33.6339 40.0556 33.2365C37.1088 32.8392 33.9656 32.6405 30.8223 32.6405C30.8223 32.6405 30.8223 32.6405 30.6259 32.6405C30.6259 32.4418 30.8223 32.4418 30.8223 32.4418C32.7869 30.455 34.5549 28.0709 35.7336 25.6867C36.323 24.6933 36.7159 23.6999 36.9124 22.7065C37.3053 21.3158 37.1088 20.1237 36.9124 18.733C36.7159 17.7396 36.323 16.7462 35.7336 15.9515C35.7336 15.9515 35.7336 15.7528 35.5372 15.7528C35.7336 16.5475 35.7336 17.5409 35.9301 18.3356C35.9301 20.5211 35.3407 22.5079 34.3585 24.296C32.394 27.4748 30.0365 30.6537 27.6791 33.6339C23.9465 38.4022 20.2139 42.9718 16.2849 47.3427C16.2849 47.3427 16.0885 47.5414 15.892 47.5414C11.7665 47.5414 7.64102 47.5414 3.51553 47.5414C3.51553 47.5414 3.51553 47.5414 3.31908 47.5414C3.31908 46.9453 3.51553 46.1506 3.71198 45.5546C4.10489 44.9586 4.49779 44.5612 5.08714 44.1638C6.0694 43.5678 7.05166 43.1704 8.23037 43.1704C8.42683 43.1704 8.62328 43.1704 8.81973 43.1704C9.01618 43.1704 9.01618 42.9718 9.01618 42.9718C9.99844 41.1837 10.9807 39.3955 11.963 37.6074C13.3381 35.2233 14.7133 32.6405 16.0885 30.2563C16.6778 30.2563 16.8743 30.2563 16.8743 30.0576Z" fill="white"/>
<path d="M6.26552 16.9454C6.46197 17.7401 6.65842 18.3361 6.85488 18.9322C7.64068 21.7137 9.2123 24.0978 11.1768 26.2833C11.5697 26.6806 11.7662 27.078 12.1591 27.2767C12.3555 27.4753 12.3555 27.4753 12.1591 27.674C10.9804 29.4621 9.6052 31.2502 8.03358 32.8397C7.44423 33.4357 7.24778 34.0317 7.24778 34.6278C7.24778 35.6212 7.44423 36.6146 7.64068 37.608C7.64068 38.204 7.83714 38.9987 7.83714 39.5947C7.83714 40.1908 7.64068 40.5881 7.05133 40.9855C5.87261 41.5815 4.6939 41.5815 3.71164 40.9855C1.94358 39.9921 0.961316 38.6014 0.37196 36.8132C-0.217395 34.8265 -0.0209435 32.8397 0.37196 30.8529C0.764864 28.8661 1.35422 26.8793 2.14003 25.0912C2.53293 24.2965 3.12229 23.5018 3.51519 22.5084C4.10455 21.515 4.49745 20.5216 5.08681 19.7269C5.28326 18.7335 5.67616 17.9388 6.26552 16.9454Z" fill="white"/>
<path d="M29.643 47.9387C29.8395 46.3493 30.6253 45.1572 32.0005 44.5612C32.5898 44.3625 33.3756 44.1638 33.965 43.9652C33.965 43.9652 34.1614 43.9652 34.1614 43.7665C34.7508 41.9784 35.3401 40.1903 35.5366 38.4021C35.5366 37.6074 35.5366 36.614 35.5366 35.8193C35.5366 35.6206 35.5366 35.6206 35.5366 35.422C39.0727 35.422 42.6089 35.6206 45.9485 37.4088C45.5556 38.4021 45.3592 39.1969 44.9663 40.1903C43.984 42.3757 42.6089 44.3625 41.2337 46.3493C40.8408 46.9453 40.4479 47.3427 40.055 47.9387L39.8585 48.1374C36.3224 47.9387 32.9827 47.9387 29.643 47.9387Z" fill="white"/>
<path d="M17.8571 10.3883C17.4642 10.3883 17.0713 10.587 16.6784 10.587C15.3032 10.9843 14.321 11.779 13.9281 12.9711C13.7316 13.3685 13.5352 13.9645 13.5352 14.3618C13.1423 13.3685 12.7493 12.3751 12.5529 11.3817C12.3564 10.3883 12.7494 9.39488 13.7316 9.1962C14.1245 9.1962 14.5174 9.1962 14.9103 9.1962C15.3032 9.1962 15.8926 9.59356 16.2855 9.59356C16.6784 9.99091 17.2678 10.1896 17.8571 10.3883Z" fill="white"/>
<path d="M21.7871 19.5271C21.3942 19.3284 21.1978 18.9311 21.0013 18.7324C20.8049 18.5337 20.6084 18.5337 20.4119 18.5337C20.2155 18.5337 19.8226 18.335 19.6261 18.335C19.0368 18.1363 18.6439 17.1429 19.0368 16.7456C19.0368 16.5469 19.4297 16.5469 19.4297 16.5469C20.2155 16.7456 20.8049 17.1429 21.1978 17.9377C21.7871 18.335 21.7871 18.7324 21.7871 19.5271Z" fill="white"/>
</svg>
