<svg width="960" height="810" viewBox="0 0 960 810" fill="none" xmlns="http://www.w3.org/2000/svg">
<path d="M378.612 280.66C378.612 284.1 380.852 286.24 384.392 286.24C387.952 286.24 390.192 284.08 390.192 280.66V271.38H387.632V280.5C387.632 282.58 386.472 283.76 384.392 283.76C382.312 283.76 381.172 282.6 381.172 280.5V271.38H378.612V280.66ZM397.021 278.7L392.061 286H395.061L398.621 280.66C399.201 281.72 399.721 282.6 400.361 283.58L402.001 286H405.021L400.221 278.68L405.001 271.38H402.021L398.621 276.74C398.081 275.74 397.581 274.9 396.981 274L395.201 271.38H392.161L397.021 278.7ZM417.605 286C421.845 286 424.765 283.02 424.765 278.72C424.765 274.36 421.785 271.38 417.465 271.38H412.345V286H417.605ZM417.225 273.74C420.245 273.74 422.065 275.62 422.065 278.72C422.065 281.76 420.285 283.64 417.365 283.64H414.905V273.74H417.225ZM436.229 286V283.64H429.709V279.76H435.549V277.5H429.709V273.74H436.229V271.38H427.149V286H436.229ZM438.165 275.46C438.165 277.7 439.465 279.12 441.945 279.66L444.265 280.18C445.465 280.44 445.965 281.02 445.965 282C445.965 283.22 444.885 283.96 443.185 283.96C441.545 283.96 440.545 283.22 440.525 281.98H437.965C438.025 284.6 440.065 286.26 443.185 286.26C446.405 286.26 448.525 284.5 448.525 281.78C448.525 279.6 447.305 278.32 444.805 277.78L442.505 277.28C441.285 277 440.725 276.42 440.725 275.38C440.725 274.16 441.745 273.4 443.325 273.4C444.765 273.4 445.665 274.14 445.725 275.4H448.285C448.205 272.76 446.325 271.12 443.365 271.12C440.285 271.12 438.165 272.9 438.165 275.46ZM453.401 271.38H450.841V286H453.401V271.38ZM463.041 273.54C464.801 273.54 466.281 274.34 466.741 276.06H469.441C469.021 273.08 466.441 271.14 463.101 271.14C458.701 271.14 455.801 274.3 455.801 278.74C455.801 283.24 458.661 286.22 462.761 286.22C464.741 286.22 466.401 285.44 467.201 284.32L467.361 286H469.521V277.78H462.721V280.04H467.141V280.1C467.141 282.44 465.601 283.84 463.061 283.84C460.361 283.84 458.481 282.06 458.481 278.8C458.481 275.64 460.141 273.54 463.041 273.54ZM474.806 286V275.64L481.686 286H484.206V271.38H481.686V281.74L474.826 271.38H472.286V286H474.806ZM498.613 280.96C501.533 280.96 503.453 278.98 503.453 276.16C503.453 273.3 501.553 271.38 498.613 271.38H492.833V286H495.393V280.96H498.613ZM498.113 273.66C499.813 273.66 500.773 274.54 500.773 276.14C500.773 277.74 499.833 278.68 498.073 278.68H495.393V273.66H498.113ZM508.166 286V280.54H511.306L513.786 286H516.586L513.806 280C515.526 279.3 516.446 277.9 516.446 275.94C516.446 273.06 514.506 271.38 511.186 271.38H505.606V286H508.166ZM508.166 273.66H511.186C512.806 273.66 513.766 274.48 513.766 275.94C513.766 277.42 512.806 278.28 511.186 278.28H508.166V273.66ZM532.306 278.68C532.306 274.22 529.386 271.12 525.206 271.12C521.026 271.12 518.126 274.24 518.126 278.68C518.126 283.14 521.006 286.24 525.186 286.24C529.386 286.24 532.306 283.12 532.306 278.68ZM529.606 278.68C529.606 281.76 527.886 283.78 525.206 283.78C522.526 283.78 520.806 281.8 520.806 278.68C520.806 275.56 522.526 273.58 525.206 273.58C527.886 273.58 529.606 275.56 529.606 278.68ZM540.868 286.24C544.328 286.24 547.008 284.2 547.568 281.12H544.908C544.428 282.74 542.908 283.78 540.928 283.78C538.248 283.78 536.528 281.78 536.528 278.68C536.528 275.56 538.228 273.6 540.928 273.6C542.868 273.6 544.328 274.6 544.828 276.3H547.528C547.028 273.16 544.448 271.14 540.988 271.14C536.708 271.14 533.848 274.16 533.848 278.7C533.848 283.28 536.608 286.24 540.868 286.24ZM558.944 286V283.64H552.424V279.76H558.264V277.5H552.424V273.74H558.944V271.38H549.864V286H558.944ZM560.88 275.46C560.88 277.7 562.18 279.12 564.66 279.66L566.98 280.18C568.18 280.44 568.68 281.02 568.68 282C568.68 283.22 567.6 283.96 565.9 283.96C564.26 283.96 563.26 283.22 563.24 281.98H560.68C560.74 284.6 562.78 286.26 565.9 286.26C569.12 286.26 571.24 284.5 571.24 281.78C571.24 279.6 570.02 278.32 567.52 277.78L565.22 277.28C564 277 563.44 276.42 563.44 275.38C563.44 274.16 564.46 273.4 566.04 273.4C567.48 273.4 568.38 274.14 568.44 275.4H571C570.92 272.76 569.04 271.12 566.08 271.12C563 271.12 560.88 272.9 560.88 275.46ZM572.852 275.46C572.852 277.7 574.152 279.12 576.632 279.66L578.952 280.18C580.152 280.44 580.652 281.02 580.652 282C580.652 283.22 579.572 283.96 577.872 283.96C576.232 283.96 575.232 283.22 575.212 281.98H572.652C572.712 284.6 574.752 286.26 577.872 286.26C581.092 286.26 583.212 284.5 583.212 281.78C583.212 279.6 581.992 278.32 579.492 277.78L577.192 277.28C575.972 277 575.412 276.42 575.412 275.38C575.412 274.16 576.432 273.4 578.012 273.4C579.452 273.4 580.352 274.14 580.412 275.4H582.972C582.892 272.76 581.012 271.12 578.052 271.12C574.972 271.12 572.852 272.9 572.852 275.46Z" fill="white"/>
<path d="M382.018 556.66C382.018 560.1 384.258 562.24 387.798 562.24C391.358 562.24 393.598 560.08 393.598 556.66V547.38H391.038V556.5C391.038 558.58 389.878 559.76 387.798 559.76C385.718 559.76 384.578 558.6 384.578 556.5V547.38H382.018V556.66ZM399.307 547.38H396.747V562H399.307V547.38ZM413.198 562C417.438 562 420.358 559.02 420.358 554.72C420.358 550.36 417.378 547.38 413.058 547.38H407.938V562H413.198ZM412.818 549.74C415.838 549.74 417.658 551.62 417.658 554.72C417.658 557.76 415.878 559.64 412.958 559.64H410.498V549.74H412.818ZM431.823 562V559.64H425.303V555.76H431.143V553.5H425.303V549.74H431.823V547.38H422.743V562H431.823ZM433.759 551.46C433.759 553.7 435.059 555.12 437.539 555.66L439.859 556.18C441.059 556.44 441.559 557.02 441.559 558C441.559 559.22 440.479 559.96 438.779 559.96C437.139 559.96 436.139 559.22 436.119 557.98H433.559C433.619 560.6 435.659 562.26 438.779 562.26C441.999 562.26 444.119 560.5 444.119 557.78C444.119 555.6 442.899 554.32 440.399 553.78L438.099 553.28C436.879 553 436.319 552.42 436.319 551.38C436.319 550.16 437.339 549.4 438.919 549.4C440.359 549.4 441.259 550.14 441.319 551.4H443.879C443.799 548.76 441.919 547.12 438.959 547.12C435.879 547.12 433.759 548.9 433.759 551.46ZM448.994 547.38H446.434V562H448.994V547.38ZM458.635 549.54C460.395 549.54 461.875 550.34 462.335 552.06H465.035C464.615 549.08 462.035 547.14 458.695 547.14C454.295 547.14 451.395 550.3 451.395 554.74C451.395 559.24 454.255 562.22 458.355 562.22C460.335 562.22 461.995 561.44 462.795 560.32L462.955 562H465.115V553.78H458.315V556.04H462.735V556.1C462.735 558.44 461.195 559.84 458.655 559.84C455.955 559.84 454.075 558.06 454.075 554.8C454.075 551.64 455.735 549.54 458.635 549.54ZM470.4 562V551.64L477.28 562H479.8V547.38H477.28V557.74L470.42 547.38H467.88V562H470.4ZM494.207 556.96C497.127 556.96 499.047 554.98 499.047 552.16C499.047 549.3 497.147 547.38 494.207 547.38H488.427V562H490.987V556.96H494.207ZM493.707 549.66C495.407 549.66 496.367 550.54 496.367 552.14C496.367 553.74 495.427 554.68 493.667 554.68H490.987V549.66H493.707ZM503.76 562V556.54H506.9L509.38 562H512.18L509.4 556C511.12 555.3 512.04 553.9 512.04 551.94C512.04 549.06 510.1 547.38 506.78 547.38H501.2V562H503.76ZM503.76 549.66H506.78C508.4 549.66 509.36 550.48 509.36 551.94C509.36 553.42 508.4 554.28 506.78 554.28H503.76V549.66ZM527.899 554.68C527.899 550.22 524.979 547.12 520.799 547.12C516.619 547.12 513.719 550.24 513.719 554.68C513.719 559.14 516.599 562.24 520.779 562.24C524.979 562.24 527.899 559.12 527.899 554.68ZM525.199 554.68C525.199 557.76 523.479 559.78 520.799 559.78C518.119 559.78 516.399 557.8 516.399 554.68C516.399 551.56 518.119 549.58 520.799 549.58C523.479 549.58 525.199 551.56 525.199 554.68ZM536.462 562.24C539.922 562.24 542.602 560.2 543.162 557.12H540.502C540.022 558.74 538.502 559.78 536.522 559.78C533.842 559.78 532.122 557.78 532.122 554.68C532.122 551.56 533.822 549.6 536.522 549.6C538.462 549.6 539.922 550.6 540.422 552.3H543.122C542.622 549.16 540.042 547.14 536.582 547.14C532.302 547.14 529.442 550.16 529.442 554.7C529.442 559.28 532.202 562.24 536.462 562.24ZM554.538 562V559.64H548.018V555.76H553.858V553.5H548.018V549.74H554.538V547.38H545.458V562H554.538ZM556.473 551.46C556.473 553.7 557.773 555.12 560.253 555.66L562.573 556.18C563.773 556.44 564.273 557.02 564.273 558C564.273 559.22 563.193 559.96 561.493 559.96C559.853 559.96 558.853 559.22 558.833 557.98H556.273C556.333 560.6 558.373 562.26 561.493 562.26C564.713 562.26 566.833 560.5 566.833 557.78C566.833 555.6 565.613 554.32 563.113 553.78L560.813 553.28C559.593 553 559.033 552.42 559.033 551.38C559.033 550.16 560.053 549.4 561.633 549.4C563.073 549.4 563.973 550.14 564.033 551.4H566.593C566.513 548.76 564.633 547.12 561.673 547.12C558.593 547.12 556.473 548.9 556.473 551.46ZM568.446 551.46C568.446 553.7 569.746 555.12 572.226 555.66L574.546 556.18C575.746 556.44 576.246 557.02 576.246 558C576.246 559.22 575.166 559.96 573.466 559.96C571.826 559.96 570.826 559.22 570.806 557.98H568.246C568.306 560.6 570.346 562.26 573.466 562.26C576.686 562.26 578.806 560.5 578.806 557.78C578.806 555.6 577.586 554.32 575.086 553.78L572.786 553.28C571.566 553 571.006 552.42 571.006 551.38C571.006 550.16 572.026 549.4 573.606 549.4C575.046 549.4 575.946 550.14 576.006 551.4H578.566C578.486 548.76 576.606 547.12 573.646 547.12C570.566 547.12 568.446 548.9 568.446 551.46Z" fill="white"/>
<line x1="960" y1="418.5" y2="418.5" stroke="white"/>
<path opacity="0.2" d="M152.769 327.06C176.572 258.699 221.187 199.51 280.349 157.801C339.511 116.093 410.249 93.9599 482.633 94.51C555.017 95.0601 625.411 118.266 683.933 160.868C742.454 203.471 786.163 263.332 808.925 332.046" stroke="white" stroke-dasharray="10 10"/>
<path opacity="0.2" d="M152.769 537.94C176.572 606.301 221.187 665.49 280.349 707.199C339.511 748.907 410.249 771.04 482.633 770.49C555.017 769.94 625.411 746.734 683.933 704.132C742.454 661.529 786.163 601.668 808.925 532.954" stroke="white" stroke-dasharray="10 10"/>
<path d="M122.431 271L123.551 267.96H128.831L129.951 271H131.151L126.895 259.544H125.471L121.263 271H122.431ZM126.031 261.16C126.095 261 126.159 260.792 126.175 260.696C126.191 260.808 126.271 261 126.319 261.16L128.463 266.952H123.903L126.031 261.16ZM133.608 271V266.952C133.608 265.208 134.504 264.056 136.088 264.056C137.368 264.056 138.184 264.696 138.184 266.504V271H139.288V266.264C139.288 264.312 138.408 263.048 136.28 263.048C135.16 263.048 134.136 263.608 133.624 264.6L133.464 263.256H132.504V271H133.608ZM143.712 271.192C145.024 271.192 146.08 270.616 146.56 269.64L146.704 271H147.632V265.992C147.632 263.944 146.32 263.048 144.528 263.048C142.624 263.048 141.344 264.056 141.344 265.624H142.352C142.352 264.584 143.152 263.976 144.496 263.976C145.632 263.976 146.544 264.456 146.544 265.976V266.232L143.984 266.44C142.176 266.584 141.088 267.48 141.088 268.904C141.088 270.264 142.064 271.192 143.712 271.192ZM143.968 270.296C142.912 270.296 142.208 269.816 142.208 268.872C142.208 268.008 142.8 267.368 144.256 267.24L146.544 267.064V267.48C146.544 269.16 145.6 270.296 143.968 270.296ZM150.999 271V259.336H149.895V271H150.999ZM152.563 274.376C152.915 274.456 153.267 274.488 153.731 274.488C154.835 274.488 155.587 273.992 156.035 272.776L159.587 263.256H158.451L156.003 270.008L153.507 263.256H152.339L155.475 271.464L155.139 272.376C154.755 273.416 154.083 273.464 153.411 273.464H152.563V274.376ZM160.176 268.824C160.176 270.264 161.264 271.192 163.008 271.192C164.768 271.192 165.952 270.28 165.952 268.888C165.952 267.768 165.344 267.144 164 266.808L162.672 266.472C161.824 266.264 161.408 265.848 161.408 265.256C161.408 264.424 162.016 263.96 163.104 263.96C164.144 263.96 164.768 264.488 164.8 265.384H165.872C165.824 263.944 164.768 263.048 163.136 263.048C161.472 263.048 160.336 263.912 160.336 265.272C160.336 266.328 160.992 267.032 162.336 267.368L163.664 267.704C164.576 267.928 164.896 268.296 164.896 268.936C164.896 269.768 164.192 270.28 162.992 270.28C161.904 270.28 161.232 269.72 161.232 268.824H160.176ZM168.313 261.128C168.761 261.128 169.145 260.76 169.145 260.312C169.145 259.864 168.761 259.48 168.313 259.48C167.865 259.48 167.497 259.864 167.497 260.312C167.497 260.76 167.865 261.128 168.313 261.128ZM167.769 271H168.873V263.256H167.769V271ZM170.519 268.824C170.519 270.264 171.607 271.192 173.351 271.192C175.111 271.192 176.295 270.28 176.295 268.888C176.295 267.768 175.687 267.144 174.343 266.808L173.015 266.472C172.167 266.264 171.751 265.848 171.751 265.256C171.751 264.424 172.359 263.96 173.447 263.96C174.487 263.96 175.111 264.488 175.143 265.384H176.215C176.167 263.944 175.111 263.048 173.479 263.048C171.815 263.048 170.679 263.912 170.679 265.272C170.679 266.328 171.335 267.032 172.679 267.368L174.007 267.704C174.919 267.928 175.239 268.296 175.239 268.936C175.239 269.768 174.535 270.28 173.335 270.28C172.247 270.28 171.575 269.72 171.575 268.824H170.519Z" fill="white"/>
<path d="M89.2238 475C92.6638 475 94.9518 472.696 94.9518 469.272C94.9518 465.848 92.6478 463.544 89.1918 463.544H85.7358V475H89.2238ZM89.1438 464.6C91.9758 464.6 93.7678 466.408 93.7678 469.272C93.7678 472.12 91.9758 473.944 89.1758 473.944H86.8878V464.6H89.1438ZM100.041 475.192C101.865 475.192 103.065 474.312 103.481 472.68H102.425C102.137 473.704 101.321 474.248 100.057 474.248C98.3926 474.248 97.4006 473.16 97.3206 471.272H103.481V470.728C103.481 468.536 102.057 467.048 99.9606 467.048C97.7526 467.048 96.2486 468.712 96.2486 471.128C96.2486 473.56 97.7686 475.192 100.041 475.192ZM99.9606 467.992C101.417 467.992 102.377 468.984 102.377 470.472H97.3526C97.5446 468.952 98.5046 467.992 99.9606 467.992ZM104.59 472.824C104.59 474.264 105.678 475.192 107.422 475.192C109.182 475.192 110.366 474.28 110.366 472.888C110.366 471.768 109.758 471.144 108.414 470.808L107.086 470.472C106.238 470.264 105.822 469.848 105.822 469.256C105.822 468.424 106.43 467.96 107.518 467.96C108.558 467.96 109.182 468.488 109.214 469.384H110.286C110.238 467.944 109.182 467.048 107.55 467.048C105.886 467.048 104.75 467.912 104.75 469.272C104.75 470.328 105.406 471.032 106.75 471.368L108.078 471.704C108.99 471.928 109.31 472.296 109.31 472.936C109.31 473.768 108.606 474.28 107.406 474.28C106.318 474.28 105.646 473.72 105.646 472.824H104.59ZM112.727 465.128C113.175 465.128 113.559 464.76 113.559 464.312C113.559 463.864 113.175 463.48 112.727 463.48C112.279 463.48 111.911 463.864 111.911 464.312C111.911 464.76 112.279 465.128 112.727 465.128ZM112.183 475H113.287V467.256H112.183V475ZM115.062 470.904C115.062 473.016 116.406 474.76 118.614 474.76C119.942 474.76 121.014 474.12 121.542 473.032V474.872C121.542 476.488 120.486 477.56 118.902 477.56C117.51 477.56 116.549 476.824 116.31 475.576H115.206C115.51 477.448 116.902 478.568 118.886 478.568C121.158 478.568 122.63 477.064 122.63 474.76V467.256H121.67L121.558 468.808C121.062 467.672 120.038 467.048 118.694 467.048C116.422 467.048 115.062 468.792 115.062 470.904ZM116.166 470.888C116.166 469.32 117.126 468.024 118.79 468.024C120.486 468.024 121.446 469.24 121.446 470.888C121.446 472.552 120.454 473.768 118.774 473.768C117.142 473.768 116.166 472.472 116.166 470.888ZM126.037 475V470.952C126.037 469.208 126.933 468.056 128.517 468.056C129.797 468.056 130.613 468.696 130.613 470.504V475H131.717V470.264C131.717 468.312 130.837 467.048 128.709 467.048C127.589 467.048 126.565 467.608 126.053 468.6L125.893 467.256H124.933V475H126.037ZM139.747 475V470.248H143.091L145.427 475H146.707L144.259 470.056C145.731 469.656 146.595 468.504 146.595 466.856C146.595 464.824 145.187 463.544 142.867 463.544H138.595V475H139.747ZM139.747 464.584H142.867C144.435 464.584 145.411 465.4 145.411 466.888C145.411 468.344 144.483 469.208 142.899 469.208H139.747V464.584ZM151.275 475.192C153.099 475.192 154.299 474.312 154.715 472.68H153.659C153.371 473.704 152.555 474.248 151.291 474.248C149.627 474.248 148.635 473.16 148.555 471.272H154.715V470.728C154.715 468.536 153.291 467.048 151.195 467.048C148.987 467.048 147.483 468.712 147.483 471.128C147.483 473.56 149.003 475.192 151.275 475.192ZM151.195 467.992C152.651 467.992 153.611 468.984 153.611 470.472H148.587C148.779 468.952 149.739 467.992 151.195 467.992ZM155.616 467.256V468.184H156.8V475H157.904V468.184H159.728V467.256H157.904V465.752C157.904 464.84 158.16 464.344 159.136 464.344H159.792V463.4C159.536 463.352 159.216 463.336 158.944 463.336C157.76 463.336 156.8 464.008 156.8 465.752V467.256H155.616ZM164.244 475.192C166.068 475.192 167.268 474.312 167.684 472.68H166.628C166.34 473.704 165.524 474.248 164.26 474.248C162.596 474.248 161.604 473.16 161.524 471.272H167.684V470.728C167.684 468.536 166.26 467.048 164.164 467.048C161.956 467.048 160.452 468.712 160.452 471.128C160.452 473.56 161.972 475.192 164.244 475.192ZM164.164 467.992C165.62 467.992 166.58 468.984 166.58 470.472H161.556C161.748 468.952 162.708 467.992 164.164 467.992ZM173.497 467.16C173.225 467.096 173.017 467.08 172.777 467.08C171.689 467.08 170.873 467.624 170.569 468.456L170.489 467.256H169.449V475H170.553V470.584C170.553 469.112 171.465 468.152 172.889 468.152H173.497V467.16ZM177.916 475.192C179.74 475.192 180.94 474.312 181.356 472.68H180.3C180.012 473.704 179.196 474.248 177.932 474.248C176.268 474.248 175.276 473.16 175.196 471.272H181.356V470.728C181.356 468.536 179.932 467.048 177.836 467.048C175.628 467.048 174.124 468.712 174.124 471.128C174.124 473.56 175.644 475.192 177.916 475.192ZM177.836 467.992C179.292 467.992 180.252 468.984 180.252 470.472H175.228C175.42 468.952 176.38 467.992 177.836 467.992ZM184.225 475V470.952C184.225 469.208 185.121 468.056 186.705 468.056C187.985 468.056 188.801 468.696 188.801 470.504V475H189.905V470.264C189.905 468.312 189.025 467.048 186.897 467.048C185.777 467.048 184.753 467.608 184.241 468.6L184.081 467.256H183.121V475H184.225ZM191.561 471.144C191.561 473.576 193.049 475.192 195.241 475.192C197.001 475.192 198.377 474.152 198.745 472.568H197.625C197.321 473.56 196.393 474.2 195.241 474.2C193.673 474.2 192.649 472.968 192.649 471.128C192.649 469.224 193.753 468.024 195.321 468.024C196.393 468.024 197.321 468.616 197.609 469.688H198.713C198.409 468.088 197.097 467.048 195.305 467.048C193.049 467.048 191.561 468.712 191.561 471.144ZM203.666 475.192C205.49 475.192 206.69 474.312 207.106 472.68H206.05C205.762 473.704 204.946 474.248 203.682 474.248C202.018 474.248 201.026 473.16 200.946 471.272H207.106V470.728C207.106 468.536 205.682 467.048 203.586 467.048C201.378 467.048 199.874 468.712 199.874 471.128C199.874 473.56 201.394 475.192 203.666 475.192ZM203.586 467.992C205.042 467.992 206.002 468.984 206.002 470.472H200.978C201.17 468.952 202.13 467.992 203.586 467.992ZM208.215 472.824C208.215 474.264 209.303 475.192 211.047 475.192C212.807 475.192 213.991 474.28 213.991 472.888C213.991 471.768 213.383 471.144 212.039 470.808L210.711 470.472C209.863 470.264 209.447 469.848 209.447 469.256C209.447 468.424 210.055 467.96 211.143 467.96C212.183 467.96 212.807 468.488 212.839 469.384H213.911C213.863 467.944 212.807 467.048 211.175 467.048C209.511 467.048 208.375 467.912 208.375 469.272C208.375 470.328 209.031 471.032 210.375 471.368L211.703 471.704C212.615 471.928 212.935 472.296 212.935 472.936C212.935 473.768 212.231 474.28 211.031 474.28C209.943 474.28 209.271 473.72 209.271 472.824H208.215Z" fill="white"/>
<path d="M255.802 60.544H254.65V72H255.802V60.544ZM259.451 72V67.952C259.451 66.208 260.347 65.056 261.931 65.056C263.211 65.056 264.027 65.696 264.027 67.504V72H265.131V67.264C265.131 65.312 264.251 64.048 262.123 64.048C261.003 64.048 259.979 64.608 259.467 65.6L259.307 64.256H258.347V72H259.451ZM269.108 72V65.184H270.66V64.256H269.108V61.808H268.02V64.256H266.468V65.184H268.02V72H269.108ZM275.267 72.192C277.091 72.192 278.291 71.312 278.707 69.68H277.651C277.363 70.704 276.547 71.248 275.283 71.248C273.619 71.248 272.627 70.16 272.547 68.272H278.707V67.728C278.707 65.536 277.283 64.048 275.187 64.048C272.979 64.048 271.475 65.712 271.475 68.128C271.475 70.56 272.995 72.192 275.267 72.192ZM275.187 64.992C276.643 64.992 277.603 65.984 277.603 67.472H272.579C272.771 65.952 273.731 64.992 275.187 64.992ZM284.52 64.16C284.248 64.096 284.04 64.08 283.8 64.08C282.712 64.08 281.896 64.624 281.592 65.456L281.512 64.256H280.472V72H281.576V67.584C281.576 66.112 282.488 65.152 283.912 65.152H284.52V64.16ZM285.436 64.256V65.184H286.62V72H287.724V65.184H289.548V64.256H287.724V62.752C287.724 61.84 287.98 61.344 288.956 61.344H289.612V60.4C289.356 60.352 289.036 60.336 288.764 60.336C287.58 60.336 286.62 61.008 286.62 62.752V64.256H285.436ZM292.993 72.192C294.305 72.192 295.361 71.616 295.841 70.64L295.985 72H296.913V66.992C296.913 64.944 295.601 64.048 293.809 64.048C291.905 64.048 290.625 65.056 290.625 66.624H291.633C291.633 65.584 292.433 64.976 293.777 64.976C294.913 64.976 295.825 65.456 295.825 66.976V67.232L293.265 67.44C291.457 67.584 290.369 68.48 290.369 69.904C290.369 71.264 291.345 72.192 292.993 72.192ZM293.249 71.296C292.193 71.296 291.489 70.816 291.489 69.872C291.489 69.008 292.081 68.368 293.537 68.24L295.825 68.064V68.48C295.825 70.16 294.881 71.296 293.249 71.296ZM298.585 68.144C298.585 70.576 300.073 72.192 302.265 72.192C304.025 72.192 305.401 71.152 305.769 69.568H304.649C304.345 70.56 303.417 71.2 302.265 71.2C300.697 71.2 299.673 69.968 299.673 68.128C299.673 66.224 300.777 65.024 302.345 65.024C303.417 65.024 304.345 65.616 304.633 66.688H305.737C305.433 65.088 304.121 64.048 302.329 64.048C300.073 64.048 298.585 65.712 298.585 68.144ZM310.689 72.192C312.513 72.192 313.713 71.312 314.129 69.68H313.073C312.785 70.704 311.969 71.248 310.705 71.248C309.041 71.248 308.049 70.16 307.969 68.272H314.129V67.728C314.129 65.536 312.705 64.048 310.609 64.048C308.401 64.048 306.897 65.712 306.897 68.128C306.897 70.56 308.417 72.192 310.689 72.192ZM310.609 64.992C312.065 64.992 313.025 65.984 313.025 67.472H308.001C308.193 65.952 309.153 64.992 310.609 64.992ZM245.868 94.192C247.18 94.192 248.236 93.616 248.716 92.64L248.86 94H249.788V88.992C249.788 86.944 248.476 86.048 246.684 86.048C244.78 86.048 243.5 87.056 243.5 88.624H244.508C244.508 87.584 245.308 86.976 246.652 86.976C247.788 86.976 248.7 87.456 248.7 88.976V89.232L246.14 89.44C244.332 89.584 243.244 90.48 243.244 91.904C243.244 93.264 244.22 94.192 245.868 94.192ZM246.124 93.296C245.068 93.296 244.364 92.816 244.364 91.872C244.364 91.008 244.956 90.368 246.412 90.24L248.7 90.064V90.48C248.7 92.16 247.756 93.296 246.124 93.296ZM256.052 86.16C255.78 86.096 255.572 86.08 255.332 86.08C254.244 86.08 253.428 86.624 253.124 87.456L253.044 86.256H252.004V94H253.108V89.584C253.108 88.112 254.02 87.152 255.444 87.152H256.052V86.16ZM256.678 90.144C256.678 92.576 258.166 94.192 260.358 94.192C262.118 94.192 263.494 93.152 263.862 91.568H262.742C262.438 92.56 261.51 93.2 260.358 93.2C258.79 93.2 257.766 91.968 257.766 90.128C257.766 88.224 258.87 87.024 260.438 87.024C261.51 87.024 262.438 87.616 262.726 88.688H263.83C263.526 87.088 262.214 86.048 260.422 86.048C258.166 86.048 256.678 87.712 256.678 90.144ZM266.639 93.984V89.776C266.639 88.288 267.503 87.056 269.167 87.056C270.367 87.056 271.215 87.696 271.215 89.504V94H272.319V89.264C272.319 87.312 271.407 86.048 269.375 86.048C268.079 86.048 267.135 86.672 266.639 87.6V82.336H265.535V93.984H266.639ZM275.063 84.128C275.511 84.128 275.895 83.76 275.895 83.312C275.895 82.864 275.511 82.48 275.063 82.48C274.615 82.48 274.247 82.864 274.247 83.312C274.247 83.76 274.615 84.128 275.063 84.128ZM274.519 94H275.623V86.256H274.519V94ZM279.701 94V87.184H281.253V86.256H279.701V83.808H278.613V86.256H277.061V87.184H278.613V94H279.701ZM285.861 94.192C287.685 94.192 288.885 93.312 289.301 91.68H288.245C287.957 92.704 287.141 93.248 285.877 93.248C284.213 93.248 283.221 92.16 283.141 90.272H289.301V89.728C289.301 87.536 287.877 86.048 285.781 86.048C283.573 86.048 282.069 87.712 282.069 90.128C282.069 92.56 283.589 94.192 285.861 94.192ZM285.781 86.992C287.237 86.992 288.197 87.984 288.197 89.472H283.173C283.365 87.952 284.325 86.992 285.781 86.992ZM290.522 90.144C290.522 92.576 292.01 94.192 294.202 94.192C295.962 94.192 297.338 93.152 297.706 91.568H296.586C296.282 92.56 295.354 93.2 294.202 93.2C292.634 93.2 291.61 91.968 291.61 90.128C291.61 88.224 292.714 87.024 294.282 87.024C295.354 87.024 296.282 87.616 296.57 88.688H297.674C297.37 87.088 296.058 86.048 294.266 86.048C292.01 86.048 290.522 87.712 290.522 90.144ZM301.155 94V87.184H302.707V86.256H301.155V83.808H300.067V86.256H298.515V87.184H300.067V94H301.155ZM309.584 86.256V90.368C309.584 92.208 308.704 93.2 307.216 93.2C305.984 93.2 305.168 92.544 305.168 90.704V86.24H304.048V91.056C304.048 92.944 305.04 94.192 306.864 94.192C308.08 94.192 309.152 93.584 309.584 92.688L309.728 94H310.688V86.256H309.584ZM317.036 86.16C316.764 86.096 316.556 86.08 316.316 86.08C315.228 86.08 314.412 86.624 314.108 87.456L314.028 86.256H312.988V94H314.092V89.584C314.092 88.112 315.004 87.152 316.428 87.152H317.036V86.16ZM321.455 94.192C323.279 94.192 324.479 93.312 324.895 91.68H323.839C323.551 92.704 322.735 93.248 321.471 93.248C319.807 93.248 318.815 92.16 318.735 90.272H324.895V89.728C324.895 87.536 323.471 86.048 321.375 86.048C319.167 86.048 317.663 87.712 317.663 90.128C317.663 92.56 319.183 94.192 321.455 94.192ZM321.375 86.992C322.831 86.992 323.791 87.984 323.791 89.472H318.767C318.959 87.952 319.919 86.992 321.375 86.992Z" fill="white"/>
<path d="M262.387 641.44C264.067 641.44 265.411 642.24 265.891 643.808H267.139C266.691 641.728 264.819 640.352 262.403 640.352C259.123 640.352 256.883 642.816 256.883 646.32C256.883 649.856 259.123 652.192 262.371 652.192C264.227 652.192 265.667 651.328 266.275 650.192L266.387 652.016H267.299V645.808H262.067V646.832H266.211V647.424C266.211 650.176 264.339 651.104 262.419 651.104C259.843 651.104 258.083 649.296 258.083 646.32C258.083 643.392 259.747 641.44 262.387 641.44ZM273.395 644.16C273.123 644.096 272.915 644.08 272.675 644.08C271.587 644.08 270.771 644.624 270.467 645.456L270.387 644.256H269.347V652H270.451V647.584C270.451 646.112 271.363 645.152 272.787 645.152H273.395V644.16ZM276.774 652.192C278.086 652.192 279.142 651.616 279.622 650.64L279.766 652H280.694V646.992C280.694 644.944 279.382 644.048 277.59 644.048C275.686 644.048 274.406 645.056 274.406 646.624H275.414C275.414 645.584 276.214 644.976 277.558 644.976C278.694 644.976 279.606 645.456 279.606 646.976V647.232L277.046 647.44C275.238 647.584 274.15 648.48 274.15 649.904C274.15 651.264 275.126 652.192 276.774 652.192ZM277.03 651.296C275.974 651.296 275.27 650.816 275.27 649.872C275.27 649.008 275.862 648.368 277.318 648.24L279.606 648.064V648.48C279.606 650.16 278.662 651.296 277.03 651.296ZM282.91 655.376H284.014V650.512C284.558 651.632 285.598 652.192 286.91 652.192C289.198 652.192 290.494 650.432 290.494 648.096C290.494 645.76 289.15 644.048 286.91 644.048C285.614 644.048 284.526 644.624 283.982 645.824L283.87 644.256H282.91V655.376ZM284.03 648.128C284.03 646.336 285.022 645.056 286.718 645.056C288.398 645.056 289.374 646.336 289.374 648.128C289.374 649.904 288.398 651.2 286.718 651.2C285.022 651.2 284.03 649.904 284.03 648.128ZM293.358 651.984V647.776C293.358 646.288 294.222 645.056 295.886 645.056C297.086 645.056 297.934 645.696 297.934 647.504V652H299.038V647.264C299.038 645.312 298.126 644.048 296.094 644.048C294.798 644.048 293.854 644.672 293.358 645.6V640.336H292.254V651.984H293.358ZM301.782 642.128C302.23 642.128 302.614 641.76 302.614 641.312C302.614 640.864 302.23 640.48 301.782 640.48C301.334 640.48 300.966 640.864 300.966 641.312C300.966 641.76 301.334 642.128 301.782 642.128ZM301.238 652H302.342V644.256H301.238V652ZM304.1 648.144C304.1 650.576 305.588 652.192 307.78 652.192C309.54 652.192 310.916 651.152 311.284 649.568H310.164C309.86 650.56 308.932 651.2 307.78 651.2C306.212 651.2 305.188 649.968 305.188 648.128C305.188 646.224 306.292 645.024 307.86 645.024C308.932 645.024 309.86 645.616 310.148 646.688H311.252C310.948 645.088 309.636 644.048 307.844 644.048C305.588 644.048 304.1 645.712 304.1 648.144ZM255.802 662.544H254.65V674H255.802V662.544ZM259.451 674V669.952C259.451 668.208 260.347 667.056 261.931 667.056C263.211 667.056 264.027 667.696 264.027 669.504V674H265.131V669.264C265.131 667.312 264.251 666.048 262.123 666.048C261.003 666.048 259.979 666.608 259.467 667.6L259.307 666.256H258.347V674H259.451ZM269.108 674V667.184H270.66V666.256H269.108V663.808H268.02V666.256H266.468V667.184H268.02V674H269.108ZM275.267 674.192C277.091 674.192 278.291 673.312 278.707 671.68H277.651C277.363 672.704 276.547 673.248 275.283 673.248C273.619 673.248 272.627 672.16 272.547 670.272H278.707V669.728C278.707 667.536 277.283 666.048 275.187 666.048C272.979 666.048 271.475 667.712 271.475 670.128C271.475 672.56 272.995 674.192 275.267 674.192ZM275.187 666.992C276.643 666.992 277.603 667.984 277.603 669.472H272.579C272.771 667.952 273.731 666.992 275.187 666.992ZM284.52 666.16C284.248 666.096 284.04 666.08 283.8 666.08C282.712 666.08 281.896 666.624 281.592 667.456L281.512 666.256H280.472V674H281.576V669.584C281.576 668.112 282.488 667.152 283.912 667.152H284.52V666.16ZM285.436 666.256V667.184H286.62V674H287.724V667.184H289.548V666.256H287.724V664.752C287.724 663.84 287.98 663.344 288.956 663.344H289.612V662.4C289.356 662.352 289.036 662.336 288.764 662.336C287.58 662.336 286.62 663.008 286.62 664.752V666.256H285.436ZM292.993 674.192C294.305 674.192 295.361 673.616 295.841 672.64L295.985 674H296.913V668.992C296.913 666.944 295.601 666.048 293.809 666.048C291.905 666.048 290.625 667.056 290.625 668.624H291.633C291.633 667.584 292.433 666.976 293.777 666.976C294.913 666.976 295.825 667.456 295.825 668.976V669.232L293.265 669.44C291.457 669.584 290.369 670.48 290.369 671.904C290.369 673.264 291.345 674.192 292.993 674.192ZM293.249 673.296C292.193 673.296 291.489 672.816 291.489 671.872C291.489 671.008 292.081 670.368 293.537 670.24L295.825 670.064V670.48C295.825 672.16 294.881 673.296 293.249 673.296ZM298.585 670.144C298.585 672.576 300.073 674.192 302.265 674.192C304.025 674.192 305.401 673.152 305.769 671.568H304.649C304.345 672.56 303.417 673.2 302.265 673.2C300.697 673.2 299.673 671.968 299.673 670.128C299.673 668.224 300.777 667.024 302.345 667.024C303.417 667.024 304.345 667.616 304.633 668.688H305.737C305.433 667.088 304.121 666.048 302.329 666.048C300.073 666.048 298.585 667.712 298.585 670.144ZM310.689 674.192C312.513 674.192 313.713 673.312 314.129 671.68H313.073C312.785 672.704 311.969 673.248 310.705 673.248C309.041 673.248 308.049 672.16 307.969 670.272H314.129V669.728C314.129 667.536 312.705 666.048 310.609 666.048C308.401 666.048 306.897 667.712 306.897 670.128C306.897 672.56 308.417 674.192 310.689 674.192ZM310.609 666.992C312.065 666.992 313.025 667.984 313.025 669.472H308.001C308.193 667.952 309.153 666.992 310.609 666.992Z" fill="white"/>
<path d="M437.993 8.52C437.993 10.088 438.937 11.112 440.729 11.544L442.665 12.024C443.897 12.312 444.473 12.984 444.473 14.008C444.473 15.32 443.401 16.136 441.721 16.136C440.153 16.136 439.097 15.352 439.033 14.152H437.849C437.993 16.024 439.497 17.192 441.721 17.192C444.089 17.192 445.625 15.928 445.625 13.944C445.625 12.392 444.697 11.368 442.905 10.936L440.937 10.456C439.737 10.152 439.145 9.512 439.145 8.504C439.145 7.208 440.201 6.376 441.817 6.376C443.257 6.376 444.137 7.112 444.265 8.408H445.433C445.257 6.488 443.897 5.336 441.833 5.336C439.529 5.336 437.993 6.6 437.993 8.52ZM448.609 17V14.68L450.113 13.128L452.577 17H453.857L450.865 12.344L453.841 9.256H452.449L448.609 13.256V5.336H447.505V17H448.609ZM458.158 17.192C459.982 17.192 461.182 16.312 461.598 14.68H460.542C460.254 15.704 459.438 16.248 458.174 16.248C456.51 16.248 455.518 15.16 455.438 13.272H461.598V12.728C461.598 10.536 460.174 9.048 458.078 9.048C455.87 9.048 454.366 10.712 454.366 13.128C454.366 15.56 455.886 17.192 458.158 17.192ZM458.078 9.992C459.534 9.992 460.494 10.984 460.494 12.472H455.47C455.662 10.952 456.622 9.992 458.078 9.992ZM465.061 17V10.184H466.613V9.256H465.061V6.808H463.973V9.256H462.421V10.184H463.973V17H465.061ZM467.428 13.144C467.428 15.576 468.916 17.192 471.108 17.192C472.868 17.192 474.244 16.152 474.612 14.568H473.492C473.188 15.56 472.26 16.2 471.108 16.2C469.54 16.2 468.516 14.968 468.516 13.128C468.516 11.224 469.62 10.024 471.188 10.024C472.26 10.024 473.188 10.616 473.476 11.688H474.58C474.276 10.088 472.964 9.048 471.172 9.048C468.916 9.048 467.428 10.712 467.428 13.144ZM477.389 16.984V12.776C477.389 11.288 478.253 10.056 479.917 10.056C481.117 10.056 481.965 10.696 481.965 12.504V17H483.069V12.264C483.069 10.312 482.157 9.048 480.125 9.048C478.829 9.048 477.885 9.672 477.389 10.6V5.336H476.285V16.984H477.389ZM485.813 7.128C486.261 7.128 486.645 6.76 486.645 6.312C486.645 5.864 486.261 5.48 485.813 5.48C485.365 5.48 484.997 5.864 484.997 6.312C484.997 6.76 485.365 7.128 485.813 7.128ZM485.269 17H486.373V9.256H485.269V17ZM489.779 17V12.952C489.779 11.208 490.675 10.056 492.259 10.056C493.539 10.056 494.355 10.696 494.355 12.504V17H495.459V12.264C495.459 10.312 494.579 9.048 492.451 9.048C491.331 9.048 490.307 9.608 489.795 10.6L489.635 9.256H488.675V17H489.779ZM497.132 12.904C497.132 15.016 498.476 16.76 500.684 16.76C502.012 16.76 503.084 16.12 503.612 15.032V16.872C503.612 18.488 502.556 19.56 500.972 19.56C499.58 19.56 498.62 18.824 498.38 17.576H497.276C497.58 19.448 498.972 20.568 500.956 20.568C503.228 20.568 504.7 19.064 504.7 16.76V9.256H503.74L503.628 10.808C503.132 9.672 502.108 9.048 500.764 9.048C498.492 9.048 497.132 10.792 497.132 12.904ZM498.236 12.888C498.236 11.32 499.196 10.024 500.86 10.024C502.556 10.024 503.516 11.24 503.516 12.888C503.516 14.552 502.524 15.768 500.844 15.768C499.212 15.768 498.236 14.472 498.236 12.888ZM519.197 17H520.509L518.797 15.032C519.357 14.152 519.661 13.048 519.661 11.768H518.589C518.589 12.728 518.413 13.56 518.093 14.232L514.973 10.632C516.493 9.608 517.085 8.728 517.085 7.592C517.085 6.248 516.077 5.352 514.605 5.352C513.053 5.352 512.013 6.312 512.013 7.688C512.013 8.536 512.429 9.224 513.469 10.44C511.405 11.56 510.541 12.632 510.541 14.088C510.541 15.976 512.109 17.208 514.525 17.208C516.029 17.208 517.277 16.712 518.173 15.816L519.197 17ZM514.381 9.944C513.341 8.744 513.085 8.264 513.085 7.688C513.085 6.824 513.661 6.28 514.589 6.28C515.485 6.28 516.029 6.792 516.029 7.624C516.029 8.52 515.517 9.256 514.397 9.96L514.381 9.944ZM511.677 14.024C511.677 12.856 512.317 12.056 514.045 11.096L517.533 15.08C516.845 15.848 515.853 16.248 514.589 16.248C512.765 16.248 511.677 15.416 511.677 14.024ZM442.695 39H443.799L446.871 29.272L449.943 39H451.031L454.471 27.544H453.303L450.935 35.432C450.807 35.864 450.663 36.424 450.487 37.304C450.311 36.568 450.151 35.992 449.975 35.416L447.479 27.544H446.279L443.783 35.416C443.607 35.976 443.447 36.472 443.255 37.304C443.111 36.552 442.967 35.976 442.807 35.416L440.487 27.544H439.287L442.695 39ZM456.399 29.128C456.847 29.128 457.231 28.76 457.231 28.312C457.231 27.864 456.847 27.48 456.399 27.48C455.951 27.48 455.583 27.864 455.583 28.312C455.583 28.76 455.951 29.128 456.399 29.128ZM455.855 39H456.959V31.256H455.855V39ZM463.309 31.16C463.037 31.096 462.829 31.08 462.589 31.08C461.501 31.08 460.685 31.624 460.381 32.456L460.301 31.256H459.261V39H460.365V34.584C460.365 33.112 461.277 32.152 462.701 32.152H463.309V31.16ZM467.728 39.192C469.552 39.192 470.752 38.312 471.168 36.68H470.112C469.824 37.704 469.008 38.248 467.744 38.248C466.08 38.248 465.088 37.16 465.008 35.272H471.168V34.728C471.168 32.536 469.744 31.048 467.648 31.048C465.44 31.048 463.936 32.712 463.936 35.128C463.936 37.56 465.456 39.192 467.728 39.192ZM467.648 31.992C469.104 31.992 470.064 32.984 470.064 34.472H465.04C465.232 32.952 466.192 31.992 467.648 31.992ZM472.069 31.256V32.184H473.253V39H474.357V32.184H476.181V31.256H474.357V29.752C474.357 28.84 474.613 28.344 475.589 28.344H476.245V27.4C475.989 27.352 475.669 27.336 475.397 27.336C474.213 27.336 473.253 28.008 473.253 29.752V31.256H472.069ZM481.731 31.16C481.459 31.096 481.251 31.08 481.011 31.08C479.923 31.08 479.107 31.624 478.803 32.456L478.723 31.256H477.683V39H478.787V34.584C478.787 33.112 479.699 32.152 481.123 32.152H481.731V31.16ZM485.11 39.192C486.422 39.192 487.478 38.616 487.958 37.64L488.102 39H489.03V33.992C489.03 31.944 487.718 31.048 485.926 31.048C484.022 31.048 482.742 32.056 482.742 33.624H483.75C483.75 32.584 484.55 31.976 485.894 31.976C487.03 31.976 487.942 32.456 487.942 33.976V34.232L485.382 34.44C483.574 34.584 482.486 35.48 482.486 36.904C482.486 38.264 483.462 39.192 485.11 39.192ZM485.366 38.296C484.31 38.296 483.606 37.816 483.606 36.872C483.606 36.008 484.198 35.368 485.654 35.24L487.942 35.064V35.48C487.942 37.16 486.998 38.296 485.366 38.296ZM492.35 39V34.2C492.35 33.016 493.134 32.056 494.43 32.056C495.598 32.056 496.35 32.824 496.35 34.136V39H497.438V34.216C497.438 33.016 498.206 32.04 499.502 32.04C500.686 32.04 501.422 32.824 501.422 34.152V39H502.494V33.928C502.494 32.136 501.39 31.048 499.71 31.048C498.462 31.048 497.518 31.688 497.166 32.696C496.798 31.688 495.886 31.048 494.67 31.048C493.582 31.048 492.718 31.544 492.334 32.36L492.206 31.256H491.246V39H492.35ZM507.963 39.192C509.787 39.192 510.987 38.312 511.403 36.68H510.347C510.059 37.704 509.243 38.248 507.979 38.248C506.315 38.248 505.323 37.16 505.243 35.272H511.403V34.728C511.403 32.536 509.979 31.048 507.883 31.048C505.674 31.048 504.171 32.712 504.171 35.128C504.171 37.56 505.691 39.192 507.963 39.192ZM507.883 31.992C509.339 31.992 510.299 32.984 510.299 34.472H505.275C505.467 32.952 506.427 31.992 507.883 31.992ZM512.512 36.824C512.512 38.264 513.6 39.192 515.344 39.192C517.104 39.192 518.288 38.28 518.288 36.888C518.288 35.768 517.68 35.144 516.336 34.808L515.008 34.472C514.16 34.264 513.744 33.848 513.744 33.256C513.744 32.424 514.352 31.96 515.44 31.96C516.48 31.96 517.104 32.488 517.136 33.384H518.208C518.16 31.944 517.104 31.048 515.472 31.048C513.808 31.048 512.672 31.912 512.672 33.272C512.672 34.328 513.328 35.032 514.672 35.368L516 35.704C516.912 35.928 517.232 36.296 517.232 36.936C517.232 37.768 516.528 38.28 515.328 38.28C514.24 38.28 513.568 37.72 513.568 36.824H512.512Z" fill="white"/>
<path d="M409.665 707L410.785 703.96H416.065L417.185 707H418.385L414.129 695.544H412.705L408.497 707H409.665ZM413.265 697.16C413.329 697 413.393 696.792 413.409 696.696C413.425 696.808 413.505 697 413.553 697.16L415.697 702.952H411.137L413.265 697.16ZM420.842 707V702.952C420.842 701.208 421.738 700.056 423.322 700.056C424.602 700.056 425.418 700.696 425.418 702.504V707H426.522V702.264C426.522 700.312 425.642 699.048 423.514 699.048C422.394 699.048 421.37 699.608 420.858 700.6L420.698 699.256H419.738V707H420.842ZM429.266 697.128C429.714 697.128 430.098 696.76 430.098 696.312C430.098 695.864 429.714 695.48 429.266 695.48C428.818 695.48 428.45 695.864 428.45 696.312C428.45 696.76 428.818 697.128 429.266 697.128ZM428.722 707H429.826V699.256H428.722V707ZM433.233 707V702.2C433.233 701.016 434.017 700.056 435.313 700.056C436.481 700.056 437.233 700.824 437.233 702.136V707H438.321V702.216C438.321 701.016 439.089 700.04 440.385 700.04C441.569 700.04 442.305 700.824 442.305 702.152V707H443.377V701.928C443.377 700.136 442.273 699.048 440.593 699.048C439.345 699.048 438.401 699.688 438.049 700.696C437.681 699.688 436.769 699.048 435.553 699.048C434.465 699.048 433.601 699.544 433.217 700.36L433.089 699.256H432.129V707H433.233ZM447.821 707.192C449.133 707.192 450.189 706.616 450.669 705.64L450.813 707H451.741V701.992C451.741 699.944 450.429 699.048 448.637 699.048C446.733 699.048 445.453 700.056 445.453 701.624H446.461C446.461 700.584 447.261 699.976 448.605 699.976C449.741 699.976 450.653 700.456 450.653 701.976V702.232L448.093 702.44C446.285 702.584 445.197 703.48 445.197 704.904C445.197 706.264 446.173 707.192 447.821 707.192ZM448.077 706.296C447.021 706.296 446.317 705.816 446.317 704.872C446.317 704.008 446.909 703.368 448.365 703.24L450.653 703.064V703.48C450.653 705.16 449.709 706.296 448.077 706.296ZM455.592 707V700.184H457.144V699.256H455.592V696.808H454.504V699.256H452.952V700.184H454.504V707H455.592ZM459.126 697.128C459.574 697.128 459.958 696.76 459.958 696.312C459.958 695.864 459.574 695.48 459.126 695.48C458.678 695.48 458.31 695.864 458.31 696.312C458.31 696.76 458.678 697.128 459.126 697.128ZM458.582 707H459.686V699.256H458.582V707ZM461.444 703.128C461.444 705.48 463.108 707.192 465.38 707.192C467.652 707.192 469.316 705.48 469.316 703.128C469.316 700.76 467.652 699.048 465.38 699.048C463.108 699.048 461.444 700.76 461.444 703.128ZM462.564 703.112C462.564 701.32 463.716 700.04 465.38 700.04C467.028 700.04 468.196 701.32 468.196 703.112C468.196 704.936 467.028 706.2 465.38 706.2C463.716 706.2 462.564 704.936 462.564 703.112ZM472.186 707V702.952C472.186 701.208 473.082 700.056 474.666 700.056C475.946 700.056 476.762 700.696 476.762 702.504V707H477.866V702.264C477.866 700.312 476.986 699.048 474.858 699.048C473.738 699.048 472.714 699.608 472.202 700.6L472.042 699.256H471.082V707H472.186ZM484.504 710.376H485.608V705.512C486.152 706.632 487.192 707.192 488.504 707.192C490.792 707.192 492.088 705.432 492.088 703.096C492.088 700.76 490.744 699.048 488.504 699.048C487.208 699.048 486.12 699.624 485.576 700.824L485.464 699.256H484.504V710.376ZM485.624 703.128C485.624 701.336 486.616 700.056 488.312 700.056C489.992 700.056 490.968 701.336 490.968 703.128C490.968 704.904 489.992 706.2 488.312 706.2C486.616 706.2 485.624 704.904 485.624 703.128ZM497.895 699.16C497.623 699.096 497.415 699.08 497.175 699.08C496.087 699.08 495.271 699.624 494.967 700.456L494.887 699.256H493.847V707H494.951V702.584C494.951 701.112 495.863 700.152 497.287 700.152H497.895V699.16ZM498.522 703.128C498.522 705.48 500.186 707.192 502.458 707.192C504.73 707.192 506.394 705.48 506.394 703.128C506.394 700.76 504.73 699.048 502.458 699.048C500.186 699.048 498.522 700.76 498.522 703.128ZM499.642 703.112C499.642 701.32 500.794 700.04 502.458 700.04C504.106 700.04 505.274 701.32 505.274 703.112C505.274 704.936 504.106 706.2 502.458 706.2C500.794 706.2 499.642 704.936 499.642 703.112ZM509.858 707V700.184H511.41V699.256H509.858V696.808H508.77V699.256H507.218V700.184H508.77V707H509.858ZM512.225 703.128C512.225 705.48 513.889 707.192 516.161 707.192C518.433 707.192 520.097 705.48 520.097 703.128C520.097 700.76 518.433 699.048 516.161 699.048C513.889 699.048 512.225 700.76 512.225 703.128ZM513.345 703.112C513.345 701.32 514.497 700.04 516.161 700.04C517.809 700.04 518.977 701.32 518.977 703.112C518.977 704.936 517.809 706.2 516.161 706.2C514.497 706.2 513.345 704.936 513.345 703.112ZM523.561 707V700.184H525.113V699.256H523.561V696.808H522.473V699.256H520.921V700.184H522.473V707H523.561ZM525.766 710.376C526.118 710.456 526.47 710.488 526.934 710.488C528.038 710.488 528.79 709.992 529.238 708.776L532.79 699.256H531.654L529.206 706.008L526.71 699.256H525.542L528.678 707.464L528.342 708.376C527.958 709.416 527.286 709.464 526.614 709.464H525.766V710.376ZM534.082 710.376H535.186V705.512C535.73 706.632 536.77 707.192 538.082 707.192C540.37 707.192 541.666 705.432 541.666 703.096C541.666 700.76 540.322 699.048 538.082 699.048C536.786 699.048 535.698 699.624 535.154 700.824L535.042 699.256H534.082V710.376ZM535.202 703.128C535.202 701.336 536.194 700.056 537.89 700.056C539.57 700.056 540.546 701.336 540.546 703.128C540.546 704.904 539.57 706.2 537.89 706.2C536.194 706.2 535.202 704.904 535.202 703.128ZM546.673 707.192C548.497 707.192 549.697 706.312 550.113 704.68H549.057C548.769 705.704 547.953 706.248 546.689 706.248C545.025 706.248 544.033 705.16 543.953 703.272H550.113V702.728C550.113 700.536 548.689 699.048 546.593 699.048C544.385 699.048 542.881 700.712 542.881 703.128C542.881 705.56 544.401 707.192 546.673 707.192ZM546.593 699.992C548.049 699.992 549.009 700.984 549.009 702.472H543.985C544.177 700.952 545.137 699.992 546.593 699.992Z" fill="white"/>
<path d="M648.2 72C651.64 72 653.928 69.696 653.928 66.272C653.928 62.848 651.624 60.544 648.168 60.544H644.712V72H648.2ZM648.12 61.6C650.952 61.6 652.744 63.408 652.744 66.272C652.744 69.12 650.952 70.944 648.152 70.944H645.864V61.6H648.12ZM654.985 75.376C655.337 75.456 655.689 75.488 656.153 75.488C657.257 75.488 658.009 74.992 658.457 73.776L662.009 64.256H660.873L658.425 71.008L655.929 64.256H654.761L657.897 72.464L657.561 73.376C657.177 74.416 656.505 74.464 655.833 74.464H654.985V75.376ZM664.404 72V67.952C664.404 66.208 665.3 65.056 666.884 65.056C668.164 65.056 668.98 65.696 668.98 67.504V72H670.084V67.264C670.084 65.312 669.204 64.048 667.076 64.048C665.956 64.048 664.932 64.608 664.42 65.6L664.26 64.256H663.3V72H664.404ZM674.509 72.192C675.821 72.192 676.877 71.616 677.357 70.64L677.501 72H678.429V66.992C678.429 64.944 677.117 64.048 675.325 64.048C673.421 64.048 672.141 65.056 672.141 66.624H673.149C673.149 65.584 673.949 64.976 675.293 64.976C676.429 64.976 677.341 65.456 677.341 66.976V67.232L674.781 67.44C672.973 67.584 671.885 68.48 671.885 69.904C671.885 71.264 672.861 72.192 674.509 72.192ZM674.765 71.296C673.709 71.296 673.005 70.816 673.005 69.872C673.005 69.008 673.597 68.368 675.053 68.24L677.341 68.064V68.48C677.341 70.16 676.397 71.296 674.765 71.296ZM681.748 72V67.2C681.748 66.016 682.532 65.056 683.828 65.056C684.996 65.056 685.748 65.824 685.748 67.136V72H686.836V67.216C686.836 66.016 687.604 65.04 688.9 65.04C690.084 65.04 690.82 65.824 690.82 67.152V72H691.892V66.928C691.892 65.136 690.788 64.048 689.108 64.048C687.86 64.048 686.916 64.688 686.564 65.696C686.196 64.688 685.284 64.048 684.068 64.048C682.98 64.048 682.116 64.544 681.732 65.36L681.604 64.256H680.644V72H681.748ZM694.657 62.128C695.105 62.128 695.489 61.76 695.489 61.312C695.489 60.864 695.105 60.48 694.657 60.48C694.209 60.48 693.841 60.864 693.841 61.312C693.841 61.76 694.209 62.128 694.657 62.128ZM694.113 72H695.217V64.256H694.113V72ZM696.975 68.144C696.975 70.576 698.463 72.192 700.655 72.192C702.415 72.192 703.791 71.152 704.159 69.568H703.039C702.735 70.56 701.807 71.2 700.655 71.2C699.087 71.2 698.063 69.968 698.063 68.128C698.063 66.224 699.167 65.024 700.735 65.024C701.807 65.024 702.735 65.616 703.023 66.688H704.127C703.823 65.088 702.511 64.048 700.719 64.048C698.463 64.048 696.975 65.712 696.975 68.144ZM641.465 97.376H642.569V92.512C643.113 93.632 644.153 94.192 645.465 94.192C647.753 94.192 649.049 92.432 649.049 90.096C649.049 87.76 647.705 86.048 645.465 86.048C644.169 86.048 643.081 86.624 642.537 87.824L642.424 86.256H641.465V97.376ZM642.585 90.128C642.585 88.336 643.577 87.056 645.273 87.056C646.953 87.056 647.929 88.336 647.929 90.128C647.929 91.904 646.953 93.2 645.273 93.2C643.577 93.2 642.585 91.904 642.585 90.128ZM654.856 86.16C654.584 86.096 654.376 86.08 654.136 86.08C653.048 86.08 652.232 86.624 651.928 87.456L651.848 86.256H650.808V94H651.912V89.584C651.912 88.112 652.824 87.152 654.248 87.152H654.856V86.16ZM655.483 90.128C655.483 92.48 657.147 94.192 659.419 94.192C661.691 94.192 663.355 92.48 663.355 90.128C663.355 87.76 661.691 86.048 659.419 86.048C657.147 86.048 655.483 87.76 655.483 90.128ZM656.603 90.112C656.603 88.32 657.755 87.04 659.419 87.04C661.067 87.04 662.235 88.32 662.235 90.112C662.235 91.936 661.067 93.2 659.419 93.2C657.755 93.2 656.603 91.936 656.603 90.112ZM666.819 94V87.184H668.371V86.256H666.819V83.808H665.731V86.256H664.179V87.184H665.731V94H666.819ZM669.186 90.128C669.186 92.48 670.85 94.192 673.122 94.192C675.394 94.192 677.058 92.48 677.058 90.128C677.058 87.76 675.394 86.048 673.122 86.048C670.85 86.048 669.186 87.76 669.186 90.128ZM670.306 90.112C670.306 88.32 671.458 87.04 673.122 87.04C674.77 87.04 675.938 88.32 675.938 90.112C675.938 91.936 674.77 93.2 673.122 93.2C671.458 93.2 670.306 91.936 670.306 90.112ZM680.522 94V87.184H682.074V86.256H680.522V83.808H679.434V86.256H677.882V87.184H679.434V94H680.522ZM682.727 97.376C683.079 97.456 683.431 97.488 683.895 97.488C684.999 97.488 685.751 96.992 686.199 95.776L689.751 86.256H688.615L686.167 93.008L683.671 86.256H682.503L685.639 94.464L685.303 95.376C684.919 96.416 684.247 96.464 683.575 96.464H682.727V97.376ZM691.043 97.376H692.147V92.512C692.691 93.632 693.731 94.192 695.043 94.192C697.331 94.192 698.627 92.432 698.627 90.096C698.627 87.76 697.283 86.048 695.043 86.048C693.747 86.048 692.659 86.624 692.115 87.824L692.003 86.256H691.043V97.376ZM692.163 90.128C692.163 88.336 693.155 87.056 694.851 87.056C696.531 87.056 697.507 88.336 697.507 90.128C697.507 91.904 696.531 93.2 694.851 93.2C693.155 93.2 692.163 91.904 692.163 90.128ZM703.634 94.192C705.458 94.192 706.658 93.312 707.074 91.68H706.018C705.73 92.704 704.914 93.248 703.65 93.248C701.986 93.248 700.994 92.16 700.914 90.272H707.074V89.728C707.074 87.536 705.65 86.048 703.554 86.048C701.346 86.048 699.842 87.712 699.842 90.128C699.842 92.56 701.362 94.192 703.634 94.192ZM703.554 86.992C705.01 86.992 705.97 87.984 705.97 89.472H700.946C701.138 87.952 702.098 86.992 703.554 86.992Z" fill="white"/>
<path d="M629.414 648.016C629.414 650.624 631.014 652.192 633.67 652.192C636.278 652.192 637.878 650.608 637.878 648.016V640.544H636.726V647.968C636.726 649.952 635.622 651.072 633.67 651.072C631.67 651.072 630.566 649.984 630.566 647.968V640.544H629.414V648.016ZM641.739 640.544H640.587V652H641.739V640.544ZM653.762 641.44C655.442 641.44 656.786 642.24 657.266 643.808H658.514C658.066 641.728 656.194 640.352 653.778 640.352C650.498 640.352 648.258 642.816 648.258 646.32C648.258 649.856 650.498 652.192 653.746 652.192C655.602 652.192 657.042 651.328 657.65 650.192L657.762 652.016H658.674V645.808H653.442V646.832H657.586V647.424C657.586 650.176 655.714 651.104 653.794 651.104C651.218 651.104 649.458 649.296 649.458 646.32C649.458 643.392 651.122 641.44 653.762 641.44ZM666.162 644.256V648.368C666.162 650.208 665.282 651.2 663.794 651.2C662.562 651.2 661.746 650.544 661.746 648.704V644.24H660.626V649.056C660.626 650.944 661.618 652.192 663.442 652.192C664.658 652.192 665.73 651.584 666.162 650.688L666.306 652H667.266V644.256H666.162ZM670.11 642.128C670.558 642.128 670.942 641.76 670.942 641.312C670.942 640.864 670.558 640.48 670.11 640.48C669.662 640.48 669.294 640.864 669.294 641.312C669.294 641.76 669.662 642.128 670.11 642.128ZM669.566 652H670.67V644.256H669.566V652ZM676.012 652.192C677.308 652.192 678.396 651.616 678.94 650.416L679.052 652H680.012V640.336H678.908V645.728C678.364 644.608 677.34 644.048 676.06 644.048C673.756 644.048 672.428 645.808 672.428 648.144C672.428 650.464 673.756 652.192 676.012 652.192ZM676.204 651.184C674.524 651.184 673.548 649.904 673.548 648.112C673.548 646.336 674.524 645.04 676.204 645.04C677.9 645.04 678.892 646.336 678.892 648.112C678.892 649.904 677.9 651.184 676.204 651.184ZM685.564 652.192C687.388 652.192 688.588 651.312 689.004 649.68H687.948C687.66 650.704 686.844 651.248 685.58 651.248C683.916 651.248 682.924 650.16 682.844 648.272H689.004V647.728C689.004 645.536 687.58 644.048 685.484 644.048C683.276 644.048 681.772 645.712 681.772 648.128C681.772 650.56 683.292 652.192 685.564 652.192ZM685.484 644.992C686.94 644.992 687.9 645.984 687.9 647.472H682.876C683.068 645.952 684.028 644.992 685.484 644.992ZM691.921 652V640.336H690.817V652H691.921ZM694.813 642.128C695.261 642.128 695.645 641.76 695.645 641.312C695.645 640.864 695.261 640.48 694.813 640.48C694.365 640.48 693.997 640.864 693.997 641.312C693.997 641.76 694.365 642.128 694.813 642.128ZM694.269 652H695.373V644.256H694.269V652ZM698.779 652V647.952C698.779 646.208 699.675 645.056 701.259 645.056C702.539 645.056 703.355 645.696 703.355 647.504V652H704.459V647.264C704.459 645.312 703.579 644.048 701.451 644.048C700.331 644.048 699.307 644.608 698.795 645.6L698.635 644.256H697.675V652H698.779ZM709.908 652.192C711.732 652.192 712.932 651.312 713.348 649.68H712.292C712.004 650.704 711.188 651.248 709.924 651.248C708.26 651.248 707.268 650.16 707.188 648.272H713.348V647.728C713.348 645.536 711.924 644.048 709.828 644.048C707.62 644.048 706.116 645.712 706.116 648.128C706.116 650.56 707.636 652.192 709.908 652.192ZM709.828 644.992C711.284 644.992 712.244 645.984 712.244 647.472H707.22C707.412 645.952 708.372 644.992 709.828 644.992ZM714.457 649.824C714.457 651.264 715.545 652.192 717.289 652.192C719.049 652.192 720.233 651.28 720.233 649.888C720.233 648.768 719.625 648.144 718.281 647.808L716.953 647.472C716.105 647.264 715.689 646.848 715.689 646.256C715.689 645.424 716.297 644.96 717.385 644.96C718.425 644.96 719.049 645.488 719.081 646.384H720.153C720.105 644.944 719.049 644.048 717.417 644.048C715.753 644.048 714.617 644.912 714.617 646.272C714.617 647.328 715.273 648.032 716.617 648.368L717.945 648.704C718.857 648.928 719.177 649.296 719.177 649.936C719.177 650.768 718.473 651.28 717.273 651.28C716.185 651.28 715.513 650.72 715.513 649.824H714.457ZM654.368 674.192C655.68 674.192 656.736 673.616 657.216 672.64L657.36 674H658.288V668.992C658.288 666.944 656.976 666.048 655.184 666.048C653.28 666.048 652 667.056 652 668.624H653.008C653.008 667.584 653.808 666.976 655.152 666.976C656.288 666.976 657.2 667.456 657.2 668.976V669.232L654.64 669.44C652.832 669.584 651.744 670.48 651.744 671.904C651.744 673.264 652.72 674.192 654.368 674.192ZM654.624 673.296C653.568 673.296 652.864 672.816 652.864 671.872C652.864 671.008 653.456 670.368 654.912 670.24L657.2 670.064V670.48C657.2 672.16 656.256 673.296 654.624 673.296ZM661.608 674V669.952C661.608 668.208 662.504 667.056 664.088 667.056C665.368 667.056 666.184 667.696 666.184 669.504V674H667.288V669.264C667.288 667.312 666.408 666.048 664.28 666.048C663.16 666.048 662.136 666.608 661.624 667.6L661.464 666.256H660.504V674H661.608ZM672.528 674.192C673.824 674.192 674.912 673.616 675.456 672.416L675.568 674H676.528V662.336H675.424V667.728C674.88 666.608 673.856 666.048 672.576 666.048C670.272 666.048 668.944 667.808 668.944 670.144C668.944 672.464 670.272 674.192 672.528 674.192ZM672.72 673.184C671.04 673.184 670.064 671.904 670.064 670.112C670.064 668.336 671.04 667.04 672.72 667.04C674.416 667.04 675.408 668.336 675.408 670.112C675.408 671.904 674.416 673.184 672.72 673.184ZM684.421 674V671.68L685.925 670.128L688.389 674H689.669L686.677 669.344L689.653 666.256H688.261L684.421 670.256V662.336H683.317V674H684.421ZM691.532 664.128C691.98 664.128 692.364 663.76 692.364 663.312C692.364 662.864 691.98 662.48 691.532 662.48C691.084 662.48 690.716 662.864 690.716 663.312C690.716 663.76 691.084 664.128 691.532 664.128ZM690.988 674H692.092V666.256H690.988V674ZM696.17 674V667.184H697.722V666.256H696.17V663.808H695.082V666.256H693.53V667.184H695.082V674H696.17Z" fill="white"/>
<path d="M793.529 271V269.944H787.817V265.768H792.985V264.728H787.817V260.6H793.513V259.544H786.665V271H793.529ZM798.669 271.192C799.965 271.192 801.053 270.616 801.597 269.416L801.709 271H802.669V259.336H801.565V264.728C801.021 263.608 799.997 263.048 798.717 263.048C796.413 263.048 795.085 264.808 795.085 267.144C795.085 269.464 796.413 271.192 798.669 271.192ZM798.861 270.184C797.181 270.184 796.205 268.904 796.205 267.112C796.205 265.336 797.181 264.04 798.861 264.04C800.557 264.04 801.549 265.336 801.549 267.112C801.549 268.904 800.557 270.184 798.861 270.184ZM805.516 261.128C805.964 261.128 806.348 260.76 806.348 260.312C806.348 259.864 805.964 259.48 805.516 259.48C805.068 259.48 804.7 259.864 804.7 260.312C804.7 260.76 805.068 261.128 805.516 261.128ZM804.972 271H806.076V263.256H804.972V271ZM810.155 271V264.184H811.707V263.256H810.155V260.808H809.067V263.256H807.515V264.184H809.067V271H810.155ZM813.688 261.128C814.136 261.128 814.52 260.76 814.52 260.312C814.52 259.864 814.136 259.48 813.688 259.48C813.24 259.48 812.872 259.864 812.872 260.312C812.872 260.76 813.24 261.128 813.688 261.128ZM813.144 271H814.248V263.256H813.144V271ZM817.654 271V266.952C817.654 265.208 818.55 264.056 820.134 264.056C821.414 264.056 822.23 264.696 822.23 266.504V271H823.334V266.264C823.334 264.312 822.454 263.048 820.326 263.048C819.206 263.048 818.182 263.608 817.67 264.6L817.51 263.256H816.55V271H817.654ZM825.007 266.904C825.007 269.016 826.351 270.76 828.559 270.76C829.887 270.76 830.959 270.12 831.487 269.032V270.872C831.487 272.488 830.431 273.56 828.847 273.56C827.455 273.56 826.495 272.824 826.255 271.576H825.151C825.455 273.448 826.847 274.568 828.831 274.568C831.103 274.568 832.575 273.064 832.575 270.76V263.256H831.615L831.503 264.808C831.007 263.672 829.983 263.048 828.639 263.048C826.367 263.048 825.007 264.792 825.007 266.904ZM826.111 266.888C826.111 265.32 827.071 264.024 828.735 264.024C830.431 264.024 831.391 265.24 831.391 266.888C831.391 268.552 830.399 269.768 828.719 269.768C827.087 269.768 826.111 268.472 826.111 266.888Z" fill="white"/>
<path d="M763.333 475C766.773 475 769.061 472.696 769.061 469.272C769.061 465.848 766.757 463.544 763.301 463.544H759.845V475H763.333ZM763.253 464.6C766.085 464.6 767.877 466.408 767.877 469.272C767.877 472.12 766.085 473.944 763.285 473.944H760.997V464.6H763.253ZM774.15 475.192C775.974 475.192 777.174 474.312 777.59 472.68H776.534C776.246 473.704 775.43 474.248 774.166 474.248C772.502 474.248 771.51 473.16 771.43 471.272H777.59V470.728C777.59 468.536 776.166 467.048 774.07 467.048C771.862 467.048 770.358 468.712 770.358 471.128C770.358 473.56 771.878 475.192 774.15 475.192ZM774.07 467.992C775.526 467.992 776.486 468.984 776.486 470.472H771.462C771.654 468.952 772.614 467.992 774.07 467.992ZM778.699 472.824C778.699 474.264 779.787 475.192 781.531 475.192C783.291 475.192 784.475 474.28 784.475 472.888C784.475 471.768 783.867 471.144 782.523 470.808L781.195 470.472C780.347 470.264 779.931 469.848 779.931 469.256C779.931 468.424 780.539 467.96 781.627 467.96C782.667 467.96 783.291 468.488 783.323 469.384H784.395C784.347 467.944 783.291 467.048 781.659 467.048C779.995 467.048 778.859 467.912 778.859 469.272C778.859 470.328 779.515 471.032 780.859 471.368L782.187 471.704C783.099 471.928 783.419 472.296 783.419 472.936C783.419 473.768 782.715 474.28 781.515 474.28C780.427 474.28 779.755 473.72 779.755 472.824H778.699ZM786.837 465.128C787.285 465.128 787.669 464.76 787.669 464.312C787.669 463.864 787.285 463.48 786.837 463.48C786.389 463.48 786.021 463.864 786.021 464.312C786.021 464.76 786.389 465.128 786.837 465.128ZM786.293 475H787.397V467.256H786.293V475ZM789.171 470.904C789.171 473.016 790.515 474.76 792.723 474.76C794.051 474.76 795.123 474.12 795.651 473.032V474.872C795.651 476.488 794.595 477.56 793.011 477.56C791.619 477.56 790.659 476.824 790.419 475.576H789.315C789.619 477.448 791.011 478.568 792.995 478.568C795.267 478.568 796.739 477.064 796.739 474.76V467.256H795.779L795.667 468.808C795.171 467.672 794.147 467.048 792.803 467.048C790.531 467.048 789.171 468.792 789.171 470.904ZM790.275 470.888C790.275 469.32 791.235 468.024 792.899 468.024C794.595 468.024 795.555 469.24 795.555 470.888C795.555 472.552 794.563 473.768 792.883 473.768C791.251 473.768 790.275 472.472 790.275 470.888ZM800.147 475V470.952C800.147 469.208 801.043 468.056 802.627 468.056C803.907 468.056 804.723 468.696 804.723 470.504V475H805.827V470.264C805.827 468.312 804.947 467.048 802.819 467.048C801.699 467.048 800.675 467.608 800.163 468.6L800.003 467.256H799.043V475H800.147ZM813.857 475V470.248H817.201L819.536 475H820.817L818.369 470.056C819.841 469.656 820.705 468.504 820.705 466.856C820.705 464.824 819.297 463.544 816.977 463.544H812.705V475H813.857ZM813.857 464.584H816.977C818.545 464.584 819.521 465.4 819.521 466.888C819.521 468.344 818.593 469.208 817.009 469.208H813.857V464.584ZM825.384 475.192C827.208 475.192 828.408 474.312 828.824 472.68H827.768C827.48 473.704 826.664 474.248 825.4 474.248C823.736 474.248 822.744 473.16 822.664 471.272H828.824V470.728C828.824 468.536 827.4 467.048 825.304 467.048C823.096 467.048 821.592 468.712 821.592 471.128C821.592 473.56 823.112 475.192 825.384 475.192ZM825.304 467.992C826.76 467.992 827.72 468.984 827.72 470.472H822.696C822.888 468.952 823.848 467.992 825.304 467.992ZM832.546 475H833.65L836.866 467.256H835.73L833.698 472.248C833.474 472.808 833.266 473.32 833.122 473.848C832.978 473.336 832.77 472.808 832.562 472.248L830.562 467.256H829.378L832.546 475ZM838.712 465.128C839.16 465.128 839.544 464.76 839.544 464.312C839.544 463.864 839.16 463.48 838.712 463.48C838.264 463.48 837.896 463.864 837.896 464.312C837.896 464.76 838.264 465.128 838.712 465.128ZM838.168 475H839.272V467.256H838.168V475ZM844.822 475.192C846.646 475.192 847.846 474.312 848.262 472.68H847.206C846.918 473.704 846.102 474.248 844.838 474.248C843.174 474.248 842.182 473.16 842.102 471.272H848.262V470.728C848.262 468.536 846.838 467.048 844.742 467.048C842.534 467.048 841.03 468.712 841.03 471.128C841.03 473.56 842.55 475.192 844.822 475.192ZM844.742 467.992C846.198 467.992 847.158 468.984 847.158 470.472H842.134C842.326 468.952 843.286 467.992 844.742 467.992ZM851.456 475H852.56L854.16 470.136C854.368 469.496 854.496 469.032 854.608 468.616C854.704 469.08 854.832 469.56 855.024 470.136L856.624 475H857.696L860.32 467.256H859.168L857.632 471.928C857.36 472.76 857.328 472.952 857.168 473.592C857.024 473.016 856.832 472.344 856.688 471.928L855.168 467.256H854.032L852.496 471.928C852.416 472.184 852.16 472.968 852.032 473.592C851.872 472.968 851.728 472.44 851.552 471.928L850.032 467.256H848.896L851.456 475Z" fill="white"/>
<circle cx="148" cy="326" r="25.5" fill="black" stroke="white"/>
<path d="M148.417 322.144V332H150.385V320.304H145.857V322.144H148.417Z" fill="white"/>
<circle cx="148" cy="530" r="25.5" fill="black" stroke="white"/>
<path d="M148.417 526.144V536H150.385V524.304H145.857V526.144H148.417Z" fill="white"/>
<circle cx="284" cy="149" r="25.5" fill="black" stroke="white"/>
<path d="M288.137 154.984V153.08H283.273L285.385 151.272C287.161 149.752 288.057 148.52 288.057 146.888C288.057 144.52 286.505 143.096 284.009 143.096C281.529 143.096 279.897 144.76 279.881 147.32H281.913C281.929 145.816 282.729 144.92 284.009 144.92C285.241 144.92 285.961 145.672 285.961 147C285.961 148.12 285.433 148.888 283.849 150.232L280.025 153.464V155L288.137 154.984Z" fill="white"/>
<circle cx="284" cy="729" r="25.5" fill="black" stroke="white"/>
<path d="M288.137 734.984V733.08H283.273L285.385 731.272C287.161 729.752 288.057 728.52 288.057 726.888C288.057 724.52 286.505 723.096 284.009 723.096C281.529 723.096 279.897 724.76 279.881 727.32H281.913C281.929 725.816 282.729 724.92 284.009 724.92C285.241 724.92 285.961 725.672 285.961 727C285.961 728.12 285.433 728.888 283.849 730.232L280.025 733.464V735L288.137 734.984Z" fill="white"/>
<circle cx="480" cy="94" r="25.5" fill="black" stroke="white"/>
<path d="M479.589 94.208C481.221 94.208 481.989 95.072 481.989 96.256C481.989 97.552 481.141 98.384 479.861 98.384C478.613 98.384 477.781 97.616 477.781 96.272H475.765C475.765 98.8 477.541 100.208 479.829 100.208C482.197 100.208 484.069 98.688 484.069 96.288C484.069 94.224 482.677 92.912 480.885 92.56L483.733 89.936V88.304H476.309V90.112H481.173L478.165 92.88V94.208H479.589Z" fill="white"/>
<circle cx="480" cy="784" r="25.5" fill="black" stroke="white"/>
<path d="M479.589 784.208C481.221 784.208 481.989 785.072 481.989 786.256C481.989 787.552 481.141 788.384 479.861 788.384C478.613 788.384 477.781 787.616 477.781 786.272H475.765C475.765 788.8 477.541 790.208 479.829 790.208C482.197 790.208 484.069 788.688 484.069 786.288C484.069 784.224 482.677 782.912 480.885 782.56L483.733 779.936V778.304H476.309V780.112H481.173L478.165 782.88V784.208H479.589Z" fill="white"/>
<circle cx="676" cy="149" r="25.5" fill="black" stroke="white"/>
<path d="M681.072 152.776V150.984H679.648V143.304H677.072L671.776 150.984V152.776H677.712V155H679.648V152.776H681.072ZM673.952 150.984L677.712 145.512V150.984H673.952Z" fill="white"/>
<circle cx="676" cy="729" r="25.5" fill="black" stroke="white"/>
<path d="M681.072 732.776V730.984H679.648V723.304H677.072L671.776 730.984V732.776H677.712V735H679.648V732.776H681.072ZM673.952 730.984L677.712 725.512V730.984H673.952Z" fill="white"/>
<circle cx="812" cy="326" r="25.5" fill="black" stroke="white"/>
<path d="M811.923 332.192C814.531 332.192 816.307 330.464 816.307 327.936C816.307 325.632 814.755 324.048 812.419 324.048C811.619 324.048 810.915 324.256 810.355 324.624L810.979 322.192H815.603V320.304H809.507L808.067 326.432L809.875 326.816C810.291 326.208 811.107 325.76 812.003 325.76C813.411 325.76 814.227 326.688 814.227 328.048C814.227 329.472 813.347 330.368 811.971 330.368C810.675 330.368 809.891 329.584 809.891 328.256H807.859C807.859 330.624 809.475 332.192 811.923 332.192Z" fill="white"/>
<circle cx="812" cy="530" r="25.5" fill="black" stroke="white"/>
<path d="M811.923 536.192C814.531 536.192 816.307 534.464 816.307 531.936C816.307 529.632 814.755 528.048 812.419 528.048C811.619 528.048 810.915 528.256 810.355 528.624L810.979 526.192H815.603V524.304H809.507L808.067 530.432L809.875 530.816C810.291 530.208 811.107 529.76 812.003 529.76C813.411 529.76 814.227 530.688 814.227 532.048C814.227 533.472 813.347 534.368 811.971 534.368C810.675 534.368 809.891 533.584 809.891 532.256H807.859C807.859 534.624 809.475 536.192 811.923 536.192Z" fill="white"/>
</svg>
